<?xml version="1.0" standalone="no"?>
<!DOCTYPE svg PUBLIC "-//W3C//DTD SVG 20010904//EN"
 "http://www.w3.org/TR/2001/REC-SVG-20010904/DTD/svg10.dtd">
<svg version="1.0" xmlns="http://www.w3.org/2000/svg"
 width="250.000000pt" height="250.000000pt" viewBox="0 0 250.000000 250.000000"
 preserveAspectRatio="xMidYMid meet">
<metadata>
Created by potrace 1.14, written by Peter Selinger 2001-2017
</metadata>
<g transform="translate(0.000000,250.000000) scale(0.100000,-0.100000)"
fill="#000000" stroke="none">
<path d="M1238 2415 c-2 -2 -32 -5 -68 -6 -36 -1 -103 -11 -150 -20 -224 -47
-409 -148 -575 -314 -232 -232 -353 -538 -341 -860 6 -140 12 -178 48 -300 77
-261 243 -485 476 -643 104 -71 311 -152 422 -167 30 -4 64 -9 75 -11 27 -6
224 -5 255 0 14 3 43 7 64 11 145 21 331 98 465 193 83 58 213 187 273 272
133 188 216 447 216 675 0 74 -18 226 -33 285 -57 216 -156 391 -310 545 -139
139 -295 234 -475 288 -99 30 -129 36 -230 43 -41 3 -83 7 -92 8 -9 2 -18 2
-20 1z m12 -59 c0 -2 -7 -7 -16 -10 -8 -3 -12 -2 -9 4 6 10 25 14 25 6z m70
-17 c0 -5 -4 -9 -8 -9 -5 0 -9 7 -9 15 0 8 4 12 9 9 4 -3 8 -9 8 -15z m-170
-9 c6 -11 8 -20 6 -20 -3 0 -10 9 -16 20 -6 11 -8 20 -6 20 3 0 10 -9 16 -20z
m55 10 c-3 -5 -12 -10 -18 -10 -7 0 -6 4 3 10 19 12 23 12 15 0z m60 0 c-3 -5
-12 -10 -18 -10 -7 0 -6 4 3 10 19 12 23 12 15 0z m110 0 c3 -5 1 -10 -4 -10
-6 0 -11 5 -11 10 0 6 2 10 4 10 3 0 8 -4 11 -10z m-314 -9 c-7 -5 -17 -14
-21 -21 -5 -8 -9 -7 -13 5 -4 9 -3 13 2 10 5 -3 12 -1 16 5 3 5 12 10 18 10 8
0 7 -3 -2 -9z m39 -6 c7 -9 8 -15 2 -15 -5 0 -12 7 -16 15 -3 8 -4 15 -2 15 2
0 9 -7 16 -15z m311 -8 c-10 -9 -11 -8 -5 6 3 10 9 15 12 12 3 -3 0 -11 -7
-18z m-160 -6 c23 -18 23 -20 6 -38 -9 -11 -14 -23 -11 -26 4 -4 13 1 21 11
12 16 14 16 27 -1 8 -10 17 -14 20 -9 3 5 -1 15 -9 22 -8 7 -15 16 -15 21 0
12 49 43 57 36 3 -4 -6 -11 -21 -16 -14 -6 -26 -16 -26 -22 0 -8 5 -7 18 2 14
11 15 11 5 -1 -10 -10 -10 -17 -1 -28 9 -10 8 -16 -3 -23 -9 -6 -18 -3 -26 8
-12 16 -14 16 -25 0 -9 -11 -18 -14 -27 -8 -11 7 -12 13 -3 23 9 11 9 18 -1
28 -10 12 -9 12 6 1 12 -9 17 -10 17 -2 0 6 -11 16 -25 21 -14 5 -25 12 -25
15 0 11 19 4 41 -14z m39 9 c0 -5 -4 -10 -10 -10 -5 0 -10 5 -10 10 0 6 5 10
10 10 6 0 10 -4 10 -10z m195 -1 c4 -6 13 -8 21 -5 7 3 16 1 19 -5 4 -5 1 -8
-6 -7 -6 2 -13 -2 -16 -8 -6 -18 31 -11 39 6 6 11 7 10 5 -5 -2 -14 -9 -19
-22 -17 -16 3 -17 2 -6 -12 8 -9 9 -16 3 -16 -5 0 -17 16 -26 35 -9 19 -21 35
-27 35 -6 0 -8 -4 -4 -9 9 -15 -13 -23 -32 -11 -16 9 -15 10 5 5 12 -4 22 -3
21 2 -4 24 14 32 26 12z m-413 -24 c-8 -16 -9 -16 -15 -1 -4 10 -3 15 3 11 6
-3 10 -1 10 6 0 7 3 10 6 6 3 -3 2 -13 -4 -22z m112 9 c3 -8 2 -12 -4 -9 -6 3
-10 1 -10 -6 0 -7 -2 -10 -5 -7 -5 5 4 38 10 38 2 0 6 -7 9 -16z m212 -21 c-3
-4 -6 -1 -6 6 0 7 -4 9 -10 6 -6 -4 -7 1 -3 11 6 15 7 15 15 -1 6 -9 7 -19 4
-22z m-410 1 c-4 -9 -9 -15 -11 -12 -3 3 -3 13 1 22 4 9 9 15 11 12 3 -3 3
-13 -1 -22z m44 -7 c0 -5 -4 -5 -10 -2 -5 3 -10 14 -10 23 0 15 2 15 10 2 5
-8 10 -19 10 -23z m100 23 c-8 -5 -19 -10 -25 -10 -5 0 -3 5 5 10 8 5 20 10
25 10 6 0 3 -5 -5 -10z m-212 -8 c15 12 16 11 3 -4 -14 -19 -32 -15 -30 5 0 8
2 8 6 -1 4 -10 8 -10 21 0z m692 2 c0 -8 -19 -13 -24 -6 -3 5 1 9 9 9 8 0 15
-2 15 -3z m-657 -10 c-7 -3 -9 -12 -6 -20 3 -7 9 -11 14 -8 5 3 9 0 9 -5 0
-16 -20 -13 -26 4 -4 8 -11 12 -18 8 -6 -4 -5 1 3 10 7 9 19 17 25 16 7 0 7
-2 -1 -5z m148 -15 c6 -13 7 -19 1 -15 -6 3 -12 1 -14 -6 -3 -7 -7 -5 -11 6
-5 11 -3 15 5 10 8 -5 9 -2 5 9 -9 24 0 21 14 -4z m52 6 c9 -21 -13 -30 -29
-11 -8 9 -9 11 -2 6 19 -15 32 -12 18 5 -7 9 -8 15 -2 15 5 0 12 -7 15 -15z
m70 9 c3 -3 1 -14 -5 -24 -9 -14 -15 -16 -29 -7 -16 10 -16 12 -1 24 19 14 26
16 35 7z m149 -7 c15 -12 15 -14 -1 -24 -14 -9 -20 -7 -29 7 -18 29 1 39 30
17z m48 -2 c-14 -17 -1 -20 18 -5 7 5 6 3 -2 -6 -8 -9 -19 -13 -25 -10 -12 8
-3 36 11 36 6 0 5 -6 -2 -15z m53 -2 c-4 -11 -3 -14 5 -9 8 5 10 1 5 -10 -4
-11 -8 -13 -11 -6 -2 7 -8 9 -14 6 -6 -4 -5 2 1 15 14 25 23 28 14 4z m91 -7
c-3 -9 -10 -16 -15 -16 -5 0 -4 9 3 20 14 22 21 20 12 -4z m66 14 c0 -5 -5
-10 -11 -10 -5 0 -7 5 -4 10 3 6 8 10 11 10 2 0 4 -4 4 -10z m-775 -21 c-4 -5
-1 -9 4 -9 6 0 11 -5 11 -11 0 -8 -5 -8 -15 1 -12 10 -18 10 -30 0 -10 -9 -15
-9 -15 -1 0 6 5 11 11 11 5 0 7 4 4 10 -4 6 1 7 11 3 13 -5 15 -3 9 7 -5 9 -4
11 4 6 6 -4 9 -12 6 -17z m35 6 c7 -9 8 -15 2 -15 -5 0 -12 7 -16 15 -3 8 -4
15 -2 15 2 0 9 -7 16 -15z m120 1 c0 -2 -7 -7 -16 -10 -8 -3 -12 -2 -9 4 6 10
25 14 25 6z m42 -8 c-17 -17 -15 -33 3 -18 8 7 15 9 15 5 0 -4 -7 -13 -17 -20
-15 -11 -14 -14 5 -33 23 -23 16 -31 -7 -9 -11 10 -13 9 -7 -6 3 -11 4 -23 1
-27 -7 -11 -35 -1 -35 12 0 7 5 6 13 -1 11 -8 14 -5 14 19 0 24 -3 27 -14 19
-8 -7 -13 -8 -13 -1 0 5 7 13 15 16 13 5 14 10 4 27 -8 15 -8 19 0 15 6 -4 11
-2 11 3 0 6 5 11 12 11 9 0 9 -3 0 -12z m558 2 c8 -5 11 -10 5 -10 -5 0 -17 5
-25 10 -8 5 -10 10 -5 10 6 0 17 -5 25 -10z m72 -10 c24 -14 34 -16 40 -7 5 8
8 8 8 1 0 -6 -8 -18 -17 -25 -10 -7 -15 -9 -11 -5 5 5 -9 20 -30 32 -20 13
-34 24 -30 24 4 0 22 -9 40 -20z m-752 -10 c0 -5 -4 -10 -10 -10 -5 0 -8 -6
-6 -12 1 -7 1 -10 -1 -5 -3 4 -9 4 -15 1 -5 -3 -4 3 4 15 14 22 28 28 28 11z
m75 0 c-3 -5 -1 -10 6 -10 7 0 10 -2 7 -5 -3 -3 -13 -2 -22 1 -14 5 -15 9 -4
15 17 11 20 11 13 -1z m186 -7 c7 -10 9 -15 5 -11 -5 4 -16 2 -25 -5 -14 -11
-14 -10 -2 6 9 11 10 17 2 17 -6 0 -16 -12 -22 -26 -5 -15 -12 -24 -16 -21 -7
8 24 57 36 57 5 0 15 -8 22 -17z m225 -8 c9 -14 14 -28 11 -32 -4 -3 -11 6
-16 21 -6 14 -16 26 -22 26 -8 0 -7 -6 2 -17 12 -16 12 -17 -2 -6 -9 7 -20 9
-25 5 -4 -4 -2 1 5 11 18 23 28 22 47 -8z m94 10 c11 -13 10 -14 -4 -9 -9 3
-16 10 -16 15 0 13 6 11 20 -6z m90 5 c13 -8 13 -10 -2 -10 -9 0 -20 5 -23 10
-8 13 5 13 25 0z m50 0 c0 -5 -4 -10 -10 -10 -5 0 -8 -6 -6 -12 1 -7 1 -10 -1
-5 -3 4 -9 4 -15 1 -5 -3 -4 3 4 15 14 22 28 28 28 11z m-880 -30 c-13 -24
-32 -22 -36 3 -1 9 2 15 7 11 5 -3 7 -10 4 -15 -4 -5 -2 -9 4 -9 5 0 13 9 16
21 4 11 9 18 12 16 2 -3 -1 -15 -7 -27z m360 21 c0 -6 -5 -13 -12 -17 -7 -5
-8 -3 -3 6 6 10 4 12 -9 7 -10 -4 -15 -3 -11 3 8 13 35 13 35 1z m335 -1 c4
-6 -1 -7 -11 -3 -13 5 -15 3 -9 -7 5 -9 4 -11 -3 -6 -7 4 -12 11 -12 17 0 12
27 12 35 -1z m75 -4 c0 -8 -6 -21 -13 -28 -8 -7 -16 -20 -20 -28 -4 -12 -6
-12 -6 2 -1 9 6 23 14 32 8 8 15 19 15 25 0 6 2 11 5 11 3 0 5 -6 5 -14z m43
-36 c-3 -3 -8 1 -10 8 -3 6 -8 10 -12 8 -4 -3 -7 4 -7 15 0 19 1 18 17 -3 10
-12 15 -25 12 -28z m-729 32 c2 -4 -4 -8 -14 -8 -10 0 -16 4 -14 8 3 4 9 8 14
8 5 0 11 -4 14 -8z m113 2 c-3 -3 -12 -4 -19 -1 -8 3 -5 6 6 6 11 1 17 -2 13
-5z m263 -4 c0 -5 -4 -10 -10 -10 -5 0 -10 5 -10 10 0 6 5 10 10 10 6 0 10 -4
10 -10z m60 0 c0 -5 -4 -10 -10 -10 -5 0 -10 5 -10 10 0 6 5 10 10 10 6 0 10
-4 10 -10z m60 0 c0 -5 -4 -10 -10 -10 -5 0 -10 5 -10 10 0 6 5 10 10 10 6 0
10 -4 10 -10z m336 -1 c11 -18 -14 -35 -28 -20 -11 11 -10 13 5 8 19 -7 24 9
5 16 -10 4 -10 6 -1 6 6 1 15 -4 19 -10z m73 -12 c0 -9 -2 -8 -6 1 -2 6 -10 9
-15 6 -7 -4 -8 -2 -4 5 9 13 26 5 25 -12z m-949 3 c0 -5 -4 -10 -10 -10 -5 0
-10 5 -10 10 0 6 5 10 10 10 6 0 10 -4 10 -10z m85 -19 c-6 -5 -25 10 -25 20
0 5 6 4 14 -3 8 -7 12 -15 11 -17z m81 14 c-24 -18 -33 -19 -42 -3 -5 7 -2 9
8 6 8 -4 21 -2 29 3 22 14 26 10 5 -6z m112 6 c11 -7 10 -9 -3 -14 -9 -4 -14
-3 -10 2 3 5 -1 12 -7 14 -7 3 -8 6 -3 6 6 0 16 -3 23 -8z m182 -24 c10 -19 9
-20 -2 -6 -16 20 -39 13 -31 -9 4 -13 3 -14 -5 -4 -5 8 -13 13 -18 12 -5 -1
-10 4 -12 12 -3 9 -1 10 5 1 6 -8 12 -8 25 1 10 7 14 17 10 21 -4 5 -1 5 5 1
7 -4 18 -17 23 -29z m46 24 c-3 -5 1 -11 9 -15 8 -3 15 -10 15 -16 0 -6 -8 -4
-17 6 -17 16 -18 16 -24 -7 -6 -21 -7 -21 -8 -3 -1 11 4 25 11 32 14 14 22 16
14 3z m176 2 c-6 -2 -10 -9 -7 -14 4 -5 -1 -6 -10 -2 -13 5 -14 7 -3 14 7 5
18 8 23 8 6 0 4 -3 -3 -6z m-311 -37 c-11 -27 -24 -37 -16 -11 3 8 7 22 10 31
3 9 8 15 11 12 2 -3 0 -17 -5 -32z m219 8 c0 4 7 1 15 -8 8 -8 15 -18 15 -22
0 -3 -7 -1 -15 6 -12 10 -18 10 -30 0 -10 -9 -15 -9 -15 -1 0 6 5 11 12 11 9
0 9 3 0 12 -7 7 -12 17 -12 23 0 5 7 1 15 -9 8 -11 15 -16 15 -12z m394 11 c3
-9 12 -12 23 -9 15 5 16 4 3 -5 -20 -15 -23 -14 -38 9 -7 11 -8 20 -3 20 5 0
11 -7 15 -15z m-909 -20 c17 -14 25 -25 19 -25 -6 0 -19 9 -29 20 -18 20 -62
29 -50 10 3 -5 1 -10 -4 -10 -12 0 -14 13 -4 23 12 13 38 6 68 -18z m112 -7
c-3 -7 -5 -2 -5 12 0 14 2 19 5 13 2 -7 2 -19 0 -25z m138 3 c-6 -5 -25 10
-25 20 0 5 6 4 14 -3 8 -7 12 -15 11 -17z m222 -3 c-3 -7 -5 -2 -5 12 0 14 2
19 5 13 2 -7 2 -19 0 -25z m90 0 c-3 -7 -5 -2 -5 12 0 14 2 19 5 13 2 -7 2
-19 0 -25z m256 11 c-24 -12 -40 -25 -37 -31 3 -5 15 -2 26 9 19 17 20 17 39
-6 18 -22 25 -41 14 -41 -3 0 -10 11 -15 25 -5 14 -15 25 -21 25 -8 0 -7 -5 2
-17 11 -15 11 -16 -1 -6 -11 10 -17 10 -28 0 -12 -9 -16 -9 -19 1 -3 6 -9 10
-14 6 -5 -3 -9 -3 -9 0 0 10 74 56 90 56 8 0 -4 -9 -27 -21z m-1003 1 c-8 -5
-19 -10 -25 -10 -5 0 -3 5 5 10 8 5 20 10 25 10 6 0 3 -5 -5 -10z m63 -10 c10
0 15 5 12 10 -3 6 -1 10 5 10 7 0 10 -6 8 -12 -7 -20 -43 -21 -58 -1 -12 15
-12 16 0 6 8 -7 22 -13 33 -13z m167 10 c0 -5 -4 -10 -10 -10 -5 0 -10 5 -10
10 0 6 5 10 10 10 6 0 10 -4 10 -10z m611 -12 c-11 -11 -18 -25 -15 -30 3 -4
0 -8 -5 -8 -6 0 -11 2 -11 5 0 12 33 55 42 55 5 0 0 -10 -11 -22z m109 12 c0
-5 -4 -10 -10 -10 -5 0 -10 5 -10 10 0 6 5 10 10 10 6 0 10 -4 10 -10z m110 0
c-8 -5 -19 -10 -25 -10 -5 0 -3 5 5 10 8 5 20 10 25 10 6 0 3 -5 -5 -10z
m-130 -25 c0 -2 -7 -10 -15 -19 -16 -16 -49 -11 -39 6 4 6 -3 8 -17 4 -13 -3
-18 -3 -11 0 6 3 9 10 6 16 -4 6 1 6 14 -1 11 -6 22 -16 24 -22 2 -7 9 -5 17
5 11 14 11 16 -3 16 -9 0 -16 5 -16 10 0 7 6 7 20 0 11 -6 20 -12 20 -15z
m217 5 c1 -16 -1 -17 -12 -7 -11 10 -8 19 10 27 1 0 1 -9 2 -20z m-1181 -8 c1
-7 2 -17 3 -23 0 -5 5 -8 11 -4 5 3 8 11 6 18 -1 7 -1 9 1 4 3 -4 9 -4 15 -1
5 3 4 -3 -4 -15 -7 -12 -16 -21 -20 -21 -10 0 -31 40 -21 40 4 0 1 5 -7 11
-13 9 -13 10 0 6 8 -2 16 -9 16 -15z m59 7 c11 -16 1 -19 -13 -3 -7 8 -8 14
-3 14 5 0 13 -5 16 -11z m139 2 c3 -5 -1 -14 -9 -21 -8 -7 -15 -9 -15 -4 0 4
-6 0 -13 -11 -11 -14 -16 -15 -22 -5 -5 8 -4 11 2 7 6 -4 15 5 21 18 12 26 27
32 36 16z m112 -7 c18 -14 18 -14 -6 -3 -31 14 -36 19 -24 19 6 0 19 -7 30
-16z m134 11 c0 -3 -11 -10 -25 -15 -14 -5 -25 -15 -25 -21 0 -8 6 -7 18 2 15
12 16 12 5 -2 -7 -9 -11 -19 -8 -23 3 -3 -3 1 -13 10 -16 14 -16 16 7 35 22
18 41 25 41 14z m120 -20 c0 -2 -7 -1 -17 2 -11 4 -14 3 -9 -5 5 -8 1 -10 -10
-5 -11 4 -13 8 -6 11 7 2 9 8 6 14 -4 6 2 5 15 -1 11 -7 21 -14 21 -16z m59
-2 c7 -4 -29 -53 -39 -53 -6 0 0 10 12 22 19 19 20 22 5 33 -10 7 -17 16 -17
20 0 4 8 1 18 -6 9 -7 19 -14 21 -16z m61 -5 c0 -5 -4 -8 -10 -8 -5 0 -10 4
-10 10 0 5 -6 8 -12 6 -7 -1 -10 -1 -5 1 4 3 4 9 1 15 -3 5 3 4 15 -4 12 -7
21 -16 21 -20z m136 23 c-4 -5 -3 -11 1 -14 5 -2 3 -2 -4 -1 -6 2 -14 -2 -16
-9 -2 -7 -8 -9 -12 -4 -5 4 0 14 11 22 22 17 27 18 20 6z m300 -3 c5 -8 2 -9
-9 -5 -10 3 -17 2 -17 -2 0 -5 6 -12 13 -14 9 -4 9 -6 0 -6 -15 -1 -26 16 -18
29 8 13 22 13 31 -2z m-976 -8 c0 -5 -4 -10 -10 -10 -5 0 -10 5 -10 10 0 6 5
10 10 10 6 0 10 -4 10 -10z m132 -4 c5 3 4 -3 -4 -15 -14 -22 -28 -28 -28 -11
0 6 4 10 10 10 5 0 8 6 6 13 -1 6 -1 9 1 4 3 -4 9 -4 15 -1z m214 -23 c-3 -4
-6 -1 -6 6 0 7 -4 9 -10 6 -6 -4 -7 1 -3 11 6 15 7 15 15 -1 6 -9 7 -19 4 -22z
m666 23 c5 3 4 -3 -4 -15 -14 -22 -28 -28 -28 -11 0 6 4 10 10 10 5 0 8 6 6
13 -1 6 -1 9 1 4 3 -4 9 -4 15 -1z m-1052 -10 c-7 -7 -13 -7 -20 0 -6 6 -3 10
10 10 13 0 16 -4 10 -10z m644 6 c2 -4 -4 -8 -14 -8 -10 0 -16 4 -14 8 3 4 9
8 14 8 5 0 11 -4 14 -8z m-769 -12 c3 -5 1 -10 -4 -10 -6 0 -11 5 -11 10 0 6
2 10 4 10 3 0 8 -4 11 -10z m241 3 c-16 -4 -15 -7 10 -24 16 -10 25 -19 19
-19 -5 1 -19 7 -29 15 -17 13 -20 12 -31 -8 -9 -18 -8 -24 4 -34 14 -10 14
-14 2 -25 -12 -11 -13 -10 -7 6 5 14 2 17 -9 12 -9 -3 -14 -2 -11 3 6 9 -22
26 -36 23 -5 -1 -8 3 -8 9 0 6 6 9 14 6 7 -3 20 0 27 6 11 10 11 9 0 -5 -9
-13 -10 -18 -2 -18 6 0 14 8 18 18 10 28 24 42 42 41 12 -1 12 -2 -3 -6z m81
-13 c1 -13 -4 -20 -15 -20 -15 0 -15 2 -2 10 8 5 11 10 7 10 -5 0 -5 5 -2 10
9 14 11 13 12 -10z m45 13 c-6 -2 -10 -9 -7 -14 4 -5 -1 -6 -10 -2 -13 5 -14
7 -3 14 7 5 18 8 23 8 6 0 4 -3 -3 -6z m240 0 c-6 -2 -10 -9 -7 -14 4 -5 -1
-6 -10 -2 -13 5 -14 7 -3 14 7 5 18 8 23 8 6 0 4 -3 -3 -6z m103 -27 c-16 -25
-16 -26 0 -26 11 0 15 -5 12 -15 -10 -25 10 -25 21 0 12 26 27 32 36 16 3 -5
-1 -14 -9 -21 -8 -7 -15 -9 -15 -4 0 4 -6 0 -13 -10 -12 -16 -14 -16 -26 -2
-8 9 -10 16 -5 16 5 0 -2 7 -14 16 -12 8 -22 23 -21 32 0 15 1 15 8 -1 6 -17
8 -16 21 7 7 14 15 24 17 22 3 -2 -3 -16 -12 -30z m115 4 c5 8 9 6 14 -6 4
-10 4 -15 0 -12 -3 4 -16 -5 -29 -20 -19 -21 -21 -30 -12 -42 10 -13 10 -13
-5 -1 -12 9 -18 10 -18 2 0 -6 12 -16 26 -22 15 -5 24 -12 21 -16 -8 -7 -57
24 -57 36 0 4 9 16 20 26 19 17 19 19 4 37 -18 19 -60 26 -49 8 3 -5 1 -10 -5
-10 -7 0 -10 6 -8 13 8 21 39 20 64 -4 13 -12 24 -18 24 -12 0 6 -7 16 -15 23
-8 7 -15 17 -15 23 0 6 7 1 16 -12 12 -16 19 -19 24 -11z m439 14 c4 3 8 -1 8
-9 0 -11 -4 -12 -14 -4 -7 6 -13 17 -12 23 0 7 2 6 6 -2 2 -6 8 -10 12 -8z
m-1134 -4 c10 9 15 9 15 1 0 -6 -5 -11 -11 -11 -5 0 -7 -5 -4 -10 4 -6 -5 -5
-19 2 -14 6 -26 16 -26 21 0 5 7 4 15 -3 12 -10 18 -10 30 0z m266 -36 c-22
-17 -36 -1 -20 24 12 19 14 19 25 4 10 -13 9 -19 -5 -28z m94 30 c21 -14 24
-14 33 3 6 10 13 16 15 13 3 -3 -1 -14 -8 -24 -13 -18 -16 -18 -39 -2 -39 25
-44 19 -11 -12 17 -15 29 -26 26 -25 -2 2 -10 -5 -16 -14 -11 -14 -10 -20 4
-29 14 -11 14 -15 2 -26 -12 -11 -13 -10 -8 5 8 21 -11 23 -19 2 -4 -8 -11
-15 -17 -15 -6 0 -4 7 5 16 15 16 15 18 -5 36 -12 11 -16 17 -9 13 6 -3 12 -1
12 4 0 6 5 11 11 11 8 0 8 -5 -1 -15 -8 -10 -9 -15 -2 -15 6 0 16 9 22 20 6
12 7 20 1 20 -15 0 -42 31 -36 41 8 12 12 12 40 -7z m156 -20 c-11 -15 -21
-24 -21 -20 0 12 33 57 37 52 3 -3 -4 -17 -16 -32z m219 15 c0 -6 -4 -7 -10
-4 -5 3 -10 11 -10 16 0 6 5 7 10 4 6 -3 10 -11 10 -16z m31 2 c-11 -7 -11
-12 1 -30 8 -11 18 -18 22 -14 4 4 4 0 0 -10 -5 -14 -2 -16 12 -11 16 6 17 5
6 -7 -11 -12 -15 -11 -27 4 -8 12 -15 14 -20 8 -8 -14 -25 -14 -25 -1 0 6 5 9
11 8 6 -2 13 2 16 8 8 22 -32 9 -45 -13 -13 -24 -27 -29 -36 -14 -3 5 1 14 9
21 8 7 15 9 15 4 0 -5 5 -1 11 8 6 11 16 15 26 11 11 -4 14 -3 9 6 -8 13 13
46 23 36 3 -3 -1 -10 -8 -14z m109 9 c0 -5 -4 -10 -10 -10 -5 0 -10 5 -10 10
0 6 5 10 10 10 6 0 10 -4 10 -10z m49 -28 c-12 -19 -14 -19 -25 -4 -10 13 -9
19 5 28 22 17 36 1 20 -24z m195 -19 c-10 -7 -23 -13 -28 -13 -6 1 -1 6 12 13
24 14 20 29 -6 20 -10 -4 -13 -2 -8 5 4 7 2 12 -3 12 -6 0 -11 5 -11 11 0 6
14 0 31 -12 30 -21 31 -23 13 -36z m-1274 43 c0 -2 -7 -7 -16 -10 -8 -3 -12
-2 -9 4 6 10 25 14 25 6z m590 -6 c0 -5 -5 -10 -11 -10 -5 0 -7 5 -4 10 3 6 8
10 11 10 2 0 4 -4 4 -10z m371 -5 c5 4 6 -2 2 -11 -4 -11 -8 -13 -11 -6 -2 7
-8 10 -13 7 -5 -4 -6 2 -2 11 4 11 8 13 11 6 2 -7 8 -10 13 -7z m214 -7 c5 4
5 1 1 -5 -4 -7 -15 -17 -24 -22 -14 -8 -18 -5 -19 12 0 12 1 16 4 10 3 -7 9
-13 14 -13 6 0 5 9 -1 23 -10 20 -10 20 3 5 8 -10 18 -14 22 -10z m-1150 2
c-27 -12 -43 -12 -25 0 8 5 22 9 30 9 10 0 8 -3 -5 -9z m65 0 c-8 -5 -19 -10
-25 -10 -5 0 -3 5 5 10 8 5 20 10 25 10 6 0 3 -5 -5 -10z m914 -5 c3 -9 -1
-18 -9 -21 -8 -4 -12 -10 -9 -15 3 -5 -3 -6 -12 -2 -11 4 -13 8 -6 11 7 2 10
8 7 13 -4 5 2 6 12 2 16 -6 16 -5 4 10 -7 9 -9 17 -3 17 5 0 13 -7 16 -15z
m220 -1 c9 -24 2 -26 -12 -4 -7 11 -8 20 -3 20 5 0 12 -7 15 -16z m-1274 2 c0
-3 -4 -8 -10 -11 -5 -3 -10 -1 -10 4 0 6 5 11 10 11 6 0 10 -2 10 -4z m157
-20 c-9 -7 -17 -18 -17 -25 0 -6 -4 -11 -10 -11 -6 0 -5 10 2 25 6 13 15 22
19 19 5 -3 9 0 9 7 0 7 3 9 7 5 5 -4 0 -13 -10 -20z m943 -7 c0 -12 -49 -43
-57 -36 -3 4 6 11 21 16 14 6 26 16 26 22 0 8 -6 7 -17 -2 -16 -12 -17 -12 -6
2 7 9 9 20 5 25 -4 4 1 2 11 -5 9 -7 17 -17 17 -22z m285 13 c-3 -3 -11 0 -18
7 -9 10 -8 11 6 5 10 -3 15 -9 12 -12z m-1345 -13 c7 -11 9 -23 6 -27 -3 -3
-6 1 -6 8 0 7 -3 10 -7 7 -9 -9 -34 13 -27 24 9 15 23 10 34 -12z m60 10 c0
-5 5 -7 12 -3 7 4 8 3 4 -5 -6 -9 -11 -9 -22 0 -17 14 -18 19 -4 19 6 0 10 -5
10 -11z m120 -19 c0 -6 8 -10 17 -10 9 0 14 -3 10 -6 -9 -10 -48 7 -41 18 4 6
-2 8 -17 4 -13 -3 -18 -3 -11 0 6 3 9 10 6 16 -4 6 2 5 15 -1 11 -7 21 -16 21
-21z m108 6 c2 -10 -6 -29 -19 -42 -12 -13 -18 -24 -12 -24 6 0 16 7 23 15 7
8 17 15 23 15 6 0 1 -7 -12 -16 -16 -12 -19 -19 -11 -24 8 -5 6 -9 -6 -14 -10
-4 -15 -4 -12 0 4 4 -4 15 -17 26 -14 11 -25 25 -25 31 0 7 5 4 11 -6 10 -18
12 -18 30 -1 19 17 27 60 9 49 -5 -3 -10 -1 -10 5 0 18 25 5 28 -14z m58 7
c16 -21 18 -37 4 -28 -5 3 -10 1 -10 -4 0 -6 -5 -11 -11 -11 -8 0 -8 5 1 15
10 12 10 18 0 30 -7 8 -9 15 -5 15 4 0 14 -8 21 -17z m34 -8 c5 -14 15 -25 21
-25 8 0 7 5 -2 18 -11 14 -11 15 1 5 10 -10 17 -10 28 -1 10 9 16 8 23 -3 6
-9 3 -18 -8 -26 -9 -7 -13 -16 -10 -20 4 -4 13 -1 19 5 15 15 28 15 28 1 0 -5
-4 -8 -8 -5 -5 3 -18 -3 -29 -14 -20 -18 -20 -18 -20 7 0 13 6 27 13 30 8 3
11 9 8 15 -3 5 -15 1 -26 -9 -19 -17 -20 -17 -39 6 -18 22 -25 41 -14 41 3 0
10 -11 15 -25z m100 15 c0 -5 -4 -10 -10 -10 -5 0 -10 5 -10 10 0 6 5 10 10
10 6 0 10 -4 10 -10z m100 0 c-14 -9 -6 -15 15 -10 6 1 7 -2 3 -6 -4 -4 0 -12
9 -19 13 -9 13 -14 3 -20 -9 -5 -11 -4 -6 3 4 7 3 12 -3 12 -5 0 -17 7 -25 16
-17 16 -13 34 7 34 7 0 6 -4 -3 -10z m61 -9 c19 -15 21 -21 11 -33 -6 -8 -9
-18 -5 -21 3 -4 1 -7 -6 -7 -7 0 -11 6 -8 14 3 7 0 20 -6 27 -10 11 -9 11 6 0
12 -9 17 -10 17 -2 0 6 -11 16 -25 21 -14 5 -25 12 -25 15 0 11 19 4 41 -14z
m55 3 c-5 -12 -2 -15 11 -10 10 4 14 4 10 0 -4 -4 2 -14 13 -21 11 -8 18 -18
15 -23 -10 -16 20 -17 33 -1 11 14 12 13 2 -6 -5 -12 -15 -25 -22 -29 -6 -4
-8 -3 -5 2 3 6 -3 15 -14 22 -14 9 -19 9 -19 0 0 -6 -3 -8 -6 -5 -4 4 -1 13 6
22 14 17 0 21 -17 4 -6 -6 -9 -19 -6 -28 5 -13 3 -14 -8 -3 -11 10 -10 15 3
29 16 15 16 17 1 28 -9 7 -13 17 -9 23 11 18 19 14 12 -4z m419 -6 c-9 -6 -19
-7 -22 -4 -4 3 -1 6 6 6 7 0 9 4 6 10 -4 6 1 7 11 3 15 -6 15 -7 -1 -15z m100
-8 c-4 -6 -13 -9 -21 -6 -7 3 -16 1 -19 -4 -8 -12 -42 -13 -49 -1 -3 4 5 6 17
4 14 -3 30 3 42 16 19 22 44 14 30 -9z m-1180 10 c3 -5 1 -10 -4 -10 -6 0 -11
5 -11 10 0 6 2 10 4 10 3 0 8 -4 11 -10z m279 -20 c-6 -6 -10 -3 -10 10 0 13
4 16 10 10 7 -7 7 -13 0 -20z m998 13 c-6 -3 -10 -9 -7 -14 4 -5 -1 -6 -10 -3
-14 6 -14 8 2 19 10 8 20 11 23 8 3 -3 -1 -8 -8 -10z m-1372 -3 c0 -5 -4 -10
-10 -10 -5 0 -10 5 -10 10 0 6 5 10 10 10 6 0 10 -4 10 -10z m1416 -27 c-4
-11 0 -13 17 -8 19 5 19 4 5 -5 -18 -11 -58 5 -58 24 0 4 7 3 15 -4 18 -15 20
0 3 20 -11 12 -10 12 5 0 10 -7 15 -20 13 -27z m29 19 c-3 -3 -11 0 -18 7 -9
10 -8 11 6 5 10 -3 15 -9 12 -12z m-1414 -38 c-11 -17 -11 -17 -6 3 5 18 3 22
-9 17 -9 -3 -13 -11 -9 -17 4 -6 1 -7 -7 -2 -10 6 -10 11 3 20 9 7 15 14 13
17 -1 3 4 0 12 -7 11 -10 12 -17 3 -31z m1129 24 c0 -6 -6 -5 -15 2 -17 14
-20 1 -5 -18 5 -7 3 -6 -6 2 -9 8 -13 19 -10 25 8 12 36 3 36 -11z m-1198 -30
c-21 -21 -23 -21 -37 -5 -8 9 -10 12 -3 7 18 -15 28 -12 21 6 -7 19 17 38 32
23 6 -6 1 -17 -13 -31z m228 22 c-24 -15 -36 -11 -14 4 10 8 21 12 24 10 2 -3
-2 -9 -10 -14z m430 10 c0 -5 -4 -10 -10 -10 -5 0 -10 5 -10 10 0 6 5 10 10
10 6 0 10 -4 10 -10z m111 -13 c-10 -9 -11 -8 -5 6 3 10 9 15 12 12 3 -3 0
-11 -7 -18z m-521 -12 c-7 -8 -16 -15 -21 -15 -5 0 -1 8 9 18 20 22 31 19 12
-3z m961 -2 c-12 -20 -14 -14 -5 12 4 9 9 14 11 11 3 -2 0 -13 -6 -23z m-911
3 c-7 -7 -13 -7 -20 0 -6 6 -3 10 10 10 13 0 16 -4 10 -10z m180 4 c0 -5 8
-10 17 -10 9 0 14 -3 10 -6 -8 -8 -47 5 -47 17 0 5 5 9 10 9 6 0 10 -4 10 -10z
m210 0 c0 -5 -4 -10 -10 -10 -5 0 -10 5 -10 10 0 6 5 10 10 10 6 0 10 -4 10
-10z m300 0 c-8 -5 -19 -10 -25 -10 -5 0 -3 5 5 10 8 5 20 10 25 10 6 0 3 -5
-5 -10z m45 0 c-8 -13 28 -13 41 0 6 6 15 6 24 -1 13 -9 13 -10 0 -8 -8 1 -23
-1 -32 -5 -10 -5 -25 -6 -33 -2 -17 6 -20 26 -4 26 5 0 7 -4 4 -10z m115 -4
c0 -8 -4 -18 -10 -21 -6 -4 -7 1 -3 11 5 13 3 15 -7 9 -9 -5 -11 -4 -6 3 10
17 26 15 26 -2z m370 -19 c0 -5 -4 -5 -10 -2 -5 3 -10 14 -10 23 0 15 2 15 10
2 5 -8 10 -19 10 -23z m-1484 -16 c-8 -13 -36 -15 -36 -3 0 4 5 13 12 20 14
14 34 0 24 -17z m237 -2 c-17 -17 -37 -1 -22 17 8 10 15 12 23 4 7 -7 7 -13
-1 -21z m62 1 c-3 -4 2 -10 10 -14 9 -3 12 -12 8 -22 -4 -11 -2 -15 4 -11 5 4
19 0 29 -8 10 -8 14 -15 7 -15 -6 0 -15 5 -18 10 -4 7 -11 7 -18 2 -19 -15
-43 -10 -44 10 -1 10 2 18 8 18 5 0 8 -5 7 -11 -2 -6 2 -13 8 -16 22 -8 9 32
-13 45 -23 13 -28 23 -16 35 8 9 34 -13 28 -23z m93 9 c8 -12 9 -18 4 -15 -6
3 -12 3 -15 -1 -2 -5 -2 -2 -1 5 2 6 -1 12 -6 12 -6 0 -10 5 -10 10 0 17 14
11 28 -11z m235 -10 c-8 -8 -13 -7 -18 2 -6 8 -4 10 5 4 10 -6 12 -4 6 11 -6
15 -5 17 5 7 9 -10 10 -16 2 -24z m57 20 c0 -5 5 -7 12 -3 7 4 8 3 4 -5 -6 -9
-11 -9 -22 0 -17 14 -18 19 -4 19 6 0 10 -5 10 -11z m54 -5 c3 -8 2 -12 -4 -9
-6 3 -10 1 -10 -6 0 -7 -2 -10 -5 -7 -5 5 4 38 10 38 2 0 6 -7 9 -16z m117
-11 c-12 -20 -14 -14 -5 12 4 9 9 14 11 11 3 -2 0 -13 -6 -23z m124 16 c11
-16 1 -19 -13 -3 -7 8 -8 14 -3 14 5 0 13 -5 16 -11z m204 -19 c6 0 8 8 4 18
-5 14 -3 15 8 5 21 -20 -5 -42 -31 -25 -10 6 -25 10 -32 8 -7 -1 -10 -1 -5 1
4 3 4 10 0 16 -4 7 5 4 20 -5 14 -10 31 -18 36 -18z m233 16 c7 4 8 2 4 -5 -9
-13 -26 -5 -25 12 0 9 2 8 6 -1 2 -6 10 -9 15 -6z m48 -21 c0 -5 -5 -3 -10 5
-8 13 -10 13 -10 -2 0 -21 -16 -32 -26 -17 -4 7 -3 9 3 6 6 -4 14 5 18 20 5
21 8 24 16 12 5 -7 9 -18 9 -24z m-1040 15 c0 -5 -2 -10 -4 -10 -3 0 -8 5 -11
10 -3 6 -1 10 4 10 6 0 11 -4 11 -10z m105 -11 c-5 -15 -4 -19 4 -15 6 4 11 5
11 2 0 -16 -21 -13 -30 5 -8 15 -9 19 -1 15 6 -4 11 -2 11 3 0 6 3 11 6 11 3
0 2 -10 -1 -21z m427 7 c5 3 4 -3 -4 -15 -14 -22 -28 -28 -28 -11 0 6 4 10 10
10 5 0 8 6 6 13 -1 6 -1 9 1 4 3 -4 9 -4 15 -1z m108 10 c0 -3 -4 -8 -10 -11
-5 -3 -10 -1 -10 4 0 6 5 11 10 11 6 0 10 -2 10 -4z m26 -33 c-3 -4 -6 -1 -6
6 0 7 -4 9 -10 6 -6 -4 -7 1 -3 11 6 15 7 15 15 -1 6 -9 7 -19 4 -22z m-1152
12 c11 -8 16 -15 10 -15 -5 0 -18 7 -28 15 -11 8 -16 15 -10 15 5 0 18 -7 28
-15z m514 -6 c-12 -10 -25 -15 -28 -12 -3 3 1 8 8 10 6 3 10 8 8 12 -3 4 4 7
15 7 19 0 18 -1 -3 -17z m352 17 c0 -3 -4 -8 -10 -11 -5 -3 -10 -1 -10 4 0 6
5 11 10 11 6 0 10 -2 10 -4z m100 -7 c12 -8 10 -9 -7 -4 -19 5 -22 3 -17 -12
5 -14 4 -15 -4 -3 -19 25 0 38 28 19z m120 -3 c-7 -7 -13 -7 -20 0 -6 6 -3 10
10 10 13 0 16 -4 10 -10z m-1094 -28 c4 -6 3 -8 -3 -5 -13 8 -45 -26 -40 -44
2 -8 2 -11 0 -6 -3 4 -10 4 -15 1 -15 -9 -1 15 25 44 11 12 16 22 10 22 -6 0
-16 -7 -23 -15 -7 -8 -18 -15 -24 -14 -7 0 -6 2 2 6 6 2 10 9 6 14 -3 5 0 8 8
7 7 -2 12 3 10 10 -2 10 2 10 17 2 11 -5 23 -15 27 -22z m654 22 c0 -5 -7 -7
-15 -4 -8 4 -15 8 -15 10 0 2 7 4 15 4 8 0 15 -4 15 -10z m938 6 c-2 -1 -12
-8 -22 -16 -11 -8 -17 -10 -13 -3 4 6 1 13 -5 16 -7 2 0 4 15 4 15 0 27 0 25
-1z m-1258 -16 c0 -5 -4 -10 -10 -10 -5 0 -10 5 -10 10 0 6 5 10 10 10 6 0 10
-4 10 -10z m95 0 c-3 -5 -11 -10 -16 -10 -6 0 -7 5 -4 10 3 6 11 10 16 10 6 0
7 -4 4 -10z m117 -12 c-7 -7 -12 -8 -12 -2 0 14 12 26 19 19 2 -3 -1 -11 -7
-17z m553 12 c10 9 15 9 15 1 0 -6 -5 -11 -11 -11 -5 0 -7 -5 -4 -10 4 -6 -5
-5 -19 2 -14 6 -26 16 -26 21 0 5 7 4 15 -3 12 -10 18 -10 30 0z m95 6 c0 -2
-7 -9 -15 -16 -13 -11 -14 -10 -9 4 5 14 24 23 24 12z m34 -4 c2 -4 -3 -18
-13 -30 -16 -22 -17 -22 -18 -3 -1 11 1 20 5 20 20 -3 25 2 12 11 -9 6 -10 10
-3 10 6 0 14 -4 17 -8z m-1191 -23 c-8 -8 -13 -7 -18 2 -5 8 -4 10 3 5 7 -4
12 -2 12 5 0 7 3 9 7 6 4 -4 2 -12 -4 -18z m1117 0 c0 -5 8 -9 17 -9 9 0 14
-3 10 -6 -9 -9 -45 5 -51 21 -3 9 0 12 10 8 7 -3 14 -9 14 -14z m386 -6 c-4
-4 -12 -1 -19 7 -9 10 -9 11 1 6 7 -4 12 -2 13 6 0 11 2 11 6 0 3 -7 2 -16 -1
-19z m69 17 c3 -5 1 -10 -4 -10 -6 0 -11 5 -11 10 0 6 2 10 4 10 3 0 8 -4 11
-10z m-1155 -10 c0 -5 -4 -10 -10 -10 -5 0 -10 5 -10 10 0 6 5 10 10 10 6 0
10 -4 10 -10z m590 0 c0 -5 -2 -10 -4 -10 -3 0 -8 5 -11 10 -3 6 -1 10 4 10 6
0 11 -4 11 -10z m532 -2 c-17 -17 -15 -33 3 -18 10 9 15 9 15 1 0 -6 -5 -11
-11 -11 -5 0 -7 -6 -3 -12 4 -7 -1 -5 -11 4 -15 14 -16 20 -5 32 7 9 15 16 18
16 3 0 1 -5 -6 -12z m-1082 -8 c0 -5 -8 -10 -17 -10 -15 0 -16 2 -3 10 19 12
20 12 20 0z m640 -25 c0 -5 -5 -3 -10 5 -5 8 -10 20 -10 25 0 6 5 3 10 -5 5
-8 10 -19 10 -25z m500 31 c0 -2 -8 -10 -17 -17 -16 -13 -17 -12 -4 4 13 16
21 21 21 13z m-1626 -18 c-3 -5 -10 -6 -15 -3 -5 4 -9 1 -9 -6 0 -7 -3 -10 -6
-6 -9 9 3 24 20 24 8 0 13 -4 10 -9z m1100 -17 c-2 -3 -12 3 -22 13 -16 17
-16 18 5 5 12 -7 20 -15 17 -18z m533 -3 c0 -13 -1 -17 -4 -10 -3 6 -10 9 -16
5 -7 -4 -6 1 2 10 17 21 17 21 18 -5z m-1207 -14 c0 -2 -9 0 -19 6 -13 7 -22
7 -26 0 -3 -5 -11 -10 -18 -10 -6 0 -2 6 8 14 18 13 55 6 55 -10z m755 15 c3
-3 -1 -6 -7 -6 -7 0 -20 -3 -28 -5 -8 -3 -12 -3 -7 -1 4 3 5 8 3 12 -6 8 31 8
39 0z m430 -28 c-6 -5 -25 10 -25 20 0 5 6 4 14 -3 8 -7 12 -15 11 -17z m55 9
c0 -5 -2 -10 -4 -10 -3 0 -8 5 -11 10 -3 6 -1 10 4 10 6 0 11 -4 11 -10z
m-1726 -9 c4 -5 -3 -7 -14 -4 -11 3 -28 -1 -38 -8 -15 -13 -16 -12 -3 4 14 18
46 23 55 8z m1639 -14 c-4 -6 0 -8 11 -4 10 4 15 3 11 -3 -10 -16 -23 -12 -35
10 -9 16 -8 18 5 14 8 -3 12 -11 8 -17z m-1598 -5 c-3 -3 -11 0 -18 7 -9 10
-8 11 6 5 10 -3 15 -9 12 -12z m1675 8 c8 -5 11 -10 5 -10 -5 0 -17 5 -25 10
-8 5 -10 10 -5 10 6 0 17 -5 25 -10z m-1744 -15 c-8 -8 -18 -15 -22 -15 -3 0
-1 7 6 15 7 8 17 15 22 15 5 0 3 -7 -6 -15z m50 -10 c4 -8 11 -12 16 -9 6 4 5
-3 -1 -15 -14 -25 -23 -28 -14 -4 4 11 3 14 -5 9 -8 -5 -10 -2 -6 9 5 11 2 14
-12 8 -12 -4 -15 -3 -10 5 10 16 26 15 32 -3z m1690 -10 c9 -14 14 -28 11 -32
-4 -3 -11 6 -16 21 -6 14 -16 26 -22 26 -8 0 -7 -6 2 -17 12 -16 12 -17 -2 -6
-9 7 -20 9 -25 5 -4 -4 -2 1 5 11 18 23 28 22 47 -8z m-1778 3 c-3 -7 1 -19 9
-26 16 -16 17 -32 2 -32 -5 0 -7 5 -4 10 3 6 2 10 -2 10 -5 0 -14 9 -21 21 -8
12 -9 18 -3 14 6 -3 11 -1 11 4 0 6 3 11 6 11 3 0 4 -6 2 -12z m1704 -2 c6 4
5 -2 -1 -15 -14 -25 -23 -28 -14 -4 4 11 3 14 -5 9 -8 -5 -10 -1 -5 10 4 11 8
13 11 6 2 -7 8 -9 14 -6z m128 -24 c0 -1 -9 2 -20 8 -11 6 -20 15 -20 20 0 6
9 2 20 -7 11 -10 20 -19 20 -21z m-1777 11 c-7 -2 -19 -2 -25 0 -7 3 -2 5 12
5 14 0 19 -2 13 -5z m1621 -42 c-6 -6 -24 19 -24 34 1 6 7 1 15 -9 8 -11 12
-22 9 -25z m74 21 c2 -7 9 -9 14 -6 6 4 8 2 4 -4 -3 -6 -2 -13 4 -17 5 -3 10
-1 10 6 0 7 3 10 6 6 3 -3 3 -10 0 -16 -9 -15 -34 -3 -41 20 -4 11 -10 17 -15
14 -5 -3 -6 -13 -3 -22 6 -15 5 -16 -9 -3 -9 8 -12 17 -7 18 5 2 7 7 4 12 -3
5 3 7 12 6 9 -2 19 -8 21 -14z m-1674 -7 c3 -8 1 -15 -4 -15 -6 0 -10 7 -10
15 0 8 2 15 4 15 2 0 6 -7 10 -15z m-106 -9 c-7 -8 -15 -12 -17 -11 -5 6 10
25 20 25 5 0 4 -6 -3 -14z m165 7 c-7 -2 -19 -2 -25 0 -7 3 -2 5 12 5 14 0 19
-2 13 -5z m1517 -23 c18 -42 9 -45 -11 -4 -9 19 -13 34 -9 34 4 0 13 -14 20
-30z m194 13 c3 -7 0 -15 -7 -19 -7 -4 -8 -3 -4 1 4 5 -3 15 -15 21 l-23 13
22 -2 c12 -1 25 -7 27 -14z m-1864 -18 c-10 -12 -10 -18 0 -30 14 -17 5 -20
-13 -5 -7 6 -21 18 -32 26 -19 15 -19 15 3 4 18 -9 23 -8 28 5 3 8 11 15 16
15 6 0 5 -6 -2 -15z m74 -1 c11 -28 5 -40 -6 -14 -9 21 -12 22 -15 7 -6 -23
14 -47 33 -40 21 8 17 -14 -6 -30 -11 -8 -17 -17 -13 -21 4 -4 -1 -4 -11 0
-12 5 -14 9 -6 14 8 5 5 12 -11 24 -13 9 -18 16 -12 16 6 0 16 -7 23 -15 7 -8
17 -15 23 -15 6 0 1 10 -11 23 -22 23 -28 48 -15 60 11 11 20 8 27 -9z m40 -9
c-20 -30 -20 -30 -20 -6 0 11 4 17 8 15 4 -3 8 0 8 5 0 6 5 11 10 11 6 0 3
-11 -6 -25z m56 20 c0 -2 -10 -10 -22 -16 -21 -11 -22 -11 -9 4 13 16 31 23
31 12z m1480 -15 c0 -13 -49 -44 -57 -37 -3 4 6 11 21 16 29 11 37 34 9 25
-15 -5 -15 -4 -3 4 15 11 30 7 30 -8z m64 -5 c-20 -30 -20 -30 -20 -6 0 11 4
17 8 15 4 -3 8 0 8 5 0 6 5 11 10 11 6 0 3 -11 -6 -25z m121 -15 c-6 -18 -9
-20 -16 -9 -13 20 -11 37 2 19 9 -12 10 -10 5 9 -3 17 -2 21 6 13 5 -5 7 -20
3 -32z m-1809 10 c0 -12 -4 -16 -9 -11 -5 5 -6 14 -3 20 10 15 12 14 12 -9z
m198 -32 c4 3 4 -2 0 -12 -4 -10 -10 -13 -13 -8 -6 10 -44 -9 -38 -19 1 -3 -5
3 -14 13 -9 9 -20 14 -23 10 -4 -3 -4 1 0 11 5 14 2 16 -12 11 -16 -6 -17 -5
-6 7 11 12 15 12 26 -2 9 -14 15 -15 29 -4 20 14 12 26 -11 18 -15 -4 -15 -3
-2 6 12 9 20 6 36 -13 12 -14 25 -22 28 -18z m1546 32 c0 -5 -4 -10 -10 -10
-5 0 -10 5 -10 10 0 6 5 10 10 10 6 0 10 -4 10 -10z m113 3 c-10 -3 -9 -11 3
-34 9 -19 19 -27 27 -22 7 4 7 0 -2 -10 -7 -9 -19 -17 -25 -17 -8 0 -8 2 0 8
8 5 6 15 -6 34 -9 16 -21 25 -26 20 -4 -4 -2 1 5 11 7 9 19 17 25 16 7 0 7 -2
-1 -6z m-1913 -28 c19 -14 29 -25 23 -25 -7 0 -15 5 -18 10 -5 8 -12 7 -23 -2
-15 -12 -16 -11 -3 5 9 11 10 17 2 17 -6 0 -16 -11 -21 -24 -5 -13 -14 -27
-20 -31 -6 -3 -2 9 9 28 11 19 17 38 14 41 -15 14 6 4 37 -19z m274 9 c3 -8 2
-12 -4 -9 -6 3 -10 10 -10 16 0 14 7 11 14 -7z m1565 -18 c0 -7 -2 -7 -5 1 -3
7 -12 9 -20 6 -7 -3 -11 -9 -8 -14 3 -5 0 -9 -5 -9 -16 0 -13 20 4 26 8 4 12
11 8 18 -4 6 1 5 10 -3 9 -7 17 -19 16 -25z m-124 0 c10 4 15 0 15 -12 0 -16
-2 -17 -10 -4 -5 8 -10 11 -10 6 0 -5 -7 -3 -15 4 -8 7 -15 18 -15 24 0 6 5 3
11 -6 5 -10 16 -15 24 -12z m61 3 c0 -8 4 -22 9 -31 4 -10 5 -25 1 -33 -6 -17
-26 -20 -26 -4 0 5 5 7 10 4 6 -3 10 3 10 14 0 11 -4 22 -10 26 -5 3 -7 12 -3
20 4 11 1 13 -13 8 -12 -4 -15 -3 -10 6 10 15 31 9 32 -10z m-110 -15 c-3 -9
-6 -18 -6 -20 0 -3 -5 -2 -11 2 -8 4 -9 -1 -5 -17 3 -13 3 -18 0 -11 -3 6 -10
9 -16 6 -6 -4 -5 2 1 15 7 11 16 21 22 21 6 0 7 5 4 10 -3 6 -1 10 5 10 7 0 9
-7 6 -16z m214 6 c-8 -5 -19 -10 -25 -10 -5 0 -3 5 5 10 8 5 20 10 25 10 6 0
3 -5 -5 -10z m-1608 -22 c-7 -7 -12 -8 -12 -2 0 14 12 26 19 19 2 -3 -1 -11
-7 -17z m42 6 c3 -8 2 -12 -4 -9 -6 3 -10 10 -10 16 0 14 7 11 14 -7z m-294
-11 c0 -3 -6 -3 -14 0 -8 3 -18 -5 -25 -19 -11 -25 -26 -31 -35 -15 -3 5 1 14
9 21 8 7 15 9 15 4 0 -5 5 -1 11 8 8 15 39 15 39 1z m40 7 c0 -5 -4 -10 -10
-10 -5 0 -8 -6 -6 -12 1 -7 1 -10 -1 -5 -3 4 -9 4 -15 1 -5 -3 -4 3 4 15 14
22 28 28 28 11z m100 -10 c0 -5 -10 -15 -22 -22 -23 -13 -36 -53 -14 -45 6 3
10 10 9 16 -2 6 2 11 7 11 13 0 13 -17 -1 -25 -6 -5 -4 -12 8 -20 15 -12 16
-16 4 -27 -12 -11 -13 -10 -7 6 5 14 3 17 -11 12 -10 -4 -14 -4 -10 0 4 4 -3
14 -15 22 -16 12 -23 12 -26 4 -2 -7 -8 -12 -14 -12 -6 0 -5 6 2 15 7 9 20 13
28 10 10 -3 12 0 9 10 -4 8 1 19 11 24 9 6 13 11 8 11 -5 0 -3 7 4 15 12 15
30 12 30 -5z m1542 2 c-7 -2 -10 -8 -7 -13 4 -5 -2 -6 -11 -2 -11 4 -13 8 -6
11 7 2 10 8 7 13 -4 5 2 6 11 2 11 -4 13 -8 6 -11z m45 -17 c-12 -8 -14 -15
-8 -20 14 -8 14 -25 1 -25 -5 0 -9 5 -7 11 1 6 -3 13 -9 16 -22 8 -9 -32 14
-45 23 -13 28 -27 13 -36 -5 -3 -14 1 -21 9 -7 8 -9 15 -4 15 5 0 1 5 -8 11
-10 5 -15 16 -11 24 3 10 1 13 -9 10 -8 -3 -21 1 -28 10 -7 9 -8 15 -2 15 6 0
12 -5 14 -12 3 -8 10 -8 26 4 12 8 19 18 15 22 -4 4 0 4 10 0 14 -5 16 -2 11
12 -6 16 -5 17 7 6 12 -11 11 -15 -4 -27z m93 24 c0 -5 5 -7 10 -4 6 4 5 -5
-2 -19 -6 -14 -16 -26 -21 -26 -5 0 -4 7 3 15 10 12 10 18 0 30 -9 10 -9 15
-1 15 6 0 11 -5 11 -11z m60 1 c0 -5 -4 -10 -10 -10 -5 0 -8 -6 -6 -12 1 -7 1
-10 -1 -5 -3 4 -9 4 -15 1 -5 -3 -4 3 4 15 14 22 28 28 28 11z m-288 -7 c-6
-2 -10 -9 -7 -14 4 -5 -1 -6 -10 -2 -13 5 -14 7 -3 14 7 5 18 8 23 8 6 0 4 -3
-3 -6z m202 -23 c-6 -6 -10 -3 -10 10 0 13 4 16 10 10 7 -7 7 -13 0 -20z
m-1643 -7 c-12 -20 -14 -14 -5 12 4 9 9 14 11 11 3 -2 0 -13 -6 -23z m69 17
c0 -5 -4 -10 -10 -10 -5 0 -10 5 -10 10 0 6 5 10 10 10 6 0 10 -4 10 -10z m64
2 c2 -4 -4 -8 -14 -8 -10 0 -16 4 -14 8 3 4 9 8 14 8 5 0 11 -4 14 -8z m1284
-18 c2 -1 -4 -4 -13 -8 -9 -3 -13 -2 -10 4 3 6 1 10 -4 10 -6 0 -11 5 -11 11
0 8 6 7 18 -2 9 -7 18 -14 20 -15z m-1563 -13 c-6 -5 -25 10 -25 20 0 5 6 4
14 -3 8 -7 12 -15 11 -17z m233 12 c-2 -10 -10 -24 -18 -31 -13 -11 -12 -12 7
-7 12 3 24 1 28 -5 3 -6 12 -7 18 -4 7 4 9 4 5 0 -3 -4 -9 -6 -12 -4 -3 2 -11
-6 -19 -16 -11 -15 -16 -16 -22 -6 -5 8 -4 11 2 7 6 -4 14 0 17 9 5 12 2 15
-10 10 -27 -10 -34 3 -16 34 20 34 24 37 20 13z m-173 -3 c3 -5 2 -10 -4 -10
-5 0 -13 5 -16 10 -3 6 -2 10 4 10 5 0 13 -4 16 -10z m135 -10 c0 -5 -5 -12
-10 -15 -8 -5 -7 -12 2 -23 12 -15 11 -16 -4 -3 -12 9 -18 10 -18 2 0 -6 12
-16 26 -22 15 -5 24 -12 21 -16 -8 -7 -57 24 -57 36 0 5 7 14 15 21 8 7 12 17
9 22 -4 5 -15 -3 -25 -19 -10 -15 -19 -24 -19 -20 0 19 33 55 46 50 8 -3 14
-9 14 -13z m1715 10 c19 -8 19 -9 -2 -9 -12 -1 -25 4 -28 9 -7 12 2 12 30 0z
m-1626 -9 c9 -6 10 -11 2 -15 -6 -4 -11 -3 -11 3 0 5 -8 12 -17 14 -13 3 -14
5 -3 6 8 0 21 -3 29 -8z m1326 -1 c4 -6 11 -8 16 -5 5 4 9 1 9 -4 0 -14 -17
-14 -25 0 -4 6 -13 8 -21 5 -8 -3 -14 -1 -14 4 0 13 27 13 35 0z m-1635 -9 c0
-12 -39 -25 -47 -17 -4 3 1 6 10 6 10 0 17 5 17 10 0 6 5 10 10 10 6 0 10 -4
10 -9z m60 -2 c0 -5 -4 -8 -8 -5 -5 3 -19 -4 -30 -15 -12 -11 -22 -16 -22 -11
0 10 39 41 53 41 4 1 7 -4 7 -10z m1738 -3 c-7 -8 -15 -12 -17 -11 -5 6 10 25
20 25 5 0 4 -6 -3 -14z m112 4 c8 -5 11 -10 5 -10 -5 0 -17 5 -25 10 -8 5 -10
10 -5 10 6 0 17 -5 25 -10z m55 0 c-3 -5 -12 -10 -18 -10 -7 0 -6 4 3 10 19
12 23 12 15 0z m-105 -4 c0 -3 -4 -8 -10 -11 -5 -3 -10 -1 -10 4 0 6 5 11 10
11 6 0 10 -2 10 -4z m-240 -16 c-8 -5 -18 -6 -24 -3 -6 4 -6 -1 -2 -13 5 -14
4 -16 -5 -7 -15 15 -6 28 23 30 17 2 19 0 8 -7z m65 0 c-3 -5 -11 -10 -16 -10
-6 0 -7 5 -4 10 3 6 11 10 16 10 6 0 7 -4 4 -10z m95 -25 c0 -5 -5 -3 -10 5
-5 8 -10 20 -10 25 0 6 5 3 10 -5 5 -8 10 -19 10 -25z m60 3 c0 -5 -4 -8 -10
-8 -5 0 -10 4 -10 10 0 5 -6 8 -12 6 -7 -1 -10 -1 -5 1 4 3 4 9 1 15 -3 5 3 4
15 -4 12 -7 21 -16 21 -20z m62 10 c13 -23 53 -36 45 -14 -3 6 -10 10 -16 9
-6 -2 -11 2 -11 7 0 13 17 13 26 -1 4 -8 9 -7 15 2 5 9 9 10 9 3 0 -7 -9 -22
-21 -35 -11 -13 -17 -18 -13 -10 5 11 3 13 -9 8 -10 -4 -20 0 -26 11 -6 9 -11
13 -11 8 0 -5 -7 -3 -15 4 -8 7 -12 16 -9 21 9 15 23 10 36 -13z m-1962 2 c0
-5 -7 -7 -15 -4 -8 4 -15 8 -15 10 0 2 7 4 15 4 8 0 15 -4 15 -10z m105 -11
c-5 -13 -3 -19 3 -15 17 10 22 -23 6 -39 -20 -19 -21 -19 -34 5 -7 14 -7 20 0
20 5 0 10 -7 10 -16 0 -14 2 -14 16 -3 10 8 12 15 5 17 -6 2 -16 13 -22 24 -8
15 -8 19 0 14 6 -4 11 -2 11 3 0 6 3 11 6 11 3 0 2 -10 -1 -21z m1601 6 c-3
-8 -1 -15 4 -15 6 0 10 -4 10 -10 0 -17 -14 -11 -28 11 -8 12 -9 18 -3 14 6
-3 11 -1 11 4 0 6 3 11 6 11 3 0 4 -7 0 -15z m-1662 -6 c-2 -4 2 -9 8 -12 7
-2 11 -7 8 -10 -3 -3 -16 2 -28 12 -21 16 -22 17 -3 17 11 0 18 -3 15 -7z
m112 2 c-4 -5 -1 -11 6 -13 7 -3 5 -7 -6 -11 -10 -4 -15 -3 -11 3 3 6 0 10 -7
10 -9 0 -9 3 2 10 19 12 23 12 16 1z m1601 3 c-3 -4 4 -15 16 -26 12 -11 17
-17 10 -14 -6 4 -14 -3 -18 -14 -4 -11 -11 -18 -16 -15 -15 10 -10 -32 6 -45
9 -7 13 -15 10 -18 -7 -8 -34 30 -35 48 0 9 9 24 21 33 11 10 18 21 15 24 -3
4 -14 -1 -24 -10 -10 -10 -22 -17 -26 -17 -5 0 2 9 15 20 17 14 20 19 9 20
-13 0 -13 1 0 10 17 11 26 13 17 4z m183 -39 c0 -17 27 -27 34 -12 3 8 5 8 5
1 1 -6 -7 -18 -16 -25 -9 -8 -14 -9 -10 -3 4 7 0 14 -8 18 -8 3 -15 12 -15 21
0 13 -4 14 -20 5 -12 -6 -17 -17 -14 -28 5 -16 5 -16 -9 0 -8 10 -17 15 -21
11 -4 -4 -4 1 0 11 4 10 10 13 13 8 4 -7 12 -6 23 2 10 7 14 17 10 22 -4 4 1
2 11 -5 9 -7 17 -19 17 -26z m-1920 -3 c0 -15 -2 -15 -10 -2 -13 20 -13 33 0
25 6 -3 10 -14 10 -23z m218 2 c0 -17 -3 -22 -8 -13 -5 6 -6 18 -3 26 8 19 11
16 11 -13z m1437 16 c-3 -5 -1 -10 6 -10 7 0 10 -3 6 -6 -9 -9 -28 6 -22 17 4
5 8 9 11 9 3 0 2 -4 -1 -10z m177 -12 c-7 -7 -12 -8 -12 -2 0 6 3 14 7 17 3 4
9 5 12 2 2 -3 -1 -11 -7 -17z m182 -2 c-3 -9 -10 -16 -15 -16 -5 0 -4 9 3 20
14 22 21 20 12 -4z m-2077 -8 c-3 -8 -6 -5 -6 6 -1 11 2 17 5 13 3 -3 4 -12 1
-19z m43 -13 c0 -5 -5 -3 -10 5 -5 8 -10 20 -10 25 0 6 5 3 10 -5 5 -8 10 -19
10 -25z m194 19 c3 -8 2 -13 -3 -10 -5 3 -11 -1 -15 -9 -6 -16 -36 -10 -36 7
0 6 8 4 17 -3 15 -12 16 -12 10 4 -4 11 -3 16 3 12 6 -3 10 -1 10 4 0 16 7 13
14 -5z m76 2 c0 -3 -4 -8 -10 -11 -5 -3 -10 -1 -10 4 0 6 5 11 10 11 6 0 10
-2 10 -4z m49 -13 c-7 -10 -14 -19 -15 -21 -1 -2 -4 4 -8 13 -3 9 -2 13 4 10
6 -3 10 -1 10 4 0 6 5 11 11 11 8 0 7 -6 -2 -17z m1508 -5 c-3 -8 -6 -5 -6 6
-1 11 2 17 5 13 3 -3 4 -12 1 -19z m-1747 -28 c0 -3 -9 -11 -20 -18 -11 -7
-20 -8 -20 -3 0 5 7 12 15 15 13 5 14 10 5 28 -11 22 -10 22 4 4 9 -11 16 -22
16 -26z m1965 13 c-11 -7 -15 -13 -11 -13 5 0 3 -7 -4 -15 -7 -8 -16 -12 -21
-9 -16 9 -10 24 16 36 13 6 22 15 18 21 -4 6 -1 7 7 2 10 -6 9 -11 -5 -22z
m-2065 8 c0 -5 -9 -19 -20 -32 l-20 -24 16 33 c15 32 24 40 24 23z m55 -1 c-3
-5 -1 -10 6 -10 7 0 10 -2 7 -5 -3 -3 -13 -2 -22 1 -14 5 -15 9 -4 15 17 11
20 11 13 -1z m171 -25 c-19 -30 -29 -31 -47 -7 -7 9 -9 14 -5 10 5 -4 16 -2
25 5 14 11 14 10 2 -5 -9 -12 -10 -18 -2 -18 6 0 16 12 22 26 5 15 12 24 16
21 3 -4 -2 -18 -11 -32z m69 25 c-3 -5 -1 -10 6 -10 7 0 10 -2 7 -5 -3 -3 -13
-2 -22 1 -14 5 -15 9 -4 15 17 11 20 11 13 -1z m1425 6 c0 -2 -7 -9 -15 -16
-13 -11 -14 -10 -9 4 5 14 24 23 24 12z m95 -18 c-9 -6 -19 -7 -22 -4 -4 3 -1
6 6 6 7 0 9 4 6 10 -4 6 1 7 11 3 15 -6 15 -7 -1 -15z m65 -6 c0 -15 -2 -15
-10 -2 -13 20 -13 33 0 25 6 -3 10 -14 10 -23z m131 1 c-12 -20 -14 -14 -5 12
4 9 9 14 11 11 3 -2 0 -13 -6 -23z m-275 -3 c0 -12 -4 -16 -9 -11 -5 5 -6 14
-3 20 10 15 12 14 12 -9z m-1722 -2 c-5 -8 -2 -9 10 -5 10 4 15 3 11 -3 -7
-12 -35 -13 -35 -2 0 9 10 22 17 22 2 0 1 -5 -3 -12z m146 2 c0 -5 -4 -10 -10
-10 -5 0 -10 5 -10 10 0 6 5 10 10 10 6 0 10 -4 10 -10z m94 -2 c-5 -8 -2 -9
10 -5 10 4 15 3 11 -3 -7 -12 -35 -13 -35 -2 0 9 10 22 17 22 2 0 1 -5 -3 -12z
m1606 -9 c0 -12 -27 -12 -35 1 -4 6 1 7 11 3 13 -5 15 -3 9 7 -5 9 -4 11 3 6
7 -4 12 -11 12 -17z m100 11 c0 -5 -4 -10 -10 -10 -5 0 -10 5 -10 10 0 6 5 10
10 10 6 0 10 -4 10 -10z m-1833 -7 c-4 -3 1 -12 11 -20 15 -13 15 -13 -5 -3
-14 6 -23 7 -23 1 0 -5 6 -11 13 -14 6 -2 0 -4 -15 -4 -16 0 -28 4 -28 10 0 6
3 7 7 4 3 -4 12 2 20 13 8 11 17 20 20 20 4 0 3 -3 0 -7z m193 -8 c-7 -9 -15
-13 -19 -10 -3 3 1 10 9 15 21 14 24 12 10 -5z m1480 -7 c0 -6 -6 -5 -15 2 -8
7 -15 14 -15 16 0 2 7 1 15 -2 8 -4 15 -11 15 -16z m150 -42 c-5 -4 -18 -2
-30 7 -17 12 -18 16 -6 20 10 4 13 13 10 24 -3 10 3 5 14 -12 11 -16 16 -34
12 -39z m60 28 c0 4 7 0 16 -9 27 -26 9 -27 -19 -1 -15 14 -29 21 -32 16 -2
-4 2 -13 10 -20 8 -7 15 -16 15 -21 0 -12 -49 -43 -57 -36 -3 4 6 11 21 16 14
6 26 16 26 22 0 8 -5 7 -17 -2 -15 -11 -16 -11 -6 1 10 10 10 17 1 28 -9 10
-8 16 3 23 9 6 18 3 27 -8 6 -9 12 -13 12 -9z m73 20 c-7 -3 -9 -13 -6 -22 4
-15 3 -15 -6 -2 -9 13 -11 12 -12 -5 0 -11 -3 -14 -6 -7 -6 15 14 42 31 41 7
0 7 -2 -1 -5z m-2036 -36 c-3 -7 -5 -2 -5 12 0 14 2 19 5 13 2 -7 2 -19 0 -25z
m128 22 c3 -5 1 -10 -4 -10 -6 0 -11 5 -11 10 0 6 2 10 4 10 3 0 8 -4 11 -10z
m119 -6 c4 -10 2 -13 -6 -8 -8 5 -9 2 -5 -9 9 -24 0 -21 -14 4 -8 15 -8 19 0
15 6 -4 11 -2 11 3 0 16 7 13 14 -5z m1538 2 c6 4 5 -2 -1 -15 -14 -25 -23
-28 -14 -4 4 11 3 14 -5 9 -8 -5 -10 -1 -5 10 4 11 8 13 11 6 2 -7 8 -9 14 -6z
m65 5 c-10 -4 -18 -10 -18 -14 2 -21 0 -27 -10 -27 -8 0 -8 5 1 15 13 15 2 21
-16 8 -5 -5 -1 0 9 10 11 9 27 17 36 16 13 0 13 -2 -2 -8z m-1897 -11 c0 -5
-4 -10 -10 -10 -5 0 -10 5 -10 10 0 6 5 10 10 10 6 0 10 -4 10 -10z m251 -7
c10 -11 10 -14 2 -9 -7 4 -13 2 -13 -3 0 -6 -5 -11 -11 -11 -8 0 -7 6 2 17 12
15 12 16 -4 10 -11 -4 -16 -3 -12 3 9 15 21 12 36 -7z m79 7 c0 -5 -5 -10 -11
-10 -5 0 -7 5 -4 10 3 6 8 10 11 10 2 0 4 -4 4 -10z m1420 6 c0 -3 -4 -8 -10
-11 -5 -3 -10 -1 -10 4 0 6 5 11 10 11 6 0 10 -2 10 -4z m-1564 -21 c-24 -18
-33 -19 -42 -3 -5 7 -2 9 8 6 8 -4 21 -2 29 3 22 14 26 10 5 -6z m-200 -20 c9
-14 14 -28 11 -32 -4 -3 -11 6 -16 20 -5 14 -16 27 -23 30 -9 4 -10 6 -1 6 7
1 20 -10 29 -24z m94 10 c11 -13 10 -14 -4 -9 -9 3 -16 10 -16 15 0 13 6 11
20 -6z m1680 7 c0 -5 -7 -17 -16 -28 -8 -10 -14 -14 -11 -9 2 6 7 18 10 28 7
17 17 23 17 9z m-1725 -12 c4 -6 -1 -7 -11 -3 -13 5 -15 3 -9 -7 5 -9 4 -11
-3 -6 -7 4 -12 11 -12 17 0 12 27 12 35 -1z m70 -19 c-3 -12 -11 -21 -16 -21
-5 0 -9 -6 -9 -14 0 -7 -8 -20 -17 -27 -9 -8 -14 -9 -10 -3 4 7 0 14 -8 18 -8
3 -15 10 -15 16 0 6 8 4 17 -6 16 -16 18 -15 26 10 5 14 13 26 18 26 5 0 9 8
9 17 0 9 3 14 6 10 3 -3 3 -15 -1 -26z m48 -21 c-3 -3 -8 1 -10 8 -3 6 -8 10
-12 8 -4 -3 -7 4 -7 15 0 19 1 18 17 -3 10 -12 15 -25 12 -28z m52 29 c-5 -14
-3 -19 3 -15 11 7 28 -32 18 -41 -3 -4 -6 1 -6 10 0 10 -4 17 -10 17 -5 0 -14
10 -21 21 -8 15 -8 19 0 15 6 -4 11 -2 11 3 0 6 3 11 6 11 3 0 2 -10 -1 -21z
m96 -6 c-12 -20 -14 -14 -5 12 4 9 9 14 11 11 3 -2 0 -13 -6 -23z m1505 -10
c-3 -4 -6 -1 -6 6 0 7 -4 9 -10 6 -6 -4 -7 1 -3 11 6 15 7 15 15 -1 6 -9 7
-19 4 -22z m105 22 c5 4 6 -1 2 -10 -5 -13 -7 -14 -14 -3 -5 7 -8 18 -8 23 0
6 3 4 6 -3 2 -6 9 -10 14 -7z m173 0 c-4 -9 -15 -20 -26 -26 -13 -7 -18 -7
-14 -1 3 6 0 13 -6 16 -7 3 -2 3 11 0 15 -4 21 -2 17 4 -5 9 0 13 21 21 1 1 0
-6 -3 -14z m-1824 -5 c-8 -5 -19 -10 -25 -10 -5 0 -3 5 5 10 8 5 20 10 25 10
6 0 3 -5 -5 -10z m1600 0 c8 -5 11 -10 5 -10 -5 0 -17 5 -25 10 -8 5 -10 10
-5 10 6 0 17 -5 25 -10z m-1798 -7 c-6 -2 -10 -9 -7 -14 4 -5 -1 -6 -10 -2
-13 5 -14 7 -3 14 7 5 18 8 23 8 6 0 4 -3 -3 -6z m1728 -43 c-13 -8 -54 10
-45 19 3 2 11 -2 20 -9 9 -8 15 -8 15 -2 0 6 -4 14 -10 17 -5 3 -10 10 -10 16
0 5 10 -1 21 -12 16 -16 18 -23 9 -29z m-1827 23 c-4 -10 -2 -14 4 -10 12 8
39 -20 30 -30 -4 -3 -9 2 -13 11 -3 9 -10 14 -14 11 -11 -7 -23 12 -15 25 10
16 15 12 8 -7z m320 2 c9 -21 -13 -30 -29 -11 -8 9 -9 11 -2 6 19 -15 32 -12
18 5 -7 9 -8 15 -2 15 5 0 12 -7 15 -15z m1557 11 c0 -2 -7 -9 -15 -16 -13
-11 -14 -10 -9 4 5 14 24 23 24 12z m45 -25 c0 -16 -3 -27 -7 -24 -13 7 -7 53
6 53 1 0 1 -13 1 -29z m140 19 c3 -5 -1 -20 -9 -32 -9 -12 -16 -17 -16 -11 0
7 5 15 10 18 6 3 10 11 10 16 0 6 -4 7 -10 4 -5 -3 -10 -1 -10 4 0 14 17 14
25 1z m65 -10 c-6 -11 -15 -18 -20 -15 -4 3 -11 0 -13 -5 -4 -7 -5 -6 -3 1 1
6 5 9 9 7 5 -2 13 5 18 15 14 24 22 21 9 -3z m-2073 -22 c-3 -7 -5 -2 -5 12 0
14 2 19 5 13 2 -7 2 -19 0 -25z m1839 12 c0 -12 -4 -16 -9 -11 -5 5 -6 14 -3
20 10 15 12 14 12 -9z m-1726 0 c0 -5 -4 -10 -10 -10 -5 0 -10 5 -10 10 0 6 5
10 10 10 6 0 10 -4 10 -10z m58 3 c-3 -15 14 -43 23 -37 5 3 6 -2 3 -11 -5
-11 -2 -14 12 -9 16 6 17 5 6 -7 -11 -12 -15 -12 -25 2 -10 12 -17 13 -34 4
-14 -7 -19 -16 -14 -24 6 -9 11 -10 15 -2 4 6 13 11 19 11 7 0 4 -5 -5 -11
-10 -6 -15 -16 -12 -27 4 -9 -3 -4 -14 12 -18 25 -21 26 -25 10 -5 -17 -6 -17
-4 1 1 11 15 26 30 33 15 7 27 18 27 24 0 6 -7 5 -17 -3 -15 -11 -16 -11 -6 0
6 7 9 20 6 27 -3 8 0 14 6 14 6 0 10 -3 9 -7z m1742 -3 c0 -5 -4 -10 -10 -10
-5 0 -10 5 -10 10 0 6 5 10 10 10 6 0 10 -4 10 -10z m60 0 c0 -5 -4 -10 -10
-10 -5 0 -10 5 -10 10 0 6 5 10 10 10 6 0 10 -4 10 -10z m-1845 -27 c-11 -7
-15 -13 -11 -13 5 0 3 -7 -4 -15 -7 -8 -16 -12 -21 -9 -16 9 -10 24 16 36 13
6 22 15 18 21 -4 6 -1 7 7 2 10 -6 9 -11 -5 -22z m-155 -17 c0 -1 -9 -2 -19
-2 -11 0 -17 4 -15 8 3 4 0 8 -5 8 -6 0 -11 5 -11 10 0 6 11 3 25 -6 14 -9 25
-17 25 -18z m101 7 c-12 -20 -14 -14 -5 12 4 9 9 14 11 11 3 -2 0 -13 -6 -23z
m169 6 c0 -5 -8 -9 -17 -8 -11 0 -13 3 -5 6 6 2 9 10 6 15 -4 7 -2 8 4 4 7 -4
12 -11 12 -17z m23 -10 c-8 -16 -17 -28 -20 -25 -6 5 23 56 31 56 3 0 -2 -14
-11 -31z m1472 21 c3 -5 2 -10 -4 -10 -5 0 -13 5 -16 10 -3 6 -2 10 4 10 5 0
13 -4 16 -10z m81 -2 c5 -8 2 -9 -10 -5 -14 6 -17 3 -12 -8 3 -9 2 -14 -3 -10
-5 3 -11 0 -13 -7 -3 -7 -7 -5 -11 6 -4 9 -3 15 2 12 5 -3 11 1 15 9 6 18 22
19 32 3z m145 -7 c23 -18 23 -20 6 -38 -9 -11 -14 -23 -10 -26 3 -4 15 5 25
20 10 16 18 24 18 18 0 -5 -8 -20 -18 -32 -12 -16 -21 -20 -31 -14 -11 7 -12
13 -3 23 9 11 9 18 -1 28 -10 12 -9 12 6 1 12 -9 17 -10 17 -2 0 6 -11 16 -25
21 -14 5 -25 12 -25 15 0 11 19 4 41 -14z m55 3 c-5 -12 -2 -15 11 -10 10 4
14 4 10 0 -4 -4 3 -14 14 -22 18 -12 23 -13 31 -1 8 12 9 11 5 -1 -2 -8 -12
-14 -21 -13 -11 0 -15 -4 -12 -13 3 -7 -3 -18 -12 -23 -9 -6 -13 -11 -8 -11 5
0 3 -7 -4 -15 -7 -8 -16 -12 -21 -9 -15 9 -10 23 14 36 22 13 35 53 13 45 -6
-3 -10 -10 -8 -16 1 -6 -2 -11 -8 -11 -13 0 -13 17 1 25 6 5 4 11 -7 19 -9 7
-14 18 -10 24 11 18 19 14 12 -4z m60 1 c-1 -8 -6 -18 -11 -22 -4 -4 -5 -2 -1
5 4 7 2 12 -6 12 -9 0 -9 3 2 10 19 12 19 13 16 -5z m-182 -11 c3 -8 2 -12 -4
-9 -6 3 -10 1 -10 -6 0 -7 -2 -10 -5 -7 -5 5 4 38 10 38 2 0 6 -7 9 -16z
m-1874 -4 c0 -5 -4 -10 -10 -10 -5 0 -10 5 -10 10 0 6 5 10 10 10 6 0 10 -4
10 -10z m1820 0 c-8 -5 -19 -10 -25 -10 -5 0 -3 5 5 10 8 5 20 10 25 10 6 0 3
-5 -5 -10z m-1830 -64 c-5 -4 -18 -2 -30 7 -17 12 -18 16 -6 20 10 4 13 13 10
24 -3 10 3 5 14 -12 11 -16 16 -34 12 -39z m1745 54 c3 -6 -1 -7 -9 -4 -18 7
-21 14 -7 14 6 0 13 -4 16 -10z m-1685 -26 c0 5 7 3 15 -4 8 -7 15 -18 15 -24
0 -6 -7 -2 -15 8 -8 11 -15 16 -15 10 0 -5 -7 -1 -14 9 -8 10 -17 14 -20 9 -3
-5 1 -15 9 -22 8 -7 15 -16 15 -21 0 -12 -49 -43 -57 -36 -3 4 6 11 21 16 14
6 26 16 26 22 0 8 -5 7 -17 -2 -15 -11 -16 -11 -6 1 10 10 10 17 1 28 -9 10
-8 16 3 23 9 6 18 3 27 -8 6 -9 12 -13 12 -9z m1790 16 c0 -5 0 -13 -1 -17 0
-4 8 -10 18 -14 15 -6 15 -8 2 -8 -9 -1 -25 7 -36 17 -10 9 -14 14 -9 10 18
-14 29 -8 16 7 -9 10 -9 15 -1 15 6 0 11 -4 11 -10z m73 3 c2 -5 -5 -21 -15
-38 -11 -16 -17 -22 -14 -12 3 11 0 20 -9 24 -13 5 -13 7 2 19 21 15 30 17 36
7z m-1976 -12 c-10 -4 -18 -10 -18 -14 2 -21 0 -27 -10 -27 -8 0 -7 6 2 17 12
15 12 16 -6 10 -20 -7 -20 -7 -1 8 11 8 27 15 35 14 12 0 12 -2 -2 -8z m1857
-7 c3 -8 2 -13 -3 -9 -5 3 -11 0 -13 -7 -3 -7 -7 -5 -11 6 -4 10 -3 15 3 11 6
-3 10 -1 10 4 0 16 7 13 14 -5z m-1555 -1 c14 11 15 10 1 -7 -14 -18 -13 -19
5 -12 16 6 17 5 8 -5 -10 -10 -16 -9 -30 4 -13 11 -23 13 -33 7 -8 -5 -22 -10
-30 -9 -8 0 -1 6 15 13 17 7 34 10 39 5 5 -5 17 -3 25 4z m1506 -3 c-3 -5 -1
-10 4 -10 6 0 11 -5 11 -11 0 -8 -5 -8 -15 1 -12 10 -18 10 -32 -1 -15 -11
-14 -10 1 9 19 22 43 31 31 12z m226 -37 c-12 -20 -14 -14 -5 12 4 9 9 14 11
11 3 -2 0 -13 -6 -23z m-2020 2 c5 4 6 -1 2 -10 -5 -13 -7 -14 -14 -3 -5 7 -8
18 -8 23 0 6 3 4 6 -3 2 -6 9 -10 14 -7z m299 -15 c7 0 10 -3 7 -7 -9 -8 -57
17 -57 30 0 6 8 3 18 -6 10 -10 25 -17 32 -17z m1570 19 c0 -5 -4 -7 -10 -4
-5 3 -10 2 -10 -4 0 -6 -10 -15 -21 -22 -13 -6 -19 -7 -15 -1 3 6 0 13 -6 16
-7 3 -2 3 11 0 15 -4 21 -2 17 4 -3 6 0 13 6 15 21 9 28 8 28 -4z m-1769 -26
c-12 -20 -14 -14 -5 12 4 9 9 14 11 11 3 -2 0 -13 -6 -23z m69 17 c0 -5 -4
-10 -10 -10 -5 0 -10 5 -10 10 0 6 5 10 10 10 6 0 10 -4 10 -10z m64 -1 c-2
-4 2 -9 8 -12 7 -2 11 -7 8 -10 -3 -3 -16 2 -28 12 -21 16 -22 17 -3 17 11 0
18 -3 15 -7z m1539 -9 c-10 -11 -19 -20 -21 -20 -1 0 2 9 8 20 6 11 15 20 20
20 6 0 2 -9 -7 -20z m125 -1 c-12 -10 -25 -15 -28 -12 -3 3 1 8 8 10 6 3 10 8
8 12 -3 4 4 7 15 7 19 0 18 -1 -3 -17z m72 11 c0 -5 -4 -10 -10 -10 -5 0 -10
5 -10 10 0 6 5 10 10 10 6 0 10 -4 10 -10z m131 -15 c-12 -6 -18 -15 -14 -20
4 -4 3 -5 -4 -2 -6 4 -14 1 -16 -5 -4 -9 -6 -10 -6 -1 -1 6 8 18 19 26 11 8
17 17 13 21 -4 4 1 4 11 0 17 -7 17 -8 -3 -19z m-1964 8 c-4 -3 1 -12 11 -19
13 -9 19 -9 24 -1 5 8 8 8 8 1 0 -5 -7 -19 -16 -30 -13 -16 -15 -16 -10 -2 3
11 -2 22 -14 28 -16 9 -20 8 -20 -5 0 -9 -7 -18 -15 -21 -8 -4 -12 -11 -9 -18
3 -6 -3 -1 -14 11 -11 12 -23 19 -27 15 -5 -4 -5 -1 -1 6 10 17 26 15 26 -3 0
-9 6 -12 15 -9 8 4 15 12 15 18 0 12 19 36 29 36 2 0 1 -3 -2 -7z m1873 -28
c0 -17 27 -27 34 -12 3 8 5 8 5 1 1 -6 -7 -18 -16 -25 -9 -8 -14 -9 -10 -3 4
7 0 14 -8 18 -8 3 -15 12 -15 21 0 13 -4 14 -20 5 -12 -6 -17 -17 -14 -28 5
-14 3 -14 -10 2 -9 11 -16 25 -16 30 0 7 3 7 8 -1 5 -8 11 -8 24 1 10 7 14 17
10 22 -4 4 1 2 11 -5 9 -7 17 -19 17 -26z m-2034 4 c-1 -12 6 -24 14 -27 12
-4 13 -2 3 9 -10 12 -8 15 8 16 25 2 24 -12 -1 -30 -11 -8 -17 -17 -13 -21 4
-4 0 -4 -10 0 -14 5 -16 2 -11 -12 6 -16 5 -17 -7 -6 -12 11 -11 15 3 26 13 9
14 16 6 24 -6 6 -8 18 -5 26 9 22 14 20 13 -5z m234 -4 c5 -14 15 -25 21 -25
8 0 7 6 -2 18 -13 15 -12 16 3 4 14 -11 18 -10 27 5 6 10 11 13 11 6 0 -6 -11
-20 -25 -31 -13 -11 -21 -22 -17 -26 3 -4 -1 -4 -11 0 -14 5 -16 2 -11 -12 6
-16 5 -17 -7 -6 -12 11 -12 15 2 26 15 10 15 14 3 31 -14 19 -18 35 -9 35 3 0
10 -11 15 -25z m1600 -16 c0 -3 -8 -13 -17 -20 -10 -7 -15 -9 -11 -5 4 5 0 14
-9 21 -13 9 -13 14 -3 20 8 5 11 4 7 -2 -4 -6 0 -13 8 -17 18 -6 19 -2 4 27
-10 21 -10 21 5 3 9 -11 16 -23 16 -27z m107 8 c-14 -21 -14 -24 1 -34 15 -9
15 -13 3 -24 -12 -12 -13 -11 -7 5 5 14 3 17 -11 12 -10 -4 -14 -4 -11 0 4 4
-4 15 -17 26 -14 11 -25 25 -25 31 0 7 5 4 11 -6 9 -15 13 -16 27 -5 15 12 16
11 3 -4 -9 -12 -10 -18 -2 -18 6 0 16 12 22 26 5 15 12 24 16 21 3 -4 -1 -17
-10 -30z m-1616 -4 c13 -16 12 -17 -3 -4 -10 7 -18 15 -18 17 0 8 8 3 21 -13z
m1813 1 c3 -8 2 -12 -4 -9 -6 3 -10 10 -10 16 0 14 7 11 14 -7z m-2054 -30 c0
5 7 3 15 -4 8 -7 12 -16 9 -21 -9 -16 -24 -10 -36 16 -11 25 -31 25 -21 0 3
-10 -1 -15 -13 -15 -16 0 -17 2 -4 10 8 5 11 10 6 10 -5 0 -3 7 5 16 12 14 14
14 26 -2 7 -10 13 -14 13 -10z m121 -1 c-12 -20 -14 -14 -5 12 4 9 9 14 11 11
3 -2 0 -13 -6 -23z m119 -17 c-1 -6 -6 -1 -13 12 -14 24 -30 21 -20 -4 3 -9
-2 -14 -13 -14 -16 0 -17 2 -4 10 8 5 11 10 6 10 -5 0 -3 7 5 16 12 14 14 14
26 -2 7 -10 13 -23 13 -28z m1565 14 c-3 -5 1 -11 7 -13 8 -3 5 -6 -6 -6 -12
-1 -16 4 -13 14 10 25 -10 25 -21 0 -12 -26 -27 -32 -36 -16 -3 5 1 14 9 21 8
7 15 9 15 4 0 -5 5 -1 11 9 8 14 14 16 25 6 7 -6 12 -15 9 -19z m85 -5 c0 -5
-5 -3 -10 5 -5 8 -10 20 -10 25 0 6 5 3 10 -5 5 -8 10 -19 10 -25z m156 0 c1
-8 -2 -15 -8 -15 -6 0 -8 7 -5 15 10 25 -10 25 -21 0 -12 -26 -27 -32 -36 -16
-3 5 1 14 9 21 8 7 15 9 15 4 0 -5 5 -1 11 9 12 20 31 10 35 -18z m-1976 5 c0
-5 6 -8 13 -6 6 1 9 1 4 -1 -4 -3 -4 -9 -1 -15 3 -5 -3 -4 -15 4 -22 14 -28
28 -11 28 6 0 10 -4 10 -10z m1635 0 c-3 -5 0 -10 7 -11 9 0 10 -2 1 -5 -7 -3
-9 -13 -6 -22 3 -9 3 -14 -1 -11 -12 11 -17 59 -6 59 6 0 8 -4 5 -10z m245 2
c0 -4 -9 -13 -21 -20 -12 -8 -18 -9 -15 -4 3 6 3 12 -1 15 -5 2 -2 2 5 1 6 -2
12 1 12 6 0 6 5 10 10 10 6 0 10 -3 10 -8z m-2024 -58 c-3 -8 -10 -13 -15 -10
-5 4 -11 1 -14 -6 -2 -7 -3 -6 -2 2 0 8 7 14 13 13 7 -2 12 7 13 20 0 12 3 16
6 9 3 -7 2 -20 -1 -28z m116 14 c-7 -7 -12 -8 -12 -2 0 14 12 26 19 19 2 -3
-1 -11 -7 -17z m140 8 c5 3 4 -3 -3 -14 -7 -12 -17 -18 -22 -15 -5 3 -6 -5 -3
-18 3 -13 3 -18 0 -11 -3 6 -10 9 -16 6 -6 -4 -5 2 1 15 7 11 16 21 21 21 5 0
8 6 6 13 -1 6 -1 9 1 4 3 -4 9 -4 15 -1z m1788 -7 c0 -6 -4 -7 -10 -4 -5 3
-10 11 -10 16 0 6 5 7 10 4 6 -3 10 -11 10 -16z m-1980 1 c0 -5 -4 -10 -10
-10 -5 0 -10 5 -10 10 0 6 5 10 10 10 6 0 10 -4 10 -10z m83 -15 c-10 -8 -20
-11 -23 -8 -3 3 1 8 8 10 6 3 10 9 7 14 -4 5 1 6 10 3 14 -6 14 -8 -2 -19z
m62 15 c3 -5 1 -10 -4 -10 -6 0 -11 5 -11 10 0 6 2 10 4 10 3 0 8 -4 11 -10z
m95 0 c0 -5 -4 -10 -10 -10 -5 0 -10 5 -10 10 0 6 5 10 10 10 6 0 10 -4 10
-10z m1508 -12 c-7 -5 -22 -13 -33 -19 l-20 -10 20 16 c11 9 19 20 18 25 -2 5
4 7 13 3 13 -5 13 -7 2 -15z m58 11 c4 -8 9 -7 15 2 6 10 9 10 9 2 0 -16 -17
-26 -25 -13 -3 5 -11 10 -17 10 -7 0 -6 -6 2 -15 7 -9 8 -15 2 -15 -5 0 -12 6
-15 14 -9 24 15 36 29 15z m84 1 c0 -5 -5 -10 -11 -10 -5 0 -7 5 -4 10 3 6 8
10 11 10 2 0 4 -4 4 -10z m55 0 c-3 -5 -1 -10 4 -10 6 0 11 -5 11 -11 0 -8 -5
-8 -15 1 -12 10 -18 10 -30 0 -8 -7 -15 -8 -15 -3 0 6 10 15 23 21 29 14 29
14 22 2z m103 -10 c12 -19 11 -20 -8 -8 -20 13 -27 28 -12 28 4 0 13 -9 20
-20z m-44 -5 c-4 -8 -11 -15 -16 -15 -6 0 -5 6 2 15 7 8 14 15 16 15 2 0 1 -7
-2 -15z m-1970 -4 c3 -5 -1 -14 -9 -21 -8 -7 -15 -9 -15 -4 0 4 -6 0 -12 -9
-12 -15 -15 -14 -37 3 -13 11 -21 20 -18 20 3 0 13 3 23 7 13 5 16 3 11 -10
-10 -27 9 -28 21 -2 12 26 27 32 36 16z m78 -8 c-6 -3 -10 -8 -8 -12 3 -4 -4
-7 -15 -7 -19 0 -18 1 3 17 12 10 25 15 28 12 3 -3 -1 -8 -8 -10z m108 -4 c0
-5 -8 -9 -17 -8 -11 0 -13 3 -5 6 6 2 9 10 6 15 -4 7 -2 8 4 4 7 -4 12 -11 12
-17z m33 4 c-5 -12 -3 -14 8 -8 8 5 11 5 6 -1 -5 -5 -12 -9 -15 -8 -4 1 -12
-6 -18 -14 -9 -12 -13 -12 -19 -2 -5 8 -4 11 2 7 6 -4 15 5 21 18 13 28 25 34
15 8z m1615 -4 c8 -12 9 -18 4 -15 -6 3 -12 3 -15 -1 -2 -5 -2 -2 -1 5 2 6 -1
12 -6 12 -6 0 -10 5 -10 10 0 17 14 11 28 -11z m-106 -14 c-8 -16 -9 -16 -15
-1 -4 10 -3 15 3 11 6 -3 10 -1 10 6 0 7 3 10 6 6 3 -3 2 -13 -4 -22z m269 10
c5 4 6 -1 2 -10 -5 -13 -7 -14 -14 -3 -5 7 -8 18 -8 23 0 6 3 4 6 -3 2 -6 9
-10 14 -7z m-211 -5 c-8 -5 -19 -10 -25 -10 -5 0 -3 5 5 10 8 5 20 10 25 10 6
0 3 -5 -5 -10z m124 2 c2 -4 -4 -8 -14 -8 -10 0 -16 4 -14 8 3 4 9 8 14 8 5 0
11 -4 14 -8z m-1887 -14 c-2 -7 -10 -12 -16 -10 -17 3 -13 -9 11 -35 20 -21
22 -21 34 -5 11 14 15 15 26 3 11 -12 10 -13 -6 -7 -14 5 -17 3 -12 -11 4 -10
4 -14 0 -10 -4 4 -13 -2 -21 -13 -16 -22 -37 -27 -30 -7 2 6 10 11 16 10 18
-5 13 12 -13 36 -17 16 -25 19 -28 10 -3 -8 -7 -6 -12 6 -4 11 -4 16 0 12 4
-4 13 2 21 13 16 22 37 27 30 8z m114 -22 c4 2 10 0 14 -6 3 -5 11 -10 17 -10
6 0 3 9 -7 20 -10 11 -14 20 -9 20 5 0 20 -16 34 -34 14 -19 28 -32 32 -30 4
3 5 -2 2 -11 -5 -11 -2 -14 12 -9 16 6 17 5 6 -7 -11 -12 -15 -11 -27 4 -8 12
-15 14 -20 8 -3 -6 -12 -11 -18 -11 -7 0 -4 5 6 11 9 5 17 15 17 21 0 6 -3 8
-6 5 -4 -3 -16 -1 -28 5 -11 7 -23 13 -26 13 -15 2 -50 27 -50 36 0 5 10 1 22
-10 11 -11 25 -18 29 -15z m1724 15 c-3 -6 -11 -11 -16 -11 -5 0 -4 6 3 14 14
16 24 13 13 -3z m87 12 c-6 -2 -9 -10 -6 -15 4 -7 2 -8 -4 -4 -18 11 -14 26 6
25 10 0 12 -3 4 -6z m-2021 -20 c10 -11 10 -14 2 -9 -7 4 -13 2 -13 -3 0 -6
-5 -11 -11 -11 -8 0 -8 5 1 15 15 18 -1 20 -19 3 -10 -11 -11 -10 -6 5 9 22
29 22 46 0z m311 -10 c-3 -16 -7 -22 -10 -15 -4 13 4 42 11 42 2 0 2 -12 -1
-27z m1443 17 c3 -5 2 -10 -4 -10 -5 0 -13 5 -16 10 -3 6 -2 10 4 10 5 0 13
-4 16 -10z m75 -20 c0 -10 -3 -21 -7 -23 -5 -3 -8 8 -8 23 0 15 3 26 8 23 4
-2 7 -13 7 -23z m45 20 c-3 -5 -14 -10 -23 -10 -15 0 -15 2 -2 10 20 13 33 13
25 0z m168 -7 c-4 -11 -3 -14 5 -9 8 5 10 1 5 -10 -4 -11 -8 -13 -11 -6 -2 7
-8 9 -14 6 -6 -4 -5 2 1 15 14 25 23 28 14 4z m-1874 -14 c18 -11 30 -23 27
-27 -4 -3 -10 -2 -14 4 -15 23 -81 47 -67 24 3 -5 1 -10 -4 -10 -12 0 -14 13
-4 23 11 11 26 8 62 -14z m1829 4 c2 -7 -1 -13 -8 -13 -6 0 -8 5 -5 10 10 17
-25 11 -50 -8 -18 -14 -21 -22 -13 -38 9 -18 8 -18 -5 -2 -8 10 -16 17 -18 15
-3 -1 9 10 26 25 31 28 65 33 73 11z m-208 -3 c0 -5 -4 -10 -10 -10 -5 0 -10
5 -10 10 0 6 5 10 10 10 6 0 10 -4 10 -10z m110 0 c0 -5 -4 -10 -10 -10 -5 0
-10 5 -10 10 0 6 5 10 10 10 6 0 10 -4 10 -10z m190 0 c0 -5 -2 -10 -4 -10 -3
0 -8 5 -11 10 -3 6 -1 10 4 10 6 0 11 -4 11 -10z m-2050 -21 c0 -6 -4 -7 -10
-4 -5 3 -10 11 -10 16 0 6 5 7 10 4 6 -3 10 -11 10 -16z m-44 -20 c3 -6 -2
-18 -11 -27 -10 -10 -15 -12 -11 -5 3 6 1 13 -6 16 -7 2 -5 3 5 2 24 -4 21 9
-5 29 -23 16 -23 16 -1 6 12 -5 25 -15 29 -21z m24 -4 c0 -5 -5 -3 -10 5 -5 8
-10 20 -10 25 0 6 5 3 10 -5 5 -8 10 -19 10 -25z m1726 20 c-11 -8 -24 -15
-29 -15 -4 0 -5 -5 -1 -12 5 -7 3 -8 -6 -3 -10 6 -7 12 11 26 13 10 29 19 34
18 6 0 1 -6 -9 -14z m128 7 c2 -4 1 -14 -3 -21 -7 -11 -13 -11 -27 -1 -16 9
-16 11 -2 6 10 -3 20 -1 23 4 3 5 -3 11 -12 13 -16 4 -16 5 -1 6 9 0 19 -3 22
-7z m112 -17 c9 -14 14 -28 11 -32 -4 -3 -11 6 -16 21 -6 14 -16 26 -22 26 -8
0 -7 -6 2 -17 12 -16 12 -17 -2 -6 -9 7 -20 9 -25 5 -4 -4 -2 1 5 11 18 23 28
22 47 -8z m94 10 c11 -13 10 -14 -4 -9 -9 3 -16 10 -16 15 0 13 6 11 20 -6z
m-1848 -9 c6 4 5 -2 -1 -15 -7 -11 -16 -21 -22 -21 -6 0 -7 -4 -4 -10 3 -5 1
-10 -4 -10 -13 0 -13 3 -5 24 3 9 11 13 16 10 6 -4 8 3 4 17 -3 13 -3 18 0 11
3 -6 10 -9 16 -6z m1541 -1 c-3 -9 -8 -14 -10 -11 -3 3 -2 9 2 15 9 16 15 13
8 -4z m33 -22 c-3 -4 -6 -1 -6 6 0 7 -4 9 -10 6 -6 -4 -7 1 -3 11 6 15 7 15
15 -1 6 -9 7 -19 4 -22z m231 21 c2 -6 -4 -14 -13 -18 -15 -6 -15 -4 -3 11 12
15 12 16 -3 10 -10 -3 -18 -2 -18 4 0 14 32 7 37 -7z m-1957 -2 c0 -4 -9 -13
-21 -20 -12 -8 -18 -9 -15 -4 3 6 3 12 -1 15 -5 2 -2 2 5 1 6 -2 12 1 12 6 0
6 5 10 10 10 6 0 10 -3 10 -8z m103 -9 c-7 -2 -19 -2 -25 0 -7 3 -2 5 12 5 14
0 19 -2 13 -5z m1572 -13 c3 -5 2 -10 -4 -10 -5 0 -13 5 -16 10 -3 6 -2 10 4
10 5 0 13 -4 16 -10z m74 -6 c-11 -13 -9 -14 13 -9 18 5 27 2 31 -9 9 -24 -10
-29 -38 -10 -23 15 -25 15 -31 0 -3 -9 -11 -16 -16 -16 -6 0 -5 6 2 15 15 18
-1 20 -18 3 -9 -9 -12 -9 -12 0 0 7 5 12 11 12 5 0 7 5 3 11 -4 8 0 8 15 0 17
-10 22 -9 27 4 3 8 11 15 16 15 6 0 5 -7 -3 -16z m71 6 c0 -5 -4 -10 -10 -10
-5 0 -10 5 -10 10 0 6 5 10 10 10 6 0 10 -4 10 -10z m48 -29 c-14 -19 -14 -19
-26 0 -7 11 -8 19 -2 19 5 0 10 -5 10 -11 0 -5 4 -8 10 -4 5 3 6 13 3 23 -5
13 -3 14 7 5 10 -9 10 -15 -2 -32z m-1798 13 c0 -10 -6 -14 -15 -11 -25 10
-25 -10 0 -21 26 -12 32 -27 16 -36 -5 -3 -14 1 -21 9 -7 8 -9 15 -4 15 5 0 1
5 -9 11 -14 8 -16 14 -6 25 6 7 15 11 20 8 5 -3 9 0 9 5 0 6 2 11 5 11 3 0 5
-7 5 -16z m195 6 c-3 -5 -12 -10 -18 -10 -7 0 -6 4 3 10 19 12 23 12 15 0z
m1697 -15 c-8 -16 -9 -16 -15 -1 -4 10 -3 15 3 11 6 -3 10 -1 10 6 0 7 3 10 6
6 3 -3 2 -13 -4 -22z m36 0 c-3 -3 -9 2 -12 12 -6 14 -5 15 5 6 7 -7 10 -15 7
-18z m-2068 5 c0 -5 -5 -10 -11 -10 -5 0 -7 5 -4 10 3 6 8 10 11 10 2 0 4 -4
4 -10z m55 0 c-3 -5 -1 -10 4 -10 6 0 11 -5 11 -11 0 -8 -5 -8 -15 1 -12 10
-18 10 -30 0 -8 -7 -15 -8 -15 -3 0 6 10 15 23 21 29 14 29 14 22 2z m225 0
c8 -5 11 -10 5 -10 -5 0 -17 5 -25 10 -8 5 -10 10 -5 10 6 0 17 -5 25 -10z
m1418 -12 c-20 -20 -20 -22 -3 -34 10 -8 17 -16 14 -18 -2 -2 -13 2 -23 9 -18
13 -18 16 -2 40 9 14 21 25 26 25 6 0 0 -10 -12 -22z m212 -19 c0 -12 -49 -43
-57 -36 -3 4 6 11 21 16 14 6 26 16 26 22 0 8 -6 7 -17 -2 -16 -12 -17 -12 -6
2 7 9 9 20 5 25 -4 4 1 2 11 -5 9 -7 17 -17 17 -22z m95 21 c3 -5 1 -10 -4
-10 -6 0 -11 5 -11 10 0 6 2 10 4 10 3 0 8 -4 11 -10z m-2025 -25 c14 -19 14
-19 -2 -6 -10 7 -18 18 -18 24 0 6 1 8 3 6 1 -2 9 -13 17 -24z m195 4 c4 -11
4 -23 1 -26 -3 -4 -6 1 -6 10 0 10 -4 17 -10 17 -5 0 -10 5 -10 10 0 18 19 10
25 -11z m39 -4 c-20 -30 -20 -30 -20 -6 0 11 4 17 8 15 4 -3 8 0 8 5 0 6 5 11
10 11 6 0 3 -11 -6 -25z m101 15 c-3 -5 -11 -10 -16 -10 -6 0 -7 5 -4 10 3 6
11 10 16 10 6 0 7 -4 4 -10z m35 0 c0 -5 -2 -10 -4 -10 -3 0 -8 5 -11 10 -3 6
-1 10 4 10 6 0 11 -4 11 -10z m1375 -12 c-9 -6 -19 -7 -22 -4 -4 3 -1 6 6 6 7
0 9 4 6 10 -4 6 1 7 11 3 15 -6 15 -7 -1 -15z m240 0 c-9 -6 -19 -7 -22 -4 -4
3 -1 6 6 6 7 0 9 4 6 10 -4 6 1 7 11 3 15 -6 15 -7 -1 -15z m-144 -3 c5 4 6
-1 2 -10 -5 -13 -7 -14 -14 -3 -5 7 -8 18 -8 23 0 6 3 4 6 -3 2 -6 9 -10 14
-7z m-1767 -3 c2 -4 -4 -8 -14 -8 -10 0 -16 4 -14 8 3 4 9 8 14 8 5 0 11 -4
14 -8z m33 1 c-4 -3 2 -12 13 -20 11 -8 20 -22 19 -31 0 -14 -2 -14 -8 2 -7
19 -8 19 -14 1 -7 -16 -9 -17 -25 -1 -20 17 -57 22 -47 6 3 -5 1 -10 -5 -10
-18 0 -6 25 14 28 10 2 26 -4 36 -13 16 -14 18 -14 23 0 4 9 1 15 -8 15 -8 0
-15 4 -15 8 0 10 11 22 18 22 3 0 2 -3 -1 -7z m159 -19 c-23 -16 -40 -19 -31
-4 3 6 13 10 21 10 8 0 14 5 14 12 0 6 3 8 7 4 5 -4 -1 -14 -11 -22z m81 19
c-4 -3 2 -12 13 -20 11 -8 20 -21 20 -29 0 -8 5 -12 10 -9 10 6 35 -44 26 -53
-3 -2 -8 7 -12 22 -3 14 -10 23 -15 20 -5 -3 -13 5 -17 17 -7 19 -10 20 -15 6
-4 -10 -11 -17 -17 -17 -6 0 -4 7 5 16 9 9 13 19 10 23 -4 3 -15 -5 -26 -18
-10 -13 -19 -20 -19 -15 0 4 7 16 17 26 13 14 13 18 2 18 -11 0 -11 2 1 10 17
11 26 13 17 3z m1445 -11 c-7 -2 -9 -8 -6 -14 4 -6 -2 -5 -15 1 -25 14 -28 23
-4 14 11 -4 14 -3 9 5 -5 8 -1 10 10 5 11 -4 13 -8 6 -11z m245 12 c-3 -3 -12
-4 -19 -1 -8 3 -5 6 6 6 11 1 17 -2 13 -5z m31 -19 c-3 -3 -9 2 -12 12 -6 14
-5 15 5 6 7 -7 10 -15 7 -18z m-2043 -4 c-3 -6 -11 -11 -16 -11 -5 0 -4 6 3
14 14 16 24 13 13 -3z m1945 -3 c0 -6 -7 -4 -16 3 -15 12 -16 11 -10 -11 6
-21 5 -22 -4 -7 -6 9 -8 21 -5 27 7 11 35 2 35 -12z m45 4 c-3 -3 -11 0 -18 7
-9 10 -8 11 6 5 10 -3 15 -9 12 -12z m-1705 -2 c0 -5 -4 -10 -10 -10 -5 0 -10
5 -10 10 0 6 5 10 10 10 6 0 10 -4 10 -10z m1503 -7 c-3 -10 -3 -15 2 -11 4 4
14 1 21 -7 19 -18 18 -31 -1 -15 -12 10 -18 10 -30 0 -10 -9 -15 -9 -15 -1 0
6 5 11 11 11 5 0 7 5 4 10 -3 6 -3 15 0 20 10 16 15 12 8 -7z m240 2 c8 -19
-12 -30 -26 -16 -9 9 -7 10 8 5 18 -7 18 -6 6 9 -7 9 -9 17 -3 17 5 0 12 -7
15 -15z m-365 -17 c-2 -11 -11 -22 -21 -24 -9 -1 -15 2 -11 7 3 5 10 7 15 4 5
-4 9 3 9 14 0 12 3 21 6 21 3 0 4 -10 2 -22z m78 2 c5 1 10 -4 12 -12 3 -11 2
-11 -6 0 -5 8 -13 13 -18 12 -5 -1 -10 4 -12 12 -3 11 -2 11 6 0 5 -8 13 -13
18 -12z m221 -12 c-3 -7 -5 -2 -5 12 0 14 2 19 5 13 2 -7 2 -19 0 -25z m-1814
2 c-9 -11 -19 -17 -21 -15 -6 6 18 35 29 35 5 0 1 -9 -8 -20z m47 10 c0 -5 -4
-10 -10 -10 -5 0 -10 5 -10 10 0 6 5 10 10 10 6 0 10 -4 10 -10z m58 3 c-3
-15 14 -43 23 -37 5 3 6 -2 3 -11 -5 -11 -2 -14 12 -9 16 6 17 5 6 -7 -11 -12
-15 -12 -25 2 -9 12 -17 13 -33 4 -11 -5 -19 -16 -16 -23 3 -10 7 -10 18 -2 7
7 18 9 23 6 12 -8 3 -36 -11 -36 -6 0 -5 6 2 15 15 18 -1 20 -18 3 -9 -9 -13
-7 -18 5 -3 9 -11 14 -17 10 -6 -4 -7 -1 -3 6 5 7 19 16 32 21 13 5 24 15 24
21 0 8 -5 7 -17 -2 -15 -11 -16 -11 -6 0 6 7 9 20 6 27 -3 8 0 14 6 14 6 0 10
-3 9 -7z m1440 -18 c-3 -3 -9 2 -12 12 -6 14 -5 15 5 6 7 -7 10 -15 7 -18z
m147 14 c11 -16 1 -19 -13 -3 -7 8 -8 14 -3 14 5 0 13 -5 16 -11z m60 0 c11
-16 1 -19 -13 -3 -7 8 -8 14 -3 14 5 0 13 -5 16 -11z m-1690 -26 c-11 -7 -15
-13 -11 -13 5 0 3 -7 -4 -15 -7 -8 -16 -12 -21 -9 -16 9 -10 24 16 36 13 6 22
15 18 21 -4 6 -1 7 7 2 10 -6 9 -11 -5 -22z m-210 6 c11 -16 1 -19 -13 -3 -7
8 -8 14 -3 14 5 0 13 -5 16 -11z m59 2 c3 -5 -1 -14 -9 -21 -8 -7 -15 -9 -15
-4 0 4 -6 0 -13 -11 -11 -14 -16 -15 -22 -5 -5 8 -4 11 2 7 6 -4 15 5 21 18
12 26 27 32 36 16z m97 -18 c-12 -20 -14 -14 -5 12 4 9 9 14 11 11 3 -2 0 -13
-6 -23z m1589 -5 c0 -5 -4 -8 -10 -8 -5 0 -10 4 -10 10 0 5 -6 8 -12 6 -7 -1
-10 -1 -5 1 4 3 4 9 1 15 -3 5 3 4 15 -4 12 -7 21 -16 21 -20z m136 23 c-4 -5
-3 -11 1 -14 5 -2 3 -2 -4 -1 -6 2 -14 -2 -16 -9 -2 -7 -8 -9 -12 -4 -5 4 0
14 11 22 22 17 27 18 20 6z m51 -12 c-13 -8 -15 -14 -7 -30 6 -10 8 -19 6 -19
-3 0 -10 9 -16 21 -9 17 -8 23 7 34 10 7 20 11 23 8 3 -2 -3 -9 -13 -14z m84
-6 c13 -16 12 -17 -3 -4 -10 7 -25 11 -33 7 -9 -3 -13 -2 -10 4 10 15 31 12
46 -7z m-1911 -3 c0 -5 6 -8 13 -6 6 1 9 1 4 -1 -4 -3 -4 -9 -1 -15 3 -5 -3
-4 -15 4 -22 14 -28 28 -11 28 6 0 10 -4 10 -10z m251 -7 c13 -17 13 -17 -6
-3 -11 8 -22 16 -24 17 -2 2 0 3 6 3 6 0 17 -8 24 -17z m1329 7 c0 -5 -4 -10
-10 -10 -5 0 -10 5 -10 10 0 6 5 10 10 10 6 0 10 -4 10 -10z m124 2 c2 -4 -4
-8 -14 -8 -10 0 -16 4 -14 8 3 4 9 8 14 8 5 0 11 -4 14 -8z m-1739 -12 c-3 -5
-1 -10 4 -10 6 0 11 -5 11 -11 0 -8 -5 -8 -15 1 -18 15 -20 0 -2 -20 10 -12 9
-12 -5 -2 -13 10 -17 10 -20 0 -3 -7 -7 -5 -12 7 -4 11 -4 16 0 12 4 -4 13 2
21 13 14 20 30 29 18 10z m1591 -15 c14 -18 14 -18 29 1 8 10 15 14 15 8 0
-15 -21 -31 -42 -31 -10 0 -14 6 -10 15 3 9 1 13 -5 9 -5 -4 -18 0 -28 7 -17
12 -16 13 5 11 12 -1 29 -10 36 -20z m89 -9 c-16 -24 -16 -26 -1 -26 19 0 21
-16 4 -26 -7 -4 -10 -4 -6 1 5 5 -1 14 -12 22 -11 8 -20 22 -19 31 0 15 1 15
8 -1 6 -17 8 -16 21 7 7 14 15 24 17 22 3 -2 -3 -16 -12 -30z m115 4 c5 8 9 7
13 -5 4 -9 3 -13 -3 -10 -6 3 -10 1 -10 -6 0 -6 -9 0 -20 14 -11 14 -20 29
-20 33 0 5 7 -2 16 -15 12 -16 19 -19 24 -11z m98 21 c11 -7 10 -9 -3 -14 -9
-4 -14 -3 -10 2 3 5 -1 12 -7 14 -7 3 -8 6 -3 6 6 0 16 -3 23 -8z m38 -16 c1
-8 -2 -15 -6 -15 -5 0 -8 9 -7 20 1 21 10 18 13 -5z m-1661 5 c3 -5 2 -10 -4
-10 -5 0 -13 5 -16 10 -3 6 -2 10 4 10 5 0 13 -4 16 -10z m1568 -33 c-4 -6 0
-8 10 -4 11 4 21 -1 28 -16 7 -12 17 -25 23 -29 8 -5 7 -8 -1 -8 -7 0 -18 10
-25 23 -13 22 -53 35 -45 13 3 -6 10 -10 16 -8 6 1 11 -2 11 -8 0 -13 -17 -13
-25 1 -5 6 -12 4 -20 -8 -12 -15 -16 -16 -27 -4 -11 12 -10 13 6 7 14 -5 17
-2 12 9 -3 9 -2 14 2 11 4 -3 13 4 20 14 7 12 8 21 2 25 -6 3 -10 12 -10 18 0
7 7 3 15 -7 8 -10 12 -24 8 -29z m-77 11 c19 -23 19 -23 -2 -5 -22 18 -59 24
-49 7 3 -5 1 -10 -4 -10 -12 0 -14 13 -4 23 13 14 40 6 59 -15z m-1686 -21 c0
-5 -7 -4 -15 3 -12 10 -18 10 -30 0 -10 -9 -15 -9 -15 -1 0 6 5 11 11 11 5 0
7 5 4 10 -4 6 5 5 19 -2 14 -6 26 -16 26 -21z m25 23 c3 -5 1 -10 -4 -10 -6 0
-11 5 -11 10 0 6 2 10 4 10 3 0 8 -4 11 -10z m153 -15 c-3 -3 -13 -2 -22 1
-14 5 -15 9 -4 15 13 8 36 -6 26 -16z m44 18 c-6 -2 -10 -9 -6 -14 3 -5 0 -9
-5 -9 -12 0 -14 13 -4 23 3 4 11 7 17 6 6 0 5 -3 -2 -6z m1603 -3 c-3 -5 -12
-10 -18 -10 -7 0 -6 4 3 10 19 12 23 12 15 0z m-1945 -20 c6 -11 8 -20 6 -20
-3 0 -10 9 -16 20 -6 11 -8 20 -6 20 3 0 10 -9 16 -20z m180 0 c0 -5 -4 -10
-10 -10 -5 0 -8 -6 -6 -12 1 -7 1 -10 -1 -5 -3 4 -9 4 -15 1 -5 -3 -4 3 4 15
14 22 28 28 28 11z m1515 -20 c-3 -5 0 -10 7 -12 7 -3 4 -7 -7 -12 -11 -4 -16
-4 -12 0 4 4 -1 12 -10 19 -9 7 -13 17 -9 24 6 9 11 9 22 0 7 -6 12 -15 9 -19z
m111 14 c21 -11 23 -14 9 -12 -11 1 -27 -2 -35 -7 -13 -8 -13 -7 -1 8 9 11 10
17 2 17 -6 0 -16 -12 -22 -26 -5 -15 -12 -24 -16 -21 -5 6 23 57 31 57 2 0 17
-7 32 -16z m145 -11 c-8 -15 -10 -15 -11 -2 0 17 10 32 18 25 2 -3 -1 -13 -7
-23z m-1680 2 c5 4 6 -1 2 -10 -5 -13 -7 -14 -14 -3 -5 7 -8 18 -8 23 0 6 3 4
6 -3 2 -6 9 -10 14 -7z m-222 -4 c10 -7 11 -12 1 -27 -9 -16 -11 -16 -6 -2 3
10 -2 22 -12 27 -9 6 -12 10 -7 11 6 0 16 -4 24 -9z m55 1 c2 -4 -4 -8 -14 -8
-10 0 -16 4 -14 8 3 4 9 8 14 8 5 0 11 -4 14 -8z m116 -2 c8 -5 11 -10 5 -10
-5 0 -17 5 -25 10 -8 5 -10 10 -5 10 6 0 17 -5 25 -10z m-75 -29 c-6 -5 -25
10 -25 20 0 5 6 4 14 -3 8 -7 12 -15 11 -17z m-115 15 c0 -2 -7 -7 -16 -10 -8
-3 -12 -2 -9 4 6 10 25 14 25 6z m180 -6 c13 -8 13 -10 -2 -10 -9 0 -20 5 -23
10 -8 13 5 13 25 0z m35 -19 c0 -16 -3 -27 -7 -24 -13 7 -7 53 6 53 1 0 1 -13
1 -29z m1605 -11 l25 -11 -25 7 c-14 3 -33 6 -42 5 -21 0 -32 15 -23 30 5 7
13 5 24 -5 9 -8 28 -20 41 -26z m-1731 18 c16 -10 17 -14 6 -25 -18 -17 -31
-17 -16 0 6 8 8 17 4 20 -11 11 -43 8 -40 -4 1 -6 -5 -14 -13 -16 -13 -4 -13
-3 0 6 8 6 11 11 7 11 -5 0 -5 5 -2 10 8 13 31 13 54 -2z m1608 -20 c-3 -7 -5
-2 -5 12 0 14 2 19 5 13 2 -7 2 -19 0 -25z m-1537 12 c8 -5 11 -10 5 -10 -5 0
-17 5 -25 10 -8 5 -10 10 -5 10 6 0 17 -5 25 -10z m1590 -25 c0 -5 -5 -3 -10
5 -5 8 -10 20 -10 25 0 6 5 3 10 -5 5 -8 10 -19 10 -25z m118 17 c21 -16 21
-19 7 -37 -16 -19 -16 -19 -5 3 10 20 -2 34 -13 15 -2 -5 -2 -2 -1 4 2 7 -5
17 -14 22 -9 6 -12 10 -7 10 6 1 20 -7 33 -17z m27 8 c3 -6 -1 -7 -9 -4 -18 7
-21 14 -7 14 6 0 13 -4 16 -10z m-1748 -25 c5 -14 8 -14 26 2 11 10 17 13 14
6 -4 -6 -1 -14 5 -17 7 -3 4 -4 -6 -3 -10 1 -21 -4 -24 -12 -2 -8 0 -11 5 -8
5 3 10 -1 10 -10 0 -13 -4 -12 -17 5 -10 12 -21 18 -24 14 -4 -3 -4 1 0 11 5
13 2 16 -12 10 -12 -4 -15 -3 -10 5 10 17 26 15 33 -3z m1583 -4 c7 -14 7 -22
-2 -27 -6 -4 -8 -3 -4 4 3 6 2 13 -4 17 -10 6 -14 25 -5 25 2 0 9 -9 15 -19z
m-1676 -13 c-3 -13 -3 -20 1 -16 5 4 14 0 21 -10 24 -32 14 -33 -16 -2 -30 30
-39 47 -20 35 6 -3 10 -1 10 4 0 6 3 11 6 11 3 0 2 -10 -2 -22z m1722 0 c-15
-8 -16 -12 -5 -19 9 -6 10 -9 2 -9 -6 0 -14 4 -18 9 -6 11 25 45 34 36 3 -4
-3 -11 -13 -17z m-68 -13 c-3 -3 -9 2 -12 12 -6 14 -5 15 5 6 7 -7 10 -15 7
-18z m110 4 c-12 -10 -25 -15 -28 -12 -3 3 1 8 8 10 6 3 10 8 8 12 -3 4 4 7
15 7 19 0 18 -1 -3 -17z m-1705 4 c-7 -2 -19 -2 -25 0 -7 3 -2 5 12 5 14 0 19
-2 13 -5z m1734 -15 c-2 -7 0 -20 4 -30 7 -12 5 -15 -9 -13 -9 1 -27 -3 -39
-11 -26 -16 -39 -3 -23 23 9 15 10 15 5 -5 -7 -23 -6 -23 17 -8 14 9 28 13 33
9 4 -5 5 0 2 10 -4 11 -5 23 -1 28 8 13 16 11 11 -3z m-1707 -13 c5 3 11 2 14
-3 2 -4 -4 -9 -15 -9 -12 -1 -19 4 -18 15 0 11 2 12 6 4 2 -6 9 -10 13 -7z
m-95 -5 c3 -6 -1 -7 -9 -4 -18 7 -21 14 -7 14 6 0 13 -4 16 -10z m1715 0 c8
-5 11 -10 5 -10 -5 0 -17 5 -25 10 -8 5 -10 10 -5 10 6 0 17 -5 25 -10z
m-1695 -20 c-3 -5 -1 -10 6 -10 7 0 10 -3 6 -6 -9 -9 -28 6 -22 17 4 5 8 9 11
9 3 0 2 -4 -1 -10z m36 -17 c-12 -20 -14 -14 -5 12 4 9 9 14 11 11 3 -2 0 -13
-6 -23z m1669 -24 c0 -17 -9 -9 -24 24 l-16 32 20 -24 c11 -13 20 -27 20 -32z
m-1620 31 c-8 -5 -11 -10 -6 -10 5 0 3 -7 -4 -15 -10 -12 -16 -13 -24 -5 -8 8
-6 15 8 26 11 8 25 14 30 14 6 0 4 -5 -4 -10z m452 -43 c6 -13 6 -17 0 -13 -6
3 -12 1 -14 -6 -3 -7 -7 -5 -11 6 -4 10 -3 15 3 11 6 -3 10 -2 10 3 0 16 -13
22 -27 11 -9 -9 -13 -8 -13 0 0 6 5 11 11 11 5 0 7 6 3 13 -5 7 -2 7 10 -2 9
-8 22 -23 28 -34z m751 19 c3 3 11 -4 17 -16 6 -12 9 -24 6 -28 -3 -3 -6 0 -6
7 0 7 -4 9 -10 6 -6 -4 -7 1 -3 11 4 11 2 15 -4 11 -5 -4 -19 0 -29 9 -18 14
-18 15 2 5 12 -6 24 -8 27 -5z m477 4 c-8 -5 -19 -10 -25 -10 -5 0 -3 5 5 10
8 5 20 10 25 10 6 0 3 -5 -5 -10z m-1742 -25 c-3 -3 -9 2 -12 12 -6 14 -5 15
5 6 7 -7 10 -15 7 -18z m102 -19 c-1 -6 -7 0 -14 13 -10 18 -15 20 -21 10 -5
-7 -4 -14 3 -17 7 -2 12 -8 12 -14 0 -6 -6 -6 -15 2 -17 14 -20 1 -5 -18 5 -7
3 -6 -7 2 -15 14 -15 17 2 42 17 26 18 27 31 9 8 -10 14 -24 14 -29z m354 17
c4 -10 4 -14 0 -10 -4 4 -12 -1 -19 -10 -9 -13 -14 -13 -20 -3 -5 8 -4 11 3 6
6 -3 13 3 17 14 8 24 11 25 19 3z m104 10 c-1 -5 4 -18 11 -31 11 -20 10 -25
-6 -37 -10 -7 -20 -11 -23 -8 -3 2 3 9 13 15 17 9 17 12 3 33 -8 12 -12 25 -9
29 9 8 13 8 11 -1z m674 -7 c5 4 2 -5 -7 -20 -16 -23 -16 -26 -1 -32 9 -3 16
-11 16 -16 0 -7 -5 -6 -13 1 -11 8 -14 5 -14 -19 0 -24 3 -27 14 -19 8 7 13 8
13 1 0 -13 -28 -23 -35 -12 -3 4 -2 16 1 27 6 15 4 16 -7 6 -23 -22 -30 -14
-7 9 19 19 20 22 5 33 -10 7 -17 16 -17 20 0 4 7 2 16 -6 13 -11 15 -11 14 2
-4 24 1 46 7 31 2 -6 9 -9 15 -6z m395 -17 c-16 -22 -16 -22 -14 -1 0 11 5 18
9 16 4 -3 8 0 8 7 0 7 3 10 6 6 3 -3 -1 -16 -9 -28z m64 4 c-12 -20 -14 -14
-5 12 4 9 9 14 11 11 3 -2 0 -13 -6 -23z m-1666 7 c3 -5 1 -10 -4 -10 -6 0
-11 5 -11 10 0 6 2 10 4 10 3 0 8 -4 11 -10z m1148 -5 c-3 -9 -8 -14 -10 -11
-3 3 -2 9 2 15 9 16 15 13 8 -4z m-573 -16 c0 -6 -4 -7 -10 -4 -5 3 -10 11
-10 16 0 6 5 7 10 4 6 -3 10 -11 10 -16z m-134 -24 c-17 -26 -31 -31 -41 -15
-3 5 -12 7 -19 4 -8 -3 -17 -1 -21 5 -4 7 0 8 11 4 13 -5 15 -3 9 8 -7 11 -6
12 6 2 12 -10 18 -10 29 0 12 10 12 9 1 -5 -9 -13 -10 -18 -2 -18 6 0 16 12
22 26 5 15 12 24 16 21 3 -4 -2 -18 -11 -32z m69 25 c-3 -5 -1 -10 6 -10 7 0
10 -2 7 -5 -3 -3 -13 -2 -22 1 -14 5 -15 9 -4 15 17 11 20 11 13 -1z m619 -10
c8 -8 6 -9 -8 -4 -13 5 -17 4 -12 -4 11 -18 1 -14 -19 8 -17 19 -17 19 6 15
12 -3 27 -9 33 -15z m101 -2 c-9 -6 -19 -7 -22 -4 -4 3 -1 6 6 6 7 0 9 4 6 10
-4 6 1 7 11 3 15 -6 15 -7 -1 -15z m400 0 c-9 -6 -19 -7 -22 -4 -4 3 -1 6 6 6
7 0 9 4 6 10 -4 6 1 7 11 3 15 -6 15 -7 -1 -15z m-1624 -5 c13 -16 12 -17 -3
-4 -17 13 -22 21 -14 21 2 0 10 -8 17 -17z m93 2 c-7 -16 -24 -21 -24 -6 0 8
7 13 27 20 1 1 0 -6 -3 -14z m1507 -15 c5 0 9 -5 9 -10 0 -6 -11 -3 -25 6 -14
9 -25 21 -25 26 0 5 7 2 16 -6 8 -9 20 -16 25 -16z m-1137 8 c-5 -8 -2 -9 10
-5 10 4 15 3 11 -3 -7 -12 -35 -13 -35 -2 0 9 10 22 17 22 2 0 1 -5 -3 -12z
m146 4 c0 -4 -9 -13 -21 -20 -12 -8 -18 -9 -15 -4 3 6 3 12 -1 15 -5 2 -2 2 5
1 6 -2 12 1 12 6 0 6 5 10 10 10 6 0 10 -3 10 -8z m469 -6 c8 -10 9 -16 1 -21
-13 -8 -30 3 -30 21 0 18 14 18 29 0z m198 8 c-3 -3 -12 -4 -19 -1 -8 3 -5 6
6 6 11 1 17 -2 13 -5z m-1187 -34 c5 8 9 6 14 -6 4 -10 4 -15 0 -12 -3 4 -14
-2 -24 -14 -13 -17 -17 -18 -17 -5 0 9 4 14 9 11 14 -9 9 13 -7 26 -8 7 -15
17 -15 23 0 6 7 1 16 -12 12 -16 19 -19 24 -11z m531 3 c-12 -20 -14 -14 -5
12 4 9 9 14 11 11 3 -2 0 -13 -6 -23z m98 1 c4 3 8 -3 8 -12 0 -19 -25 -52
-40 -52 -6 0 -2 7 9 16 18 15 18 15 -5 8 -17 -4 -21 -3 -16 6 4 6 16 10 26 7
23 -6 25 6 4 23 -8 7 -15 18 -15 24 0 6 5 3 11 -7 6 -9 14 -15 18 -13z m311
14 c0 -11 -12 -10 -30 2 -12 7 -10 9 8 7 12 0 22 -5 22 -9z m122 5 c-6 -2 -10
-9 -7 -14 4 -5 -1 -6 -10 -2 -13 5 -14 7 -3 14 7 5 18 8 23 8 6 0 4 -3 -3 -6z
m103 -11 c-3 -3 -11 0 -18 7 -9 10 -8 11 6 5 10 -3 15 -9 12 -12z m-497 -12
c-7 -10 -14 -17 -17 -15 -4 4 18 35 25 35 2 0 -1 -9 -8 -20z m138 6 c11 3 15
2 9 -3 -5 -4 -15 -17 -21 -28 -6 -11 -20 -21 -30 -22 -19 -2 -19 -2 0 4 15 4
16 7 5 15 -11 8 -10 9 4 4 9 -3 17 -2 17 1 0 4 -8 16 -17 27 -14 16 -15 18 -2
8 9 -7 25 -10 35 -6z m65 -5 c-11 -7 -11 -12 1 -30 8 -11 18 -18 22 -14 4 4 4
0 0 -10 -5 -14 -2 -16 12 -11 16 6 17 5 6 -7 -11 -12 -15 -11 -27 4 -8 12 -15
14 -20 8 -8 -14 -25 -14 -25 -1 0 6 5 9 11 8 6 -2 13 2 16 8 8 22 -32 9 -45
-13 -13 -24 -27 -29 -36 -14 -3 5 1 14 9 21 8 7 15 9 15 4 0 -5 5 -1 11 8 6
11 16 15 26 11 11 -4 14 -3 9 6 -8 13 13 46 23 36 3 -3 -1 -10 -8 -14z m318 2
c-12 -15 -12 -16 6 -9 15 5 17 4 8 -5 -6 -6 -16 -8 -22 -5 -12 8 -3 36 11 36
6 0 4 -8 -3 -17z m302 -10 c2 1 1 -2 -4 -8 -5 -6 -11 -4 -17 5 -15 23 -11 37
4 18 7 -10 15 -17 17 -15z m-1533 -1 c2 -7 -1 -12 -8 -12 -6 0 -9 4 -6 9 4 5
1 12 -4 14 -6 3 -5 4 2 3 6 -1 14 -8 16 -14z m82 8 c0 -5 -2 -10 -4 -10 -3 0
-8 5 -11 10 -3 6 -1 10 4 10 6 0 11 -4 11 -10z m232 -4 c6 4 5 -2 -1 -15 -14
-25 -23 -28 -14 -4 4 11 3 14 -5 9 -8 -5 -10 -1 -5 10 4 11 8 13 11 6 2 -7 8
-9 14 -6z m135 -18 c-3 -7 -5 -2 -5 12 0 14 2 19 5 13 2 -7 2 -19 0 -25z m78
3 c-6 -5 -25 10 -25 20 0 5 6 4 14 -3 8 -7 12 -15 11 -17z m108 22 c3 -5 -8
-8 -23 -8 -15 0 -26 3 -23 8 2 4 13 7 23 7 10 0 21 -3 23 -7z m160 -18 c-7
-21 -12 -19 -10 4 0 11 5 18 9 15 4 -3 5 -11 1 -19z m158 10 c5 4 6 -2 2 -11
-4 -11 -8 -13 -11 -6 -2 7 -8 10 -13 7 -5 -4 -6 2 -2 11 4 11 8 13 11 6 2 -7
8 -10 13 -7z m109 5 c0 -5 -5 -10 -11 -10 -5 0 -7 5 -4 10 3 6 8 10 11 10 2 0
4 -4 4 -10z m117 -22 c-3 -7 -5 -2 -5 12 0 14 2 19 5 13 2 -7 2 -19 0 -25z
m394 9 c-10 -9 -11 -8 -5 6 3 10 9 15 12 12 3 -3 0 -11 -7 -18z m-1240 -10
c-10 -9 -11 -8 -5 6 3 10 9 15 12 12 3 -3 0 -11 -7 -18z m69 13 c0 -5 -4 -10
-10 -10 -5 0 -10 5 -10 10 0 6 5 10 10 10 6 0 10 -4 10 -10z m110 -42 c0 -9
-7 -21 -16 -26 -11 -6 -13 -11 -5 -16 6 -4 11 -13 11 -19 0 -7 -5 -4 -11 5 -6
11 -16 15 -26 11 -13 -5 -13 -3 3 14 10 11 22 18 27 16 11 -6 8 35 -3 42 -5 3
-10 11 -10 18 0 18 29 -26 30 -45z m240 27 c7 -13 17 -22 21 -19 5 3 6 -2 3
-11 -5 -11 -2 -14 12 -9 16 6 17 5 6 -7 -11 -12 -15 -11 -27 4 -8 12 -15 14
-20 8 -8 -14 -25 -14 -25 -1 0 6 5 9 11 8 6 -2 13 2 16 8 8 22 -32 9 -45 -13
-13 -24 -27 -29 -36 -14 -3 5 1 14 9 21 8 7 15 9 15 4 0 -5 5 -1 11 8 6 11 16
15 27 11 15 -6 15 -5 3 10 -7 9 -9 17 -4 17 5 0 16 -11 23 -25z m20 15 c0 -5
-2 -10 -4 -10 -3 0 -8 5 -11 10 -3 6 -1 10 4 10 6 0 11 -4 11 -10z m240 0 c8
-5 11 -10 5 -10 -5 0 -17 5 -25 10 -8 5 -10 10 -5 10 6 0 17 -5 25 -10z m275
0 c3 -6 -1 -7 -9 -4 -18 7 -21 14 -7 14 6 0 13 -4 16 -10z m-1213 -27 c-6 -3
-10 -8 -8 -12 3 -4 -4 -7 -15 -7 -19 0 -18 1 3 17 12 10 25 15 28 12 3 -3 -1
-8 -8 -10z m314 -8 c9 -14 14 -28 11 -32 -4 -3 -11 6 -16 21 -6 14 -16 26 -22
26 -8 0 -7 -6 2 -17 12 -15 12 -16 -1 -8 -8 5 -24 8 -35 7 -17 -2 -16 0 5 12
35 20 37 19 56 -9z m94 10 c11 -13 10 -14 -4 -9 -9 3 -16 10 -16 15 0 13 6 11
20 -6z m88 -11 c7 -14 8 -23 2 -19 -5 3 -10 1 -10 -4 0 -6 -5 -11 -11 -11 -8
0 -8 5 1 15 10 12 10 18 0 30 -7 8 -8 15 -3 15 5 0 15 -12 21 -26z m433 9 c7
-10 9 -15 5 -11 -5 4 -15 0 -23 -10 -13 -15 -13 -15 -4 5 9 18 8 22 -7 26 -14
4 -14 5 -1 6 9 0 23 -7 30 -16z m39 7 c-14 -9 -7 -14 13 -11 5 1 6 -3 3 -8 -4
-5 -1 -11 6 -13 6 -2 12 -12 14 -21 1 -9 -1 -15 -6 -12 -5 3 -10 1 -12 -4 -1
-5 -10 -2 -18 7 -13 14 -12 15 3 9 9 -3 19 -2 22 3 4 6 2 10 -4 10 -5 0 -17 7
-25 16 -17 16 -13 34 7 34 7 0 6 -4 -3 -10z m61 -9 c24 -20 24 -20 4 -38 -11
-10 -16 -14 -12 -9 4 5 1 16 -6 25 -11 14 -10 14 6 2 11 -9 17 -10 17 -2 0 6
-11 16 -25 21 -14 5 -25 12 -25 15 0 11 19 4 41 -14z m184 -1 c15 -16 21 -18
34 -7 14 11 14 10 2 -5 -12 -16 -11 -18 8 -18 15 0 20 4 15 13 -4 6 -3 8 1 4
5 -4 10 -13 11 -21 3 -19 -41 -8 -62 15 -14 16 -20 17 -33 6 -14 -11 -14 -10
-2 6 9 11 10 17 2 17 -6 0 -16 -12 -22 -26 -5 -15 -12 -24 -16 -21 -7 8 24 57
36 57 4 0 16 -9 26 -20z m220 10 c9 -15 15 -54 7 -46 -4 4 -8 12 -8 17 -1 5
-2 14 -3 19 0 6 -6 10 -12 10 -6 0 -8 -10 -5 -22 3 -13 3 -17 0 -10 -3 6 -10
9 -16 6 -6 -4 -5 2 1 15 13 23 26 27 36 11z m49 2 c2 -4 -5 -9 -17 -9 -17 -2
-19 0 -7 7 18 12 18 12 24 2z m-1429 -11 c3 -5 0 -13 -6 -17 -7 -4 -9 -3 -5 4
3 5 0 13 -6 15 -9 4 -10 6 -1 6 6 1 14 -3 18 -8z m161 -28 c-3 -4 -6 -1 -6 6
0 7 -4 9 -10 6 -6 -4 -7 1 -3 11 6 15 7 15 15 -1 6 -9 7 -19 4 -22z m149 27
c4 -6 -1 -7 -11 -3 -13 5 -15 3 -9 -7 5 -9 4 -11 -3 -6 -7 4 -12 11 -12 17 0
12 27 12 35 -1z m99 -20 c-6 -6 -10 -3 -10 10 0 13 4 16 10 10 7 -7 7 -13 0
-20z m72 15 c-3 -8 -1 -15 4 -15 6 0 10 -4 10 -10 0 -17 -14 -11 -28 11 -8 12
-9 18 -3 14 6 -3 11 -1 11 4 0 6 3 11 6 11 3 0 4 -7 0 -15z m614 6 c0 -6 -5
-13 -12 -17 -7 -5 -8 -3 -3 6 6 10 4 12 -9 7 -10 -4 -15 -3 -11 3 8 13 35 13
35 1z m-1120 -21 c0 -5 -4 -10 -10 -10 -5 0 -10 5 -10 10 0 6 5 10 10 10 6 0
10 -4 10 -10z m53 -9 c-4 -4 -21 -13 -38 -19 -28 -11 -28 -11 -11 3 11 8 26
15 34 15 7 0 10 5 6 12 -5 7 -3 8 5 3 7 -4 9 -10 4 -14z m309 12 c-6 -2 -10
-9 -7 -14 4 -5 -1 -6 -10 -2 -13 5 -14 7 -3 14 7 5 18 8 23 8 6 0 4 -3 -3 -6z
m716 -2 c11 -7 10 -9 -3 -14 -9 -4 -14 -3 -10 2 3 5 -1 12 -7 14 -7 3 -8 6 -3
6 6 0 16 -3 23 -8z m298 -37 c1 -8 -2 -12 -7 -8 -5 3 -7 9 -4 14 3 4 -2 10
-10 14 -8 3 -15 10 -15 16 0 15 34 -19 36 -36z m-1166 21 c-7 -8 -8 -15 -2
-15 5 0 15 7 22 15 10 12 16 13 24 5 17 -18 -21 -42 -46 -29 -14 7 -20 6 -24
-6 -3 -8 -11 -15 -16 -15 -7 0 -6 5 1 13 8 11 5 14 -19 14 -24 0 -27 -3 -19
-14 7 -8 8 -13 1 -13 -5 0 -12 7 -16 15 -8 22 29 39 54 25 16 -9 22 -8 26 5 3
8 11 15 16 15 6 0 5 -6 -2 -15z m710 5 c0 -5 -4 -10 -10 -10 -5 0 -10 5 -10
10 0 6 5 10 10 10 6 0 10 -4 10 -10z m117 -31 c-8 -12 -14 -14 -18 -7 -4 6 -2
19 4 29 8 12 14 14 18 7 4 -6 2 -19 -4 -29z m158 11 c-3 -4 2 -10 10 -14 16
-6 10 -36 -7 -36 -6 0 -5 6 2 15 8 10 9 15 2 15 -6 0 -16 -9 -22 -20 -9 -16
-8 -20 5 -20 9 0 18 -7 21 -15 4 -8 11 -12 18 -9 6 4 4 -1 -5 -11 -16 -16 -18
-16 -42 0 -24 15 -26 15 -35 -2 -6 -10 -13 -16 -15 -13 -3 3 1 14 8 24 13 18
16 18 39 2 31 -20 37 -20 30 -1 -4 8 -12 15 -19 15 -7 0 -19 8 -26 18 -7 9 -9
14 -5 10 5 -4 15 0 21 9 11 14 10 19 -3 29 -8 6 -12 16 -8 23 6 9 11 9 22 0 7
-6 12 -15 9 -19z m145 1 c0 -10 -25 -21 -43 -20 -7 0 -1 5 12 10 23 9 24 10 5
25 -18 14 -18 15 4 4 12 -6 22 -15 22 -19z m-1360 -3 c0 -6 -6 -5 -15 2 -8 7
-15 14 -15 16 0 2 7 1 15 -2 8 -4 15 -11 15 -16z m335 3 c-3 -6 -11 -11 -16
-11 -5 0 -4 6 3 14 14 16 24 13 13 -3z m237 -13 c-8 -10 -4 -20 13 -40 13 -15
26 -24 29 -20 4 3 4 -2 0 -12 -5 -12 -9 -14 -14 -6 -5 8 -12 5 -24 -11 -9 -13
-16 -18 -16 -12 0 6 7 16 15 23 8 7 15 17 15 23 0 6 -11 0 -24 -12 -25 -24
-56 -25 -64 -3 -2 6 1 12 8 12 6 0 8 -4 5 -10 -10 -17 27 -11 47 7 18 16 18
17 -3 39 -18 20 -20 26 -9 39 9 11 16 13 23 6 7 -7 7 -14 -1 -23z m573 9 c6
-5 3 -7 -7 -3 -10 3 -20 1 -23 -4 -3 -5 3 -11 14 -15 23 -7 35 -32 20 -41 -6
-3 -13 -3 -16 0 -4 3 -1 6 6 6 7 0 9 5 6 10 -4 6 -11 7 -17 4 -6 -4 -8 -2 -4
4 3 5 1 12 -6 14 -6 2 -12 12 -14 21 -1 9 2 15 7 11 5 -3 9 0 9 7 0 7 3 8 8 3
4 -5 12 -13 17 -17z m-1060 3 c-3 -5 -12 -10 -18 -10 -7 0 -6 4 3 10 19 12 23
12 15 0z m35 5 c0 -3 -9 -14 -20 -25 -23 -23 -26 -19 -8 10 12 18 28 27 28 15z
m328 -6 c-2 -6 3 -14 11 -17 9 -3 11 0 6 8 -5 8 -4 11 3 6 6 -3 13 -2 17 4 3
5 11 10 18 10 6 0 -3 -11 -21 -23 -17 -13 -29 -27 -25 -31 4 -4 0 -4 -10 0
-14 5 -16 2 -11 -12 6 -16 5 -17 -7 -6 -12 11 -11 15 4 27 12 8 14 15 8 20
-14 8 -14 25 -1 25 6 0 9 -5 8 -11z m192 1 c0 -5 -4 -10 -10 -10 -5 0 -10 5
-10 10 0 6 5 10 10 10 6 0 10 -4 10 -10z m40 0 c0 -5 -4 -10 -10 -10 -5 0 -10
5 -10 10 0 6 5 10 10 10 6 0 10 -4 10 -10z m68 -10 c7 -11 10 -20 6 -20 -7 0
-34 27 -34 34 0 13 16 5 28 -14z m48 11 c-3 -5 1 -11 9 -15 8 -3 15 -10 15
-16 0 -5 -9 -2 -20 7 -22 19 -26 33 -9 33 5 0 8 -4 5 -9z m44 -1 c0 -5 8 -10
17 -10 9 0 14 -3 10 -6 -8 -8 -47 5 -47 17 0 5 5 9 10 9 6 0 10 -4 10 -10z
m76 -1 c3 -6 1 -16 -6 -22 -10 -9 -12 -8 -6 7 5 14 2 17 -9 12 -8 -3 -15 -1
-15 4 0 14 27 13 36 -1z m392 0 c-9 -5 -16 -15 -14 -22 1 -6 1 -9 -1 -4 -11
19 -23 5 -13 -15 10 -21 10 -21 -3 -6 -8 10 -16 17 -18 15 -3 -1 7 8 21 20 14
13 30 23 35 23 6 0 2 -5 -7 -11z m-221 -6 c-4 -3 -1 -13 6 -22 11 -14 10 -14
-5 -2 -12 9 -18 10 -18 2 0 -6 11 -16 25 -21 14 -5 25 -12 25 -15 0 -11 -19
-4 -41 14 -20 16 -21 21 -10 35 7 9 16 16 19 16 3 0 2 -3 -1 -7z m-1026 -27
c7 -14 17 -22 25 -19 8 3 14 3 14 0 0 -3 -7 -8 -15 -11 -10 -4 -20 3 -27 19
-6 14 -15 25 -20 25 -5 0 -6 -5 -2 -12 4 -7 3 -8 -5 -4 -6 4 -9 12 -6 17 10
16 25 10 36 -15z m239 14 c0 -5 -4 -10 -10 -10 -5 0 -10 5 -10 10 0 6 5 10 10
10 6 0 10 -4 10 -10z m55 0 c-3 -5 -12 -10 -20 -10 -17 0 -27 -27 -12 -34 8
-3 8 -5 1 -5 -6 -1 -18 7 -25 17 -7 9 -10 14 -5 10 4 -3 16 2 27 13 20 20 45
26 34 9z m175 -16 c0 5 7 3 15 -4 8 -7 12 -16 9 -21 -9 -16 -24 -10 -36 16
-11 25 -31 25 -21 0 3 -10 -1 -15 -13 -15 -16 0 -17 2 -4 10 8 5 11 10 6 10
-5 0 -3 7 5 16 12 14 14 14 26 -2 7 -10 13 -14 13 -10z m92 4 c13 -23 53 -36
45 -14 -3 6 -10 10 -16 9 -6 -2 -11 2 -11 7 0 13 17 13 25 -1 5 -6 12 -4 20 8
12 15 16 16 27 4 11 -12 10 -13 -6 -7 -14 5 -17 3 -12 -11 4 -10 4 -14 0 -10
-4 4 -14 -3 -22 -15 -12 -16 -12 -23 -4 -26 7 -2 12 -8 12 -14 0 -6 -6 -5 -15
2 -9 7 -13 20 -10 28 3 10 0 12 -10 9 -8 -4 -19 1 -24 11 -6 9 -11 13 -11 8 0
-5 -7 -3 -15 4 -8 7 -12 16 -9 21 9 15 23 10 36 -13z m338 13 c0 -5 -9 -19
-19 -32 -19 -23 -19 -24 -40 -5 -12 11 -21 24 -21 30 0 6 5 3 11 -7 9 -15 13
-16 27 -5 15 12 16 11 3 -4 -9 -12 -10 -18 -2 -18 6 0 16 11 21 25 9 25 20 33
20 16z m55 -1 c-3 -5 -1 -10 6 -10 7 0 10 -2 7 -5 -3 -3 -13 -2 -22 1 -14 5
-15 9 -4 15 17 11 20 11 13 -1z m165 0 c0 -5 -4 -10 -10 -10 -5 0 -10 5 -10
10 0 6 5 10 10 10 6 0 10 -4 10 -10z m-1058 -25 c-8 -16 -9 -16 -15 -1 -4 10
-3 15 3 11 6 -3 10 -1 10 6 0 7 3 10 6 6 3 -3 2 -13 -4 -22z m109 10 c5 4 6
-1 2 -10 -5 -13 -7 -14 -14 -3 -5 7 -8 18 -8 23 0 6 3 4 6 -3 2 -6 9 -10 14
-7z m145 -4 c0 -11 -4 -17 -8 -15 -4 3 -8 0 -8 -5 0 -6 -5 -11 -10 -11 -6 0
-3 11 6 25 20 30 20 30 20 6z m57 -53 c6 -4 8 -10 5 -14 -8 -8 -48 55 -48 76
1 8 8 -1 16 -20 8 -19 20 -38 27 -42z m359 58 c6 4 5 -2 -1 -15 -7 -11 -16
-21 -21 -21 -5 0 -8 -6 -6 -12 1 -7 1 -10 -1 -5 -3 4 -9 4 -15 1 -5 -3 -4 3 3
14 7 12 17 18 22 15 5 -3 6 5 3 18 -3 13 -3 18 0 11 3 -6 10 -9 16 -6z m588
10 c0 -2 -6 -9 -14 -15 -11 -9 -16 -9 -22 0 -4 8 -3 9 4 5 7 -4 12 -2 12 3 0
6 5 11 10 11 6 0 10 -2 10 -4z m-1106 -21 c5 -15 -30 -42 -42 -31 -3 3 0 6 7
6 7 0 9 4 6 10 -4 6 1 7 12 3 16 -6 16 -5 4 10 -7 9 -9 17 -3 17 5 0 12 -7 16
-15z m574 -6 c-12 -10 -25 -15 -28 -12 -3 3 1 8 8 10 6 3 10 8 8 12 -3 4 4 7
15 7 19 0 18 -1 -3 -17z m126 9 c-5 -8 -2 -9 10 -5 10 4 15 3 11 -3 -7 -12
-35 -13 -35 -2 0 9 10 22 17 22 2 0 1 -5 -3 -12z m357 -5 c13 -16 12 -17 -3
-4 -17 13 -22 21 -14 21 2 0 10 -8 17 -17z m-1148 0 c-7 -2 -19 -2 -25 0 -7 3
-2 5 12 5 14 0 19 -2 13 -5z m560 0 c-7 -2 -19 -2 -25 0 -7 3 -2 5 12 5 14 0
19 -2 13 -5z m311 -26 c-5 -18 -4 -20 7 -9 23 21 30 13 7 -10 -19 -19 -20 -22
-5 -33 10 -7 17 -16 17 -20 0 -4 -8 -1 -17 6 -15 12 -16 12 -11 -2 4 -9 1 -22
-5 -29 -9 -9 -8 -11 7 -8 10 2 21 -4 23 -12 3 -9 1 -11 -4 -5 -12 15 -45 15
-40 1 3 -7 1 -19 -3 -27 -7 -10 -9 -7 -8 11 1 14 6 31 11 38 5 6 6 12 3 12 -4
0 -2 9 4 20 9 16 8 22 -5 26 -8 3 -15 11 -15 16 0 7 5 6 13 -1 11 -8 14 -5 14
19 0 24 -3 27 -14 19 -8 -8 -13 -8 -13 -1 0 12 21 21 33 15 4 -3 5 -14 1 -26z
m-904 -3 c0 -17 -16 -19 -26 -2 -5 7 -3 8 6 3 10 -6 12 -4 7 9 -4 10 -3 15 3
11 6 -3 10 -13 10 -21z m53 9 c-5 -12 -3 -14 8 -8 11 6 12 5 2 -5 -7 -8 -16
-11 -19 -7 -7 6 2 37 10 37 3 0 2 -7 -1 -17z m667 -12 c-6 -12 -15 -21 -21
-21 -6 0 -7 -6 -3 -12 5 -9 2 -9 -9 1 -9 7 -17 19 -17 25 0 8 3 7 8 -1 9 -15
26 -5 35 21 4 10 10 16 13 13 3 -3 1 -15 -6 -26z m390 19 c0 -5 -4 -10 -10
-10 -5 0 -10 5 -10 10 0 6 5 10 10 10 6 0 10 -4 10 -10z m60 -18 c0 -15 -2
-15 -10 -2 -13 20 -13 33 0 25 6 -3 10 -14 10 -23z m-863 -14 c-3 -7 -5 -2 -5
12 0 14 2 19 5 13 2 -7 2 -19 0 -25z m257 16 c3 -8 2 -13 -3 -9 -5 3 -11 0
-13 -7 -3 -7 -7 -5 -11 6 -4 10 -3 15 3 11 6 -3 10 -1 10 4 0 16 7 13 14 -5z
m293 -16 c-3 -7 -5 -2 -5 12 0 14 2 19 5 13 2 -7 2 -19 0 -25z m-699 2 c7 -11
8 -20 3 -20 -5 0 -12 7 -15 15 -5 13 -10 14 -28 5 -22 -11 -22 -10 -4 4 25 20
29 20 44 -4z m94 -2 c7 -13 13 -25 14 -28 0 -3 4 -13 9 -23 5 -12 2 -22 -11
-32 -20 -14 -34 -11 -34 8 0 8 3 8 9 -2 6 -9 11 -10 15 -2 4 6 0 14 -8 17 -9
3 -16 11 -16 17 0 5 9 2 20 -8 11 -10 20 -13 20 -7 0 6 -5 14 -10 17 -6 4 -8
10 -6 14 3 4 -4 18 -15 29 -11 12 -15 22 -10 22 6 0 16 -10 23 -22z m408 12
c0 -5 -2 -10 -4 -10 -3 0 -8 5 -11 10 -3 6 -1 10 4 10 6 0 11 -4 11 -10z m82
-12 c-7 -7 -12 -8 -12 -2 0 14 12 26 19 19 2 -3 -1 -11 -7 -17z m68 12 c0 -5
-4 -10 -10 -10 -5 0 -10 5 -10 10 0 6 5 10 10 10 6 0 10 -4 10 -10z m330 0 c0
-5 -2 -10 -4 -10 -3 0 -8 5 -11 10 -3 6 -1 10 4 10 6 0 11 -4 11 -10z m-950
-10 c0 -5 -2 -10 -4 -10 -3 0 -8 5 -11 10 -3 6 -1 10 4 10 6 0 11 -4 11 -10z
m292 -12 c-7 -7 -12 -8 -12 -2 0 14 12 26 19 19 2 -3 -1 -11 -7 -17z m508 18
c0 -3 -4 -8 -10 -11 -5 -3 -10 -1 -10 4 0 6 5 11 10 11 6 0 10 -2 10 -4z
m-960 -15 c0 -5 -7 -11 -14 -14 -10 -4 -13 -1 -9 9 6 15 23 19 23 5z m55 -1
c-3 -5 -12 -10 -20 -10 -8 0 -19 -8 -24 -17 -6 -10 -11 -13 -11 -6 0 6 10 19
22 27 25 18 42 21 33 6z m141 1 c-4 -5 0 -12 6 -15 7 -3 2 -3 -11 0 -13 3 -21
2 -18 -3 3 -5 -3 -15 -15 -22 -11 -7 -17 -8 -14 -3 3 6 1 13 -4 15 -6 3 -5 4
2 3 6 -1 20 6 30 16 19 19 33 24 24 9z m413 -24 c-12 -9 -13 -17 -4 -33 11
-22 35 -21 35 1 0 19 13 25 29 16 11 -7 11 -13 1 -27 -9 -16 -11 -16 -6 -2 3
10 1 20 -4 23 -6 4 -10 -1 -10 -10 0 -8 -7 -18 -15 -21 -8 -4 -12 -11 -8 -17
4 -6 1 -7 -6 -3 -7 5 -16 19 -21 32 -5 13 -15 24 -21 24 -8 0 -7 -5 2 -17 11
-15 11 -16 0 -6 -7 6 -20 9 -27 6 -8 -3 -14 0 -14 6 0 6 3 10 8 9 14 -3 42 14
36 23 -3 5 2 6 11 3 11 -5 14 -2 9 12 -6 16 -5 17 7 6 12 -11 12 -15 -2 -25z
m157 8 c9 -14 14 -28 11 -32 -4 -3 -11 6 -16 21 -6 14 -16 26 -22 26 -8 0 -7
-6 2 -17 12 -16 12 -17 -2 -6 -9 7 -20 9 -25 5 -4 -4 -2 1 5 11 18 23 28 22
47 -8z m149 3 c-9 -6 -19 -7 -22 -4 -4 3 -1 6 6 6 7 0 9 4 6 10 -4 6 1 7 11 3
15 -6 15 -7 -1 -15z m180 12 c3 -5 1 -10 -4 -10 -6 0 -11 5 -11 10 0 6 2 10 4
10 3 0 8 -4 11 -10z m-993 -25 c-8 -16 -9 -16 -15 -1 -4 10 -3 15 3 11 6 -3
10 -1 10 6 0 7 3 10 6 6 3 -3 2 -13 -4 -22z m218 14 c0 -5 -4 -7 -10 -4 -5 3
-10 2 -10 -4 0 -6 -10 -15 -21 -22 -13 -6 -19 -7 -15 -1 3 6 0 13 -6 16 -7 3
-2 3 11 0 15 -4 21 -2 17 4 -3 6 0 13 6 15 21 9 28 8 28 -4z m238 4 c-10 -2
-18 -8 -18 -13 0 -5 -10 -14 -21 -21 -13 -6 -19 -7 -15 -1 3 6 0 13 -6 16 -7
3 -2 3 11 0 15 -4 21 -2 17 4 -7 11 10 21 34 20 10 0 9 -2 -2 -5z m257 -3 c4
-6 -1 -7 -11 -3 -13 5 -15 3 -9 -7 5 -9 4 -11 -3 -6 -7 4 -12 11 -12 17 0 12
27 12 35 -1z m196 -5 c5 4 6 -1 2 -10 -5 -13 -7 -14 -14 -3 -5 7 -8 18 -8 23
0 6 3 4 6 -3 2 -6 9 -10 14 -7z m-937 -11 c3 -8 2 -12 -4 -9 -6 3 -10 10 -10
16 0 14 7 11 14 -7z m286 2 c-7 -7 -13 -7 -20 0 -6 6 -3 10 10 10 13 0 16 -4
10 -10z m60 4 c0 -5 6 -8 13 -6 6 1 9 1 4 -1 -4 -3 -4 -9 -1 -15 3 -5 -3 -4
-15 4 -22 14 -28 28 -11 28 6 0 10 -4 10 -10z m58 3 c-1 -5 4 -19 11 -32 10
-18 10 -25 0 -35 -9 -8 -11 -7 -6 6 3 9 -1 24 -8 35 -17 22 -19 33 -5 33 6 0
9 -3 8 -7z m153 -20 c-12 -20 -14 -14 -5 12 4 9 9 14 11 11 3 -2 0 -13 -6 -23z
m69 17 c0 -5 -4 -10 -10 -10 -5 0 -10 5 -10 10 0 6 5 10 10 10 6 0 10 -4 10
-10z m262 -8 c-7 -2 -9 -8 -6 -14 4 -6 -2 -5 -15 1 -25 14 -28 23 -4 14 11 -4
14 -3 9 5 -5 8 -1 10 10 5 11 -4 13 -8 6 -11z m-120 1 c-6 -2 -10 -9 -7 -14 4
-5 -1 -6 -10 -2 -13 5 -14 7 -3 14 7 5 18 8 23 8 6 0 4 -3 -3 -6z m-787 -13
c8 -13 -5 -13 -25 0 -13 8 -13 10 2 10 9 0 20 -4 23 -10z m73 -21 c-3 -8 -7
-3 -11 10 -4 17 -3 21 5 13 5 -5 8 -16 6 -23z m237 21 c10 9 15 9 15 1 0 -6
-5 -11 -11 -11 -5 0 -7 -4 -4 -10 3 -5 3 -10 -2 -10 -12 1 -43 26 -43 35 0 4
7 2 15 -5 12 -10 18 -10 30 0z m375 -15 c5 -14 15 -25 21 -25 8 0 7 6 -2 18
-13 15 -12 16 3 4 14 -11 18 -10 27 5 6 10 11 13 11 6 0 -6 -11 -20 -25 -31
-13 -11 -21 -22 -17 -26 3 -4 -1 -4 -11 0 -14 5 -16 2 -11 -12 6 -16 5 -17 -7
-6 -12 11 -12 15 2 25 12 10 13 16 3 35 l-11 23 -21 -28 c-12 -15 -22 -23 -22
-17 0 10 36 54 46 54 2 0 9 -11 14 -25z m243 8 c-5 -12 -3 -14 7 -8 9 6 11 4
5 -4 -5 -9 -11 -9 -17 -3 -6 6 -7 15 -4 21 11 17 16 13 9 -6z m64 11 c-3 -3
-12 -4 -19 -1 -8 3 -5 6 6 6 11 1 17 -2 13 -5z m-860 -26 c-3 -8 -6 -5 -6 6
-1 11 2 17 5 13 3 -3 4 -12 1 -19z m119 -5 c-4 -4 -12 -1 -19 7 -9 10 -9 11 1
6 7 -4 12 -2 13 6 0 11 2 11 6 0 3 -7 2 -16 -1 -19z m105 12 c5 4 6 -1 2 -11
-5 -14 -3 -15 15 -5 12 7 22 17 22 24 0 7 5 4 11 -6 6 -10 8 -21 5 -24 -3 -4
-6 -1 -6 5 0 9 -5 9 -19 0 -11 -7 -17 -17 -15 -23 3 -5 -3 0 -14 12 -11 12
-23 19 -26 15 -4 -3 -4 2 0 13 5 11 9 14 12 7 2 -7 8 -10 13 -7z m509 0 c0 -8
-4 -15 -10 -15 -5 0 -7 7 -4 15 4 8 8 15 10 15 2 0 4 -7 4 -15z m-816 -6 c-2
-4 4 -12 13 -18 10 -6 14 -11 10 -11 -5 0 -20 9 -34 19 -22 18 -22 20 -4 18
11 0 18 -4 15 -8z m731 -7 c-3 -3 -11 0 -18 7 -9 10 -8 11 6 5 10 -3 15 -9 12
-12z m103 -12 c-7 -11 -14 -17 -17 -15 -2 3 1 11 7 18 7 8 8 18 4 22 -4 5 -1
5 5 1 10 -5 10 -11 1 -26z m-758 -18 c0 -15 -2 -15 -10 -2 -13 20 -13 33 0 25
6 -3 10 -14 10 -23z m100 18 c0 -5 -4 -10 -10 -10 -5 0 -10 5 -10 10 0 6 5 10
10 10 6 0 10 -4 10 -10z m55 0 c-3 -5 -12 -10 -20 -10 -17 0 -27 -27 -12 -34
8 -3 8 -5 1 -5 -6 -1 -18 7 -25 17 -7 9 -10 14 -5 10 4 -3 16 2 27 13 20 20
45 26 34 9z m197 -7 c-6 -3 -10 -8 -8 -12 3 -4 -4 -7 -15 -7 -19 0 -18 1 3 17
12 10 25 15 28 12 3 -3 -1 -8 -8 -10z m58 -9 c0 5 7 3 15 -4 8 -7 12 -16 9
-21 -9 -16 -24 -10 -36 16 -6 13 -15 22 -21 18 -6 -4 -7 -1 -2 7 6 10 11 9 22
-5 7 -11 13 -15 13 -11z m121 -1 c-12 -20 -14 -14 -5 12 4 9 9 14 11 11 3 -2
0 -13 -6 -23z m119 -17 c-1 -6 -6 -1 -13 12 -14 24 -30 21 -20 -4 3 -8 -1 -14
-11 -14 -9 0 -15 -5 -13 -11 1 -6 -7 -13 -18 -15 -17 -2 -16 1 8 22 15 13 25
24 21 24 -3 0 -1 7 7 16 12 14 14 14 26 -2 7 -10 13 -23 13 -28z m-441 13 c1
8 3 12 6 9 3 -3 2 -13 -1 -22 -5 -14 -9 -15 -15 -4 -5 7 -8 20 -8 28 0 10 3 8
9 -5 5 -12 9 -14 9 -6z m-164 1 c9 14 22 12 29 -5 3 -9 -3 -19 -17 -25 -20
-10 -20 -10 -5 3 10 8 15 17 11 20 -3 4 -12 2 -18 -3 -9 -7 -17 -5 -26 7 -13
16 -12 17 3 5 11 -9 18 -10 23 -2z m235 0 c0 -5 -4 -10 -10 -10 -5 0 -10 5
-10 10 0 6 5 10 10 10 6 0 10 -4 10 -10z m200 0 c0 -5 -4 -10 -10 -10 -5 0
-10 5 -10 10 0 6 5 10 10 10 6 0 10 -4 10 -10z m-182 -23 c0 -21 -5 -24 -36
-23 -19 1 -37 6 -39 13 -7 19 15 24 32 6 14 -14 18 -14 26 -2 5 8 9 17 9 22 0
19 8 4 8 -16z m82 13 c0 -5 -4 -10 -10 -10 -5 0 -10 5 -10 10 0 6 5 10 10 10
6 0 10 -4 10 -10z m153 -24 c3 3 8 1 11 -4 3 -6 -2 -9 -11 -8 -9 2 -19 8 -21
14 -2 6 -9 9 -17 6 -8 -3 -11 -13 -8 -22 4 -15 3 -15 -6 -2 -8 11 -7 18 4 26
8 6 14 13 12 15 -1 3 5 -3 14 -13 9 -9 19 -15 22 -12z m-363 14 c-20 -13 -33
-13 -25 0 3 6 14 10 23 10 15 0 15 -2 2 -10z m180 -10 c13 -9 13 -11 0 -20 -8
-5 -22 -9 -30 -9 -11 1 -10 3 3 6 9 2 17 8 17 13 0 5 -8 11 -17 13 -13 3 -14
5 -3 6 8 0 22 -4 30 -9z m110 0 c0 -5 -5 -10 -11 -10 -5 0 -7 5 -4 10 3 6 8
10 11 10 2 0 4 -4 4 -10z m-355 -10 c3 -6 -1 -7 -9 -4 -18 7 -21 14 -7 14 6 0
13 -4 16 -10z m90 -1 c11 -16 1 -19 -13 -3 -7 8 -8 14 -3 14 5 0 13 -5 16 -11z
m205 1 c0 -5 -4 -10 -10 -10 -5 0 -10 5 -10 10 0 6 5 10 10 10 6 0 10 -4 10
-10z m64 -19 c-8 -8 -43 -8 -38 0 2 4 13 7 24 6 10 -1 17 -3 14 -6z m-164 -11
c0 -5 -7 -7 -15 -4 -8 4 -15 8 -15 10 0 2 7 4 15 4 8 0 15 -4 15 -10z m85 0
c3 -6 -1 -7 -9 -4 -18 7 -21 14 -7 14 6 0 13 -4 16 -10z"/>
<path d="M1195 2270 c-3 -5 -2 -10 4 -10 5 0 13 5 16 10 3 6 2 10 -4 10 -5 0
-13 -4 -16 -10z"/>
<path d="M1345 2270 c3 -5 11 -10 16 -10 6 0 7 5 4 10 -3 6 -11 10 -16 10 -6
0 -7 -4 -4 -10z"/>
<path d="M840 2149 c0 -5 5 -7 10 -4 6 3 10 8 10 11 0 2 -4 4 -10 4 -5 0 -10
-5 -10 -11z"/>
<path d="M1400 2069 c0 -5 5 -7 10 -4 6 3 10 8 10 11 0 2 -4 4 -10 4 -5 0 -10
-5 -10 -11z"/>
<path d="M1027 2103 c-4 -3 -7 -11 -7 -17 0 -6 5 -5 12 2 6 6 9 14 7 17 -3 3
-9 2 -12 -2z"/>
<path d="M1465 2050 c-3 -5 -1 -10 4 -10 6 0 11 5 11 10 0 6 -2 10 -4 10 -3 0
-8 -4 -11 -10z"/>
<path d="M1687 2113 c-4 -3 -7 -11 -7 -17 0 -6 5 -5 12 2 6 6 9 14 7 17 -3 3
-9 2 -12 -2z"/>
<path d="M585 2070 c3 -5 8 -10 11 -10 2 0 4 5 4 10 0 6 -5 10 -11 10 -5 0 -7
-4 -4 -10z"/>
<path d="M1805 2070 c-3 -5 -1 -10 4 -10 6 0 11 5 11 10 0 6 -2 10 -4 10 -3 0
-8 -4 -11 -10z"/>
<path d="M507 2033 c-4 -3 -7 -11 -7 -17 0 -6 5 -5 12 2 6 6 9 14 7 17 -3 3
-9 2 -12 -2z"/>
<path d="M525 1990 c-3 -5 -1 -10 4 -10 6 0 11 5 11 10 0 6 -2 10 -4 10 -3 0
-8 -4 -11 -10z"/>
<path d="M765 1990 c-3 -5 -1 -10 4 -10 6 0 11 5 11 10 0 6 -2 10 -4 10 -3 0
-8 -4 -11 -10z"/>
<path d="M820 1990 c0 -5 5 -10 11 -10 5 0 7 5 4 10 -3 6 -8 10 -11 10 -2 0
-4 -4 -4 -10z"/>
<path d="M514 1706 c-10 -8 -16 -17 -13 -20 3 -3 14 1 25 8 10 8 16 17 13 20
-3 3 -14 -1 -25 -8z"/>
<path d="M265 1650 c-3 -5 -1 -10 4 -10 6 0 11 5 11 10 0 6 -2 10 -4 10 -3 0
-8 -4 -11 -10z"/>
<path d="M445 1670 c-3 -5 -1 -10 4 -10 6 0 11 5 11 10 0 6 -2 10 -4 10 -3 0
-8 -4 -11 -10z"/>
<path d="M2045 1570 c3 -5 8 -10 11 -10 2 0 4 5 4 10 0 6 -5 10 -11 10 -5 0
-7 -4 -4 -10z"/>
<path d="M2185 1590 c3 -5 8 -10 11 -10 2 0 4 5 4 10 0 6 -5 10 -11 10 -5 0
-7 -4 -4 -10z"/>
<path d="M2260 1489 c0 -5 5 -7 10 -4 6 3 10 8 10 11 0 2 -4 4 -10 4 -5 0 -10
-5 -10 -11z"/>
<path d="M2155 1450 c3 -5 11 -10 16 -10 6 0 7 5 4 10 -3 6 -11 10 -16 10 -6
0 -7 -4 -4 -10z"/>
<path d="M340 1329 c0 -5 5 -7 10 -4 6 3 10 8 10 11 0 2 -4 4 -10 4 -5 0 -10
-5 -10 -11z"/>
<path d="M2260 1249 c0 -5 5 -7 10 -4 6 3 10 8 10 11 0 2 -4 4 -10 4 -5 0 -10
-5 -10 -11z"/>
<path d="M235 1290 c3 -5 11 -10 16 -10 6 0 7 5 4 10 -3 6 -11 10 -16 10 -6 0
-7 -4 -4 -10z"/>
<path d="M2155 1310 c-3 -5 -2 -10 4 -10 5 0 13 5 16 10 3 6 2 10 -4 10 -5 0
-13 -4 -16 -10z"/>
<path d="M280 1170 c0 -5 5 -10 11 -10 5 0 7 5 4 10 -3 6 -8 10 -11 10 -2 0
-4 -4 -4 -10z"/>
<path d="M2025 1170 c-3 -5 -1 -10 4 -10 6 0 11 5 11 10 0 6 -2 10 -4 10 -3 0
-8 -4 -11 -10z"/>
<path d="M2265 1170 c-3 -5 -1 -10 4 -10 6 0 11 5 11 10 0 6 -2 10 -4 10 -3 0
-8 -4 -11 -10z"/>
<path d="M280 1109 c0 -5 5 -7 10 -4 6 3 10 8 10 11 0 2 -4 4 -10 4 -5 0 -10
-5 -10 -11z"/>
<path d="M2075 970 c3 -5 11 -10 16 -10 6 0 7 5 4 10 -3 6 -11 10 -16 10 -6 0
-7 -4 -4 -10z"/>
<path d="M365 930 c3 -5 8 -10 11 -10 2 0 4 5 4 10 0 6 -5 10 -11 10 -5 0 -7
-4 -4 -10z"/>
<path d="M420 849 c0 -5 5 -7 10 -4 6 3 10 8 10 11 0 2 -4 4 -10 4 -5 0 -10
-5 -10 -11z"/>
<path d="M280 869 c0 -5 5 -7 10 -4 6 3 10 8 10 11 0 2 -4 4 -10 4 -5 0 -10
-5 -10 -11z"/>
<path d="M1940 790 c0 -5 5 -10 11 -10 5 0 7 5 4 10 -3 6 -8 10 -11 10 -2 0
-4 -4 -4 -10z"/>
<path d="M2060 750 c0 -5 5 -10 11 -10 5 0 7 5 4 10 -3 6 -8 10 -11 10 -2 0
-4 -4 -4 -10z"/>
<path d="M420 609 c0 -5 5 -7 10 -4 6 3 10 8 10 11 0 2 -4 4 -10 4 -5 0 -10
-5 -10 -11z"/>
<path d="M1480 530 c0 -5 5 -10 11 -10 5 0 7 5 4 10 -3 6 -8 10 -11 10 -2 0
-4 -4 -4 -10z"/>
<path d="M1305 450 c-3 -5 -1 -10 4 -10 6 0 11 5 11 10 0 6 -2 10 -4 10 -3 0
-8 -4 -11 -10z"/>
<path d="M1145 450 c-3 -5 -1 -10 4 -10 6 0 11 5 11 10 0 6 -2 10 -4 10 -3 0
-8 -4 -11 -10z"/>
<path d="M800 425 c-11 -13 -10 -14 4 -9 9 3 16 10 16 15 0 13 -6 11 -20 -6z"/>
<path d="M1740 430 c0 -5 5 -10 11 -10 5 0 7 5 4 10 -3 6 -8 10 -11 10 -2 0
-4 -4 -4 -10z"/>
<path d="M1107 423 c-4 -3 -7 -11 -7 -17 0 -6 5 -5 12 2 6 6 9 14 7 17 -3 3
-9 2 -12 -2z"/>
<path d="M1080 370 c0 -5 5 -10 11 -10 5 0 7 5 4 10 -3 6 -8 10 -11 10 -2 0
-4 -4 -4 -10z"/>
<path d="M1145 390 c3 -5 8 -10 11 -10 2 0 4 5 4 10 0 6 -5 10 -11 10 -5 0 -7
-4 -4 -10z"/>
<path d="M1320 210 c0 -5 5 -10 11 -10 5 0 7 5 4 10 -3 6 -8 10 -11 10 -2 0
-4 -4 -4 -10z"/>
<path d="M1140 190 c0 -5 5 -10 11 -10 5 0 7 5 4 10 -3 6 -8 10 -11 10 -2 0
-4 -4 -4 -10z"/>
</g>
</svg>
