<?xml version="1.0" encoding="UTF-8" standalone="no"?>
<svg
   xmlns:dc="http://purl.org/dc/elements/1.1/"
   xmlns:cc="http://creativecommons.org/ns#"
   xmlns:rdf="http://www.w3.org/1999/02/22-rdf-syntax-ns#"
   xmlns:svg="http://www.w3.org/2000/svg"
   xmlns="http://www.w3.org/2000/svg"
   viewBox="0 0 3669.3333 3778.6667"
   height="3778.6667"
   width="3669.3333"
   xml:space="preserve"
   id="svg2"
   version="1.1"><metadata
     id="metadata8"><rdf:RDF><cc:Work
         rdf:about=""><dc:format>image/svg+xml</dc:format><dc:type
           rdf:resource="http://purl.org/dc/dcmitype/StillImage" /></cc:Work></rdf:RDF></metadata><defs
     id="defs6" /><g
     transform="matrix(1.3333333,0,0,-1.3333333,0,3778.6667)"
     id="g10"><g
       transform="scale(0.1)"
       id="g12"><g
         transform="scale(1.52399)"
         id="g14"><path
           id="path16"
           style="fill:#2b3a40;fill-opacity:1;fill-rule:nonzero;stroke:none"
           d="M 11871.5,5746.69 C 9373.42,4239.66 6126.61,5043.01 4619.56,7541.06 3112.51,10039.1 3915.88,13285.9 6413.94,14792.9 8912,16300 12158.8,15496.6 13665.8,12998.6 15172.9,10500.5 14369.5,7253.72 11871.5,5746.69" /></g><g
         transform="scale(1.58405)"
         id="g18"><path
           id="path20"
           style="fill:#ffa021;fill-opacity:1;fill-rule:nonzero;stroke:none"
           d="m 9941.42,12178.7 c 529.18,-285.7 809.48,-689.2 952.48,-900.3 198.1,-292.2 309.2,-564.9 372.2,-753.1 75.1,-267.7 153.7,-673.84 115.6,-1165.81 -26.6,-343.1 -102.3,-629.65 -177.3,-844.48 1101.8,-566.39 2203.8,-1132.72 3305.6,-1699.06 1588,3076.86 483.7,6887.55 -2550.6,8624.65 -980.4,561.3 -2045.63,839 -3100.77,859.4 8.39,-1275.4 16.79,-2550.7 25.25,-3826.1 v 0 c 263,-14.8 651.43,-76 1057.54,-295.2" /></g><g
         transform="scale(1.57884)"
         id="g22"><path
           id="path24"
           style="fill:#004266;fill-opacity:1;fill-rule:nonzero;stroke:none"
           d="m 6177.38,9640.88 c 10.46,1152.12 772.6,1980.22 772.6,1980.22 622.93,676.8 1378.86,850.5 1636.14,897.9 -13.05,1260.3 -26.03,2520.7 -39.02,3781 -3470.15,-162.7 -6228.02,-3033.1 -6216.24,-6540.93 3.8,-1133.49 296.51,-2198.39 807.88,-3125.53 1083.49,647.57 2166.98,1295.19 3250.45,1942.82 -22.74,50.8 -44.85,105.71 -65.34,164.74 -8.95,25.72 -17.16,50.99 -24.7,75.69 0,0 -125.82,377.56 -121.77,824.09" /></g><g
         transform="scale(1.39234)"
         id="g26"><path
           id="path28"
           style="fill:#ff3f1e;fill-opacity:1;fill-rule:nonzero;stroke:none"
           d="m 11628,8657.82 c -1139.4,-639.29 -2383.83,-356.31 -2383.83,-356.31 -301.44,74.69 -750.32,226.52 -1212.5,553.53 -299.64,212.09 -521.35,438.68 -678.42,626.71 C 6148.98,8732.8 4944.67,7983.84 3740.37,7234.89 5856.89,3912.49 10235.8,2817.42 13680.4,4806.74 c 1113,642.8 1995.7,1531.16 2619.6,2556.99 -1268.6,671.89 -2537.2,1343.79 -3805.8,2015.68 -0.7,0.36 -1.5,0.21 -2,-0.36 l -122.1,-136.82 c 0,0 -300.5,-336.7 -742.1,-584.41" /></g><g
         transform="scale(1.26499)"
         id="g30"><path
           id="path32"
           style="fill:#2b3a40;fill-opacity:1;fill-rule:nonzero;stroke:none"
           d="m 14737,12322.6 c -82.5,-2068.7 -1826.3,-3678.78 -3895,-3596.33 -2068.62,82.45 -3678.75,1826.33 -3596.26,3895.03 82.47,2068.6 1826.3,3678.7 3894.96,3596.2 2068.6,-82.5 3678.8,-1826.3 3596.3,-3894.9" /></g><g
         transform="scale(1.25084)"
         id="g34"><path
           id="path36"
           style="fill:#004266;fill-opacity:1;fill-rule:nonzero;stroke:none"
           d="m 4286.04,13653.3 c -139.12,-10.5 -278.25,-21.2 -417.37,-31.7 -50.11,120.4 -100.23,240.9 -150.34,361.5 105.05,76.7 210.11,153.5 315.17,230.2 -20.02,96.4 -29.43,193.3 -28.87,289.4 -117.78,65.4 -235.55,130.9 -353.34,196.3 28.95,126.9 57.89,253.8 86.84,380.7 134.55,6.2 269.1,12.3 403.65,18.5 44.05,92.5 98.2,180.6 161.79,262.5 -56.34,114.9 -112.68,229.7 -169.03,344.5 98.48,88.4 196.95,176.8 295.43,265.3 116.64,-70.6 233.27,-141.1 349.91,-211.7 40.44,21.3 82.19,41.1 125.33,59.1 46.24,19.2 92.93,36 139.92,50.4 27.39,130.3 54.78,260.6 82.17,391 133.57,13.5 267.14,27.1 400.71,40.7 49.95,-125.4 99.91,-250.7 149.86,-376.1 95.74,-11.7 189.8,-32.3 280.87,-61.5 110.37,89.3 220.74,178.5 331.11,267.8 113.03,-70.1 226.07,-140.2 339.1,-210.3 -40.53,-123.8 -81.05,-247.7 -121.58,-371.7 73.13,-66 139.92,-139.7 198.92,-220.6 134.62,15.6 269.24,31.2 403.86,46.8 55.14,-118.4 110.28,-236.8 165.42,-355.2 -107.39,-85.4 -214.79,-170.7 -322.2,-256 17.16,-87.8 25.61,-176 25.7,-263.6 116.95,-68.7 233.89,-137.3 350.84,-206 -32.13,-126.2 -64.24,-252.4 -96.36,-378.6 -128.7,-2.8 -257.41,-5.7 -386.11,-8.6 -43.38,-93.3 -97.02,-182.1 -160.17,-264.9 58.47,-123.5 116.93,-247 175.41,-370.5 -99.73,-87.1 -199.44,-174.2 -299.16,-261.3 -119.91,74.8 -239.81,149.5 -359.71,224.3 -40.45,-21.4 -82.23,-41.1 -125.39,-59.1 -40.55,-16.9 -81.47,-31.7 -122.61,-44.9 -32.7,-137 -65.41,-274.2 -98.11,-411.2 -133.89,-10.2 -267.79,-20.4 -401.68,-30.5 -46.46,126.4 -92.92,252.8 -139.38,379.2 -98.86,11.4 -195.98,32.3 -289.94,62.2 -102.03,-94.5 -204.07,-189.1 -306.1,-283.6 -117.68,62.5 -235.37,125 -353.04,187.5 34.78,138.3 69.58,276.6 104.36,414.8 -67.87,61.8 -130.22,130.2 -185.88,204.9" /></g><g
         transform="scale(1.25084)"
         id="g38"><path
           id="path40"
           style="fill:none;stroke:#ffffff;stroke-width:71.9516983;stroke-linecap:butt;stroke-linejoin:miter;stroke-miterlimit:10;stroke-dasharray:none;stroke-opacity:1"
           d="m 4286.04,13653.3 c -139.12,-10.5 -278.25,-21.2 -417.37,-31.7 -50.11,120.4 -100.23,240.9 -150.34,361.5 105.05,76.7 210.11,153.5 315.17,230.2 -20.02,96.4 -29.43,193.3 -28.87,289.4 -117.78,65.4 -235.55,130.9 -353.34,196.3 28.95,126.9 57.89,253.8 86.84,380.7 134.55,6.2 269.1,12.3 403.65,18.5 44.05,92.5 98.2,180.6 161.79,262.5 -56.34,114.9 -112.68,229.7 -169.03,344.5 98.48,88.4 196.95,176.8 295.43,265.3 116.64,-70.6 233.27,-141.1 349.91,-211.7 40.44,21.3 82.19,41.1 125.33,59.1 46.24,19.2 92.93,36 139.92,50.4 27.39,130.3 54.78,260.6 82.17,391 133.57,13.5 267.14,27.1 400.71,40.7 49.95,-125.4 99.91,-250.7 149.86,-376.1 95.74,-11.7 189.8,-32.3 280.87,-61.5 110.37,89.3 220.74,178.5 331.11,267.8 113.03,-70.1 226.07,-140.2 339.1,-210.3 -40.53,-123.8 -81.05,-247.7 -121.58,-371.7 73.13,-66 139.92,-139.7 198.92,-220.6 134.62,15.6 269.24,31.2 403.86,46.8 55.14,-118.4 110.28,-236.8 165.42,-355.2 -107.39,-85.4 -214.79,-170.7 -322.2,-256 17.16,-87.8 25.61,-176 25.7,-263.6 116.95,-68.7 233.89,-137.3 350.84,-206 -32.13,-126.2 -64.24,-252.4 -96.36,-378.6 -128.7,-2.8 -257.41,-5.7 -386.11,-8.6 -43.38,-93.3 -97.02,-182.1 -160.17,-264.9 58.47,-123.5 116.93,-247 175.41,-370.5 -99.73,-87.1 -199.44,-174.2 -299.16,-261.3 -119.91,74.8 -239.81,149.5 -359.71,224.3 -40.45,-21.4 -82.23,-41.1 -125.39,-59.1 -40.55,-16.9 -81.47,-31.7 -122.61,-44.9 -32.7,-137 -65.41,-274.2 -98.11,-411.2 -133.89,-10.2 -267.79,-20.4 -401.68,-30.5 -46.46,126.4 -92.92,252.8 -139.38,379.2 -98.86,11.4 -195.98,32.3 -289.94,62.2 -102.03,-94.5 -204.07,-189.1 -306.1,-283.6 -117.68,62.5 -235.37,125 -353.04,187.5 34.78,138.3 69.58,276.6 104.36,414.8 -67.87,61.8 -130.22,130.2 -185.88,204.9 z" /></g><g
         transform="scale(1.17623)"
         id="g42"><path
           id="path44"
           style="fill:#ffffff;fill-opacity:1;fill-rule:nonzero;stroke:none"
           d="m 5097.7,15095.3 c 177.08,-398.9 655,-583.2 1067.46,-411.5 412.47,171.6 603.28,634.1 426.19,1033 -177.08,398.9 -654.99,583.2 -1067.46,411.6 -412.45,-171.6 -603.26,-634.2 -426.19,-1033.1" /></g><g
         transform="scale(1.17623)"
         id="g46"><path
           id="path48"
           style="fill:none;stroke:#004266;stroke-width:76.51560211;stroke-linecap:butt;stroke-linejoin:miter;stroke-miterlimit:10;stroke-dasharray:none;stroke-opacity:1"
           d="m 5097.7,15095.3 c 177.08,-398.9 655,-583.2 1067.46,-411.5 412.47,171.6 603.28,634.1 426.19,1033 -177.08,398.9 -654.99,583.2 -1067.46,411.6 -412.45,-171.6 -603.26,-634.2 -426.19,-1033.1 z" /></g><g
         transform="scale(1.38387)"
         id="g50"><path
           id="path52"
           style="fill:#004266;fill-opacity:1;fill-rule:nonzero;stroke:none"
           d="m 5967.11,15169.2 c -74.39,40.4 -148.78,80.7 -223.17,121.1 16.88,77.7 33.76,155.5 50.64,233.2 80.33,4.5 160.66,9 240.99,13.5 23.69,55.5 52.95,107.9 87,156.6 -36.84,72 -73.68,144 -110.51,216 59.29,55 118.57,110 177.85,165 70.51,-41.1 141.02,-82.2 211.54,-123.3 54.87,32.5 113.31,59.5 174.42,80.3 11.72,76.9 23.44,153.8 35.15,230.7 81.08,12.6 162.17,25.1 243.24,37.7 34.47,-74.2 68.93,-148.4 103.4,-222.7 28.03,-2.4 56.18,-6.1 84.4,-11.2 30.24,-5.4 59.85,-12.2 88.78,-20.3 59.7,57.2 119.39,114.5 179.07,171.7 72.62,-37 145.25,-74 217.87,-111 -18.65,-80.2 -37.36,-160.4 -56,-240.5 44.51,-37.5 85.05,-78.9 121.11,-123.6 87.36,9 174.79,18.1 262.23,27.2 32.81,-72.8 65.54,-145.6 98.35,-218.4 -64.1,-49.7 -128.19,-99.3 -192.29,-149 13.95,-57.6 21.97,-117.1 23.49,-177.6 73.85,-36.3 147.7,-72.7 221.62,-109 -13.66,-78.3 -27.24,-156.7 -40.83,-235 -84.54,-8.1 -169.01,-16.2 -253.56,-24.2 -22.11,-50.3 -48.85,-98 -79.56,-142.5 35.26,-73.4 70.53,-146.8 105.79,-220.1 -60.63,-53.6 -121.25,-107.2 -181.88,-160.8 -66.41,40.8 -132.82,81.7 -199.15,122.6 -54.85,-33.2 -113.31,-60.7 -174.45,-82 -13.69,-82.1 -27.38,-164.1 -41.07,-246.1 -81.25,-11.5 -162.51,-23 -243.76,-34.5 -34.64,77.4 -69.28,154.9 -103.92,232.3 -28.05,2.5 -56.21,6.2 -84.45,11.2 -26.52,4.8 -52.53,10.7 -78.05,17.5 -64.76,-58.9 -129.53,-117.9 -194.3,-176.8 -71.59,38.8 -143.17,77.7 -214.75,116.6 20.81,79.5 41.61,159.1 62.43,238.6 -46.22,38.3 -88.18,80.9 -125.41,127 -85.05,-14.5 -170.09,-29 -255.14,-43.6 -37.82,70.5 -75.63,141 -113.44,211.5 66.25,58.9 132.5,117.7 198.75,176.6 -12.78,53.7 -20.4,109 -22.43,165.3" /></g><g
         transform="scale(1.38387)"
         id="g54"><path
           id="path56"
           style="fill:none;stroke:#ffffff;stroke-width:65.03479767;stroke-linecap:butt;stroke-linejoin:miter;stroke-miterlimit:10;stroke-dasharray:none;stroke-opacity:1"
           d="m 5967.11,15169.2 c -74.39,40.4 -148.78,80.7 -223.17,121.1 16.88,77.7 33.76,155.5 50.64,233.2 80.33,4.5 160.66,9 240.99,13.5 23.69,55.5 52.95,107.9 87,156.6 -36.84,72 -73.68,144 -110.51,216 59.29,55 118.57,110 177.85,165 70.51,-41.1 141.02,-82.2 211.54,-123.3 54.87,32.5 113.31,59.5 174.42,80.3 11.72,76.9 23.44,153.8 35.15,230.7 81.08,12.6 162.17,25.1 243.24,37.7 34.47,-74.2 68.93,-148.4 103.4,-222.7 28.03,-2.4 56.18,-6.1 84.4,-11.2 30.24,-5.4 59.85,-12.2 88.78,-20.3 59.7,57.2 119.39,114.5 179.07,171.7 72.62,-37 145.25,-74 217.87,-111 -18.65,-80.2 -37.36,-160.4 -56,-240.5 44.51,-37.5 85.05,-78.9 121.11,-123.6 87.36,9 174.79,18.1 262.23,27.2 32.81,-72.8 65.54,-145.6 98.35,-218.4 -64.1,-49.7 -128.19,-99.3 -192.29,-149 13.95,-57.6 21.97,-117.1 23.49,-177.6 73.85,-36.3 147.7,-72.7 221.62,-109 -13.66,-78.3 -27.24,-156.7 -40.83,-235 -84.54,-8.1 -169.01,-16.2 -253.56,-24.2 -22.11,-50.3 -48.85,-98 -79.56,-142.5 35.26,-73.4 70.53,-146.8 105.79,-220.1 -60.63,-53.6 -121.25,-107.2 -181.88,-160.8 -66.41,40.8 -132.82,81.7 -199.15,122.6 -54.85,-33.2 -113.31,-60.7 -174.45,-82 -13.69,-82.1 -27.38,-164.1 -41.07,-246.1 -81.25,-11.5 -162.51,-23 -243.76,-34.5 -34.64,77.4 -69.28,154.9 -103.92,232.3 -28.05,2.5 -56.21,6.2 -84.45,11.2 -26.52,4.8 -52.53,10.7 -78.05,17.5 -64.76,-58.9 -129.53,-117.9 -194.3,-176.8 -71.59,38.8 -143.17,77.7 -214.75,116.6 20.81,79.5 41.61,159.1 62.43,238.6 -46.22,38.3 -88.18,80.9 -125.41,127 -85.05,-14.5 -170.09,-29 -255.14,-43.6 -37.82,70.5 -75.63,141 -113.44,211.5 66.25,58.9 132.5,117.7 198.75,176.6 -12.78,53.7 -20.4,109 -22.43,165.3 z" /></g><g
         transform="scale(1.33168)"
         id="g58"><path
           id="path60"
           style="fill:#ffffff;fill-opacity:1;fill-rule:nonzero;stroke:none"
           d="m 6666.64,15876.4 c -49.06,-255.1 124.9,-500.2 388.55,-547.5 263.65,-47.3 517.18,121.2 566.22,376.3 49.03,255.1 -124.91,500.3 -388.57,547.5 -263.65,47.3 -517.15,-121.2 -566.2,-376.3" /></g><g
         transform="scale(1.33168)"
         id="g62"><path
           id="path64"
           style="fill:none;stroke:#004266;stroke-width:67.58360291;stroke-linecap:butt;stroke-linejoin:miter;stroke-miterlimit:10;stroke-dasharray:none;stroke-opacity:1"
           d="m 6666.64,15876.4 c -49.06,-255.1 124.9,-500.2 388.55,-547.5 263.65,-47.3 517.18,121.2 566.22,376.3 49.03,255.1 -124.91,500.3 -388.57,547.5 -263.65,47.3 -517.15,-121.2 -566.2,-376.3 z" /></g><g
         transform="scale(1.38383)"
         id="g66"><path
           id="path68"
           style="fill:#ffa021;fill-opacity:1;fill-rule:nonzero;stroke:none"
           d="m 16300,11572.5 -2331.5,-508.7 -670.9,3074.7 2331.5,508.7 670.9,-3074.7" /></g><g
         transform="scale(1.38383)"
         id="g70"><path
           id="path72"
           style="fill:none;stroke:#ffffff;stroke-width:65.03669739;stroke-linecap:butt;stroke-linejoin:miter;stroke-miterlimit:10;stroke-dasharray:none;stroke-opacity:1"
           d="m 16300,11572.5 -2331.5,-508.7 -670.9,3074.7 2331.5,508.7 z" /></g><g
         transform="scale(1.39652)"
         id="g74"><path
           id="path76"
           style="fill:#ffa021;fill-opacity:1;fill-rule:nonzero;stroke:none"
           d="m 16300,10690.9 h -2449.2 v 3599.9 H 16300 v -3599.9" /></g><g
         transform="scale(1.39652)"
         id="g78"><path
           id="path80"
           style="fill:none;stroke:#ffffff;stroke-width:64.44609833;stroke-linecap:butt;stroke-linejoin:miter;stroke-miterlimit:10;stroke-dasharray:none;stroke-opacity:1"
           d="m 16300,10690.9 h -2449.2 v 3599.9 H 16300 Z" /></g><g
         transform="scale(1.37779)"
         id="g82"><path
           id="path84"
           style="fill:#ffffff;fill-opacity:1;fill-rule:nonzero;stroke:none"
           d="m 16222.3,13160.9 h -1844.4 c -42.8,0 -77.8,35 -77.8,77.7 v 57.9 c 0,42.7 35,77.7 77.8,77.7 h 1844.4 c 42.8,0 77.7,-35 77.7,-77.7 v -57.9 c 0,-42.7 -34.9,-77.7 -77.7,-77.7" /></g><g
         transform="scale(1.37779)"
         id="g86"><path
           id="path88"
           style="fill:#ffffff;fill-opacity:1;fill-rule:nonzero;stroke:none"
           d="m 16222.3,12645.4 h -1844.4 c -42.8,0 -77.8,34.9 -77.8,77.7 v 57.8 c 0,42.7 35,77.7 77.8,77.7 h 1844.4 c 42.8,0 77.7,-35 77.7,-77.7 v -57.8 c 0,-42.8 -34.9,-77.7 -77.7,-77.7" /></g><g
         transform="scale(1.35073)"
         id="g90"><path
           id="path92"
           style="fill:#ffffff;fill-opacity:1;fill-rule:nonzero;stroke:none"
           d="m 16220.8,12372.8 h -1555 c -43.6,0 -79.2,35.7 -79.2,79.3 v 58.9 c 0,43.6 35.6,79.3 79.2,79.3 h 1555 c 43.5,0 79.2,-35.7 79.2,-79.3 v -58.9 c 0,-43.6 -35.7,-79.3 -79.2,-79.3" /></g><g
         transform="scale(1.3129)"
         id="g94"><path
           id="path96"
           style="fill:#ffffff;fill-opacity:1;fill-rule:nonzero;stroke:none"
           d="m 16218.5,12228.3 h -1130.1 c -44.9,0 -81.6,36.7 -81.6,81.6 v 60.6 c 0,44.9 36.7,81.6 81.6,81.6 h 1130.1 c 44.8,0 81.5,-36.7 81.5,-81.6 v -60.6 c 0,-44.9 -36.7,-81.6 -81.5,-81.6" /></g><path
         id="path98"
         style="fill:#ff3f1e;fill-opacity:1;fill-rule:nonzero;stroke:none"
         d="M 11160.5,7908.8 H 8960 v 2200.5 h 2200.5 V 7908.8" /><path
         id="path100"
         style="fill:none;stroke:#ffffff;stroke-width:90;stroke-linecap:butt;stroke-linejoin:miter;stroke-miterlimit:10;stroke-dasharray:none;stroke-opacity:1"
         d="M 11160.5,7908.8 H 8960 v 2200.5 h 2200.5 z" /><path
         id="path102"
         style="fill:#ff3f1e;fill-opacity:1;fill-rule:nonzero;stroke:none"
         d="m 14983.6,7908.8 h -2200.5 v 2200.5 h 2200.5 V 7908.8" /><path
         id="path104"
         style="fill:none;stroke:#ffffff;stroke-width:90;stroke-linecap:butt;stroke-linejoin:miter;stroke-miterlimit:10;stroke-dasharray:none;stroke-opacity:1"
         d="m 14983.6,7908.8 h -2200.5 v 2200.5 h 2200.5 z" /><g
         transform="scale(1.15106)"
         id="g106"><path
           id="path108"
           style="fill:#ff3f1e;fill-opacity:1;fill-rule:nonzero;stroke:none"
           d="M 16300,6870.91 H 14388.3 V 8782.64 H 16300 V 6870.91" /></g><g
         transform="scale(1.15106)"
         id="g110"><path
           id="path112"
           style="fill:none;stroke:#ffffff;stroke-width:78.18910217;stroke-linecap:butt;stroke-linejoin:miter;stroke-miterlimit:10;stroke-dasharray:none;stroke-opacity:1"
           d="M 16300,6870.91 H 14388.3 V 8782.64 H 16300 Z" /></g><path
         id="path114"
         style="fill:#ff3f1e;fill-opacity:1;fill-rule:nonzero;stroke:none"
         d="m 11620.4,8393 c 319.1,174.1 638.3,348.2 957.5,522.2 0.5,40.8 0.9,81.5 1.4,122.3 -314.7,200 -629.5,400.1 -944.3,600.2 l -5.9,-500.1 -311.5,3.6 -2.8,-233.3 311.6,-3.7 -6,-511.2" /><path
         id="path116"
         style="fill:none;stroke:#ffffff;stroke-width:90;stroke-linecap:butt;stroke-linejoin:miter;stroke-miterlimit:10;stroke-dasharray:none;stroke-opacity:1"
         d="m 11620.4,8393 c 319.1,174.1 638.3,348.2 957.5,522.2 0.5,40.8 0.9,81.5 1.4,122.3 -314.7,200 -629.5,400.1 -944.3,600.2 l -5.9,-500.1 -311.5,3.6 -2.8,-233.3 311.6,-3.7 z" /><g
         transform="scale(1.00628)"
         id="g118"><path
           id="path120"
           style="fill:#ff3f1e;fill-opacity:1;fill-rule:nonzero;stroke:none"
           d="m 15347.1,8329.57 c 317.1,173.01 634.3,345.93 951.5,518.94 0.5,40.55 0.9,80.99 1.4,121.54 -312.8,198.75 -625.6,397.6 -938.4,596.35 l -5.9,-496.88 -309.5,3.58 -2.8,-231.84 309.6,-3.68 -5.9,-508.01" /></g><g
         transform="scale(1.00628)"
         id="g122"><path
           id="path124"
           style="fill:none;stroke:#ffffff;stroke-width:89.43810272;stroke-linecap:butt;stroke-linejoin:miter;stroke-miterlimit:10;stroke-dasharray:none;stroke-opacity:1"
           d="m 15347.1,8329.57 c 317.1,173.01 634.3,345.93 951.5,518.94 0.5,40.55 0.9,80.99 1.4,121.54 -312.8,198.75 -625.6,397.6 -938.4,596.35 l -5.9,-496.88 -309.5,3.58 -2.8,-231.84 309.6,-3.68 z" /></g><g
         transform="scale(1.06569)"
         id="g126"><path
           id="path128"
           style="fill:#ffffff;fill-opacity:1;fill-rule:nonzero;stroke:none"
           d="m 10845.1,14062.4 c -13,168.4 -82.1,211.6 -436.3,362.9 l -112.3,47.4 c -410.35,185.8 -665.21,432.1 -665.21,907.1 0,540.1 380.11,920.2 911.41,920.2 285.2,0 578.9,-103.7 807.8,-280.9 60.5,-43.1 86.4,-138.2 51.8,-207.2 l -125.2,-254.9 c -30.2,-60.5 -82.1,-95 -146.9,-95 -34.5,0 -69.1,8.6 -99.4,25.9 l -4.3,4.3 c -224.6,151.1 -397.4,177.1 -479.5,177.1 -177,0 -289.4,-103.7 -289.4,-263.5 0,-138.3 64.8,-237.6 406.1,-388.8 17.2,-4.3 69.1,-25.9 263.5,-107.9 345.6,-151.3 544.3,-449.3 544.3,-816.5 0,-570.1 -432,-941.6 -976.3,-941.6 -280.7,0 -574.52,99.2 -820.75,280.7 -60.43,38.9 -86.33,138.2 -51.79,207.4 l 133.9,254.9 c 30.21,60.4 82.11,94.9 142.53,94.9 34.54,0 69.16,-8.6 99.38,-30.2 h 4.33 c 177.1,-116.6 341.3,-177.1 488.1,-177.1 216,0 354.2,108 354.2,280.8" /></g><g
         transform="scale(1.06569)"
         id="g130"><path
           id="path132"
           style="fill:#ffffff;fill-opacity:1;fill-rule:nonzero;stroke:none"
           d="m 13618.2,15155.2 c 0,254.9 -194.4,501.2 -462.3,501.2 -263.4,0 -462.1,-246.3 -462.1,-501.2 V 14300 c 0,-250.6 198.7,-505.4 462.1,-505.4 267.9,0 462.3,250.5 462.3,505.4 z m 630.6,-855.2 c 0,-609.1 -466.5,-1149 -1092.9,-1149 -626.3,0 -1092.8,539.9 -1092.8,1149 v 855.2 c 0,609.1 470.8,1144.8 1092.8,1144.8 622.1,0 1092.9,-535.7 1092.9,-1144.8 V 14300" /></g><g
         transform="scale(1.09877)"
         id="g134"><path
           id="path136"
           style="fill:#ffffff;fill-opacity:1;fill-rule:nonzero;stroke:none"
           d="m 15583.6,15038.3 c -62.8,71.3 -150.8,109 -247.2,109 h -268.1 v -733.2 h 268.1 c 192.7,0 351.9,167.6 351.9,368.7 0,96.3 -37.7,188.5 -104.7,255.5 z m -226.3,-1240.1 h -289 v -821.1 c 0,-96.4 -67.1,-167.6 -155,-167.6 h -297.5 c -88.1,0 -155,71.2 -155,167.6 v 2534.7 c 0,134 100.5,251.3 238.8,251.3 h 657.7 c 528,0 942.7,-464.9 942.7,-980.3 0,-519.5 -410.5,-984.6 -942.7,-984.6" /></g><path
         id="path138"
         style="fill:#2b3a40;fill-opacity:1;fill-rule:nonzero;stroke:none"
         d="m 4911.95,2383.9 c -3.58,46.5 -22.67,58.5 -120.51,100.2 l -31.02,13.1 c -113.36,51.4 -183.76,119.4 -183.76,250.6 0,149.2 105.01,254.2 251.77,254.2 78.75,0 159.89,-28.7 223.13,-77.6 16.7,-11.9 23.86,-38.2 14.31,-57.3 l -34.6,-70.4 c -8.35,-16.7 -22.67,-26.2 -40.57,-26.2 -9.54,0 -19.09,2.4 -27.44,7.1 l -1.19,1.2 c -62.05,41.8 -109.78,49 -132.45,49 -48.92,0 -79.95,-28.7 -79.95,-72.8 0,-38.2 17.9,-65.6 112.17,-107.4 4.77,-1.2 19.09,-7.2 72.78,-29.8 95.46,-41.8 150.35,-124.1 150.35,-225.6 0,-157.5 -119.32,-260.1 -269.67,-260.1 -77.56,0 -158.69,27.5 -226.71,77.6 -16.7,10.7 -23.86,38.2 -14.31,57.3 l 36.98,70.4 c 8.36,16.7 22.68,26.2 39.38,26.2 9.55,0 19.09,-2.4 27.45,-8.3 h 1.19 c 48.92,-32.3 94.26,-49 134.83,-49 59.66,0 97.84,29.9 97.84,77.6" /><path
         id="path140"
         style="fill:#2b3a40;fill-opacity:1;fill-rule:nonzero;stroke:none"
         d="m 5781.78,2858.8 c 0,-26.3 -20.29,-47.7 -45.35,-47.7 h -153.92 v -615.7 c 0,-27.5 -20.28,-47.8 -45.34,-47.8 h -83.53 c -25.06,0 -45.34,20.3 -45.34,47.8 v 615.7 h -153.92 c -25.05,0 -45.34,21.4 -45.34,47.7 v 82.3 c 0,27.5 20.29,47.7 45.34,47.7 h 482.05 c 25.06,0 45.35,-20.2 45.35,-47.7 v -82.3" /><path
         id="path142"
         style="fill:#2b3a40;fill-opacity:1;fill-rule:nonzero;stroke:none"
         d="M 6216.08,2697.7 6160,2505.6 h 110.97 z m 324.55,-484.4 c 1.19,-4.8 2.38,-9.6 2.38,-16.7 0,-27.5 -21.47,-49 -47.72,-49 h -76.37 c -25.05,0 -46.53,16.7 -53.69,43 l -42.95,142 h -213.59 l -41.76,-142 c -8.35,-26.3 -29.83,-43 -54.89,-43 h -73.98 c -26.25,0 -47.72,21.5 -47.72,49 0,7.1 1.19,11.9 2.38,16.7 l 227.9,739.7 c 7.16,25.1 29.83,41.8 54.89,41.8 h 82.33 c 25.06,0 46.54,-16.7 53.69,-41.8 l 229.1,-739.7" /><path
         id="path144"
         style="fill:#2b3a40;fill-opacity:1;fill-rule:nonzero;stroke:none"
         d="m 6871.1,2640.4 v -445 c 0,-27.5 -19.09,-47.8 -45.34,-47.8 h -75.17 c -25.06,0 -45.34,20.3 -45.34,47.8 v 737.4 c 0,31 23.86,56 53.7,56 h 85.9 c 20.29,0 35.8,-9.5 47.73,-27.4 l 261.32,-466.5 v 446.2 c 0,27.5 20.28,47.7 45.33,47.7 h 76.37 c 25.05,0 44.15,-20.2 44.15,-47.7 v -737.4 c 0,-31 -23.87,-56.1 -53.7,-56.1 h -87.1 c -19.09,0 -35.8,9.6 -47.73,27.5 l -260.12,465.3" /><path
         id="path146"
         style="fill:#2b3a40;fill-opacity:1;fill-rule:nonzero;stroke:none"
         d="m 7953.29,2658.3 c 0,80 -62.05,152.8 -144.38,152.8 h -95.46 v -485.7 h 95.46 c 82.33,0 144.38,74 144.38,153.9 z m 174.2,-177.8 c 0,-177.7 -130.06,-332.9 -313.81,-332.9 h -206.43 c -39.37,0 -68.01,33.4 -68.01,71.6 v 698.1 c 0,19 7.16,36.9 20.29,50.1 11.93,14.3 29.83,21.4 47.72,21.4 h 206.43 c 183.75,0 313.81,-156.3 313.81,-334.1 v -174.2" /><path
         id="path148"
         style="fill:#2b3a40;fill-opacity:1;fill-rule:nonzero;stroke:none"
         d="m 8595.19,2697.7 -56.08,-192.1 h 110.96 z m 324.55,-484.4 c 1.19,-4.8 2.39,-9.6 2.39,-16.7 0,-27.5 -21.48,-49 -47.74,-49 h -76.36 c -25.06,0 -46.53,16.7 -53.69,43 l -42.96,142 H 8487.8 l -41.76,-142 c -8.35,-26.3 -29.83,-43 -54.89,-43 h -73.98 c -26.25,0 -47.73,21.5 -47.73,49 0,7.1 1.19,11.9 2.39,16.7 l 227.9,739.7 c 7.16,25.1 29.83,41.8 54.89,41.8 h 82.33 c 25.06,0 46.53,-16.7 53.69,-41.8 l 229.1,-739.7" /><path
         id="path150"
         style="fill:#2b3a40;fill-opacity:1;fill-rule:nonzero;stroke:none"
         d="m 9253.79,2813.4 v -178.9 h 84.72 c 51.31,0 88.3,37 88.3,88.3 0,52.5 -34.61,90.6 -88.3,90.6 z m 196.88,-330.5 159.89,-261.3 c 4.77,-8.3 7.15,-17.9 7.15,-26.2 0,-27.5 -20.28,-47.8 -46.52,-47.8 h -85.92 c -20.28,0 -35.79,9.6 -46.53,26.3 l -168.24,285.2 h -16.71 v -263.7 c 0,-27.5 -20.28,-47.8 -45.34,-47.8 h -83.52 c -25.06,0 -45.35,20.3 -45.35,47.8 v 721.9 c 0,19 7.16,36.9 20.29,50.1 11.93,14.3 29.83,21.4 47.73,21.4 h 196.88 c 145.56,0 257.73,-120.5 257.73,-264.8 0,-105.1 -59.66,-199.3 -151.54,-241.1" /><path
         id="path152"
         style="fill:#2b3a40;fill-opacity:1;fill-rule:nonzero;stroke:none"
         d="m 10188,2658.3 c 0,80 -62,152.8 -144.3,152.8 h -95.5 v -485.7 h 95.5 c 82.3,0 144.3,74 144.3,153.9 z m 174.2,-177.8 c 0,-177.7 -130,-332.9 -313.8,-332.9 h -206.39 c -39.38,0 -68.02,33.4 -68.02,71.6 v 698.1 c 0,19 7.16,36.9 20.29,50.1 11.93,14.3 29.83,21.4 47.73,21.4 h 206.39 c 183.8,0 313.8,-156.3 313.8,-334.1 v -174.2" /><path
         id="path154"
         style="fill:#2b3a40;fill-opacity:1;fill-rule:nonzero;stroke:none"
         d="m 11265.4,2685.8 c 0,70.4 -53.6,138.4 -127.6,138.4 -72.8,0 -127.7,-68 -127.7,-138.4 v -236.3 c 0,-69.2 54.9,-139.6 127.7,-139.6 74,0 127.6,69.2 127.6,139.6 z m 174.3,-236.3 c 0,-168.2 -128.9,-317.4 -301.9,-317.4 -173,0 -301.9,149.2 -301.9,317.4 v 236.3 c 0,168.2 130.1,316.2 301.9,316.2 171.8,0 301.9,-148 301.9,-316.2 v -236.3" /><path
         id="path156"
         style="fill:#2b3a40;fill-opacity:1;fill-rule:nonzero;stroke:none"
         d="m 11872.8,2813.4 h -76.4 v -208.8 h 76.4 c 54.8,0 99,47.8 99,105 0,54.9 -41.8,103.8 -99,103.8 z m 4.7,-384.2 h -81.1 v -233.8 c 0,-27.5 -20.3,-47.8 -45.4,-47.8 h -83.5 c -25,0 -45.3,20.3 -45.3,47.8 v 721.9 c 0,19 7.1,36.9 20.3,50.1 11.9,14.3 29.8,21.4 47.7,21.4 h 187.3 c 151.6,0 268.5,-131.2 268.5,-279.2 0,-149.1 -115.7,-280.4 -268.5,-280.4" /><path
         id="path158"
         style="fill:#2b3a40;fill-opacity:1;fill-rule:nonzero;stroke:none"
         d="m 12493.2,2811.1 v -140.8 h 182.5 c 25.1,0 45.4,-20.3 45.4,-46.6 v -79.9 c 0,-26.3 -20.3,-46.6 -45.4,-46.6 h -182.5 v -171.8 h 252.9 c 25.1,0 45.4,-21.5 45.4,-47.7 v -82.3 c 0,-27.5 -20.3,-47.8 -45.4,-47.8 H 12387 c -39.4,0 -68,33.4 -68,71.6 v 698.1 c 0,19 7.1,36.9 20.3,50.1 11.9,14.3 29.8,21.4 47.7,21.4 h 359.1 c 25.1,0 45.4,-20.2 45.4,-47.7 v -82.3 c 0,-26.3 -20.3,-47.7 -45.4,-47.7 h -252.9" /><path
         id="path160"
         style="fill:#2b3a40;fill-opacity:1;fill-rule:nonzero;stroke:none"
         d="m 13137.5,2813.4 v -178.9 h 84.7 c 51.3,0 88.3,37 88.3,88.3 0,52.5 -34.6,90.6 -88.3,90.6 z m 196.9,-330.5 159.9,-261.3 c 4.7,-8.3 7.1,-17.9 7.1,-26.2 0,-27.5 -20.3,-47.8 -46.5,-47.8 h -85.9 c -20.3,0 -35.8,9.6 -46.6,26.3 l -168.2,285.2 h -16.7 v -263.7 c 0,-27.5 -20.3,-47.8 -45.3,-47.8 h -83.6 c -25,0 -45.3,20.3 -45.3,47.8 v 721.9 c 0,19 7.1,36.9 20.3,50.1 11.9,14.3 29.8,21.4 47.7,21.4 h 196.9 c 145.6,0 257.7,-120.5 257.7,-264.8 0,-105.1 -59.6,-199.3 -151.5,-241.1" /><path
         id="path162"
         style="fill:#2b3a40;fill-opacity:1;fill-rule:nonzero;stroke:none"
         d="m 13941.7,2697.7 -56.1,-192.1 h 111 z m 324.5,-484.4 c 1.2,-4.8 2.4,-9.6 2.4,-16.7 0,-27.5 -21.5,-49 -47.7,-49 h -76.4 c -25,0 -46.5,16.7 -53.7,43 l -42.9,142 h -213.6 l -41.8,-142 c -8.3,-26.3 -29.8,-43 -54.9,-43 h -73.9 c -26.3,0 -47.8,21.5 -47.8,49 0,7.1 1.2,11.9 2.4,16.7 l 227.9,739.7 c 7.2,25.1 29.9,41.8 54.9,41.8 h 82.3 c 25.1,0 46.6,-16.7 53.7,-41.8 l 229.1,-739.7" /><path
         id="path164"
         style="fill:#2b3a40;fill-opacity:1;fill-rule:nonzero;stroke:none"
         d="m 14955.9,2858.8 c 0,-26.3 -20.3,-47.7 -45.4,-47.7 h -153.9 v -615.7 c 0,-27.5 -20.3,-47.8 -45.3,-47.8 h -83.6 c -25,0 -45.3,20.3 -45.3,47.8 v 615.7 h -153.9 c -25.1,0 -45.4,21.4 -45.4,47.7 v 82.3 c 0,27.5 20.3,47.7 45.4,47.7 h 482 c 25.1,0 45.4,-20.2 45.4,-47.7 v -82.3" /><path
         id="path166"
         style="fill:#2b3a40;fill-opacity:1;fill-rule:nonzero;stroke:none"
         d="m 15439.1,2993.6 c 25,0 45.3,-21.5 45.3,-47.7 v -76.4 c 0,-27.4 -20.3,-47.7 -45.3,-47.7 h -66.8 v -502.3 h 66.8 c 25,0 45.3,-21.5 45.3,-47.8 v -76.3 c 0,-27.5 -20.3,-47.8 -45.3,-47.8 H 15130 c -25,0 -45.3,20.3 -45.3,47.8 v 76.3 c 0,26.3 20.3,47.8 45.3,47.8 h 66.9 v 502.3 h -66.9 c -25,0 -45.3,20.3 -45.3,47.7 v 76.4 c 0,26.2 20.3,47.7 45.3,47.7 h 309.1" /><path
         id="path168"
         style="fill:#2b3a40;fill-opacity:1;fill-rule:nonzero;stroke:none"
         d="m 15826.8,2640.4 v -445 c 0,-27.5 -19,-47.8 -45.3,-47.8 h -75.2 c -25,0 -45.3,20.3 -45.3,47.8 v 737.4 c 0,31 23.9,56 53.7,56 h 85.9 c 20.3,0 35.8,-9.5 47.7,-27.4 l 261.3,-466.5 v 446.2 c 0,27.5 20.3,47.7 45.4,47.7 h 76.3 c 25.1,0 44.2,-20.2 44.2,-47.7 v -737.4 c 0,-31 -23.9,-56.1 -53.7,-56.1 h -87.1 c -19.1,0 -35.8,9.6 -47.7,27.5 l -260.2,465.3" /><g
         transform="scale(1.04674)"
         id="g170"><path
           id="path172"
           style="fill:#2b3a40;fill-opacity:1;fill-rule:nonzero;stroke:none"
           d="m 16233.9,2548.78 c 37.5,0 66.1,-33.05 66.1,-69.55 v -123.14 c 0,-159.55 -125.4,-304.38 -288.4,-304.38 -165.3,0 -289.6,143.69 -289.6,304.38 v 226.89 c 0,160.69 124.3,304.38 289.6,304.38 91.1,0 173.3,-36.5 227.9,-101.46 6.9,-9.17 11.5,-20.54 11.5,-33.06 0,-12.61 -4.6,-25.12 -12.6,-35.35 l -46.7,-51.3 c -9.1,-10.32 -20.6,-14.8 -31.9,-14.8 -9.1,0 -21.7,2.19 -34.2,15.95 -29.7,33.06 -66.2,50.15 -112.9,50.15 -69.5,0 -124.3,-67.25 -124.3,-134.51 v -226.89 c 0,-67.26 54.8,-134.52 124.3,-134.52 69.6,0 122,62.67 122,129.93 v 29.71 h -114 c -23.9,0 -43.3,19.4 -43.3,45.57 v 76.34 c 0,25.12 19.4,45.66 43.3,45.66 h 213.2" /></g><g
         transform="scale(1.10852)"
         id="g174"><path
           id="path176"
           style="fill:#2b3a40;fill-opacity:1;fill-rule:nonzero;stroke:none"
           d="m 16116,2510.03 c -16.2,18.31 -38.8,27.96 -63.5,27.96 h -69 v -188.36 h 69 c 49.4,0 90.4,43.12 90.4,94.72 0,24.81 -9.8,48.44 -26.9,65.68 z m -58.2,-318.63 h -74.3 v -210.91 c 0,-24.81 -17.2,-43.12 -39.8,-43.12 h -76.4 c -22.6,0 -39.8,18.31 -39.8,43.12 v 651.23 c 0,34.37 25.8,64.5 61.3,64.5 h 169 c 135.7,0 242.2,-119.44 242.2,-251.87 0,-133.42 -105.5,-252.95 -242.2,-252.95" /></g><g
         transform="scale(1.15266)"
         id="g178"><path
           id="path180"
           style="fill:#2b3a40;fill-opacity:1;fill-rule:nonzero;stroke:none"
           d="m 15984.2,2440.8 v -155.21 h 73.6 c 44.5,0 76.6,32.1 76.6,76.61 0,45.54 -30.1,78.6 -76.6,78.6 z m 170.8,-286.73 138.8,-226.69 c 4.1,-7.21 6.2,-15.53 6.2,-22.73 0,-23.86 -17.6,-41.47 -40.4,-41.47 h -74.6 c -17.6,0 -31,8.32 -40.3,22.81 l -146,247.43 h -14.5 v -228.77 c 0,-23.86 -17.5,-41.47 -39.3,-41.47 h -72.4 c -21.8,0 -39.4,17.61 -39.4,41.47 v 626.29 c 0,16.48 6.2,32.01 17.6,43.46 10.3,12.41 25.8,18.57 41.4,18.57 h 170.8 c 126.3,0 223.6,-104.54 223.6,-229.73 0,-91.19 -51.7,-172.91 -131.5,-209.17" /></g><g
         transform="scale(1.1984)"
         id="g182"><path
           id="path184"
           style="fill:#2b3a40;fill-opacity:1;fill-rule:nonzero;stroke:none"
           d="m 16154.6,2241.15 c 0,58.74 -44.8,115.48 -106.5,115.48 -60.8,0 -106.6,-56.74 -106.6,-115.48 v -197.18 c 0,-57.75 45.8,-116.49 106.6,-116.49 61.7,0 106.5,57.74 106.5,116.49 z m 145.4,-197.18 c 0,-140.36 -107.6,-264.85 -251.9,-264.85 -144.4,0 -251.9,124.49 -251.9,264.85 v 197.18 c 0,140.35 108.5,263.85 251.9,263.85 143.3,0 251.9,-123.5 251.9,-263.85 v -197.18" /></g><g
         transform="scale(1.24261)"
         id="g186"><path
           id="path188"
           style="fill:#2b3a40;fill-opacity:1;fill-rule:nonzero;stroke:none"
           d="m 16287.5,1859.87 c 8.6,-8.61 12.5,-19.23 12.5,-30.74 0,-9.58 -2.9,-18.19 -8.6,-25.91 l -1,-0.97 c -46.1,-55.69 -113.3,-86.43 -187.2,-86.43 -137.3,0 -238.2,122.97 -238.2,255.43 v 190.16 c 0,133.43 101.8,254.47 238.2,254.47 75.8,0 142.1,-29.78 186.3,-85.47 6.6,-7.72 9.5,-17.3 9.5,-27.84 0,-9.66 -2.9,-20.2 -10.5,-29.78 l -38.4,-42.25 c -8.7,-8.69 -17.3,-12.47 -26.9,-12.47 -7.7,0 -18.2,1.93 -28.8,14.4 -23.1,26.88 -52.9,40.32 -90.3,40.32 -52.8,0 -98.9,-51.91 -98.9,-111.38 v -190.16 c 0,-60.52 46.1,-112.34 98.9,-112.34 37.4,0 67.2,13.44 90.3,40.31 10.6,12.48 21.1,14.41 27.9,14.41 7.6,0 17.2,-1.93 27.8,-12.47 l 37.4,-41.29" /></g><g
         transform="scale(1.28083)"
         id="g190"><path
           id="path192"
           style="fill:#2b3a40;fill-opacity:1;fill-rule:nonzero;stroke:none"
           d="m 16067,2194.75 v -109.93 h 142.6 c 19.6,0 35.4,-15.85 35.4,-36.38 v -62.38 c 0,-20.53 -15.8,-36.38 -35.4,-36.38 H 16067 v -134.13 h 197.6 c 19.6,0 35.4,-16.79 35.4,-37.25 v -64.25 c 0,-21.47 -15.8,-37.32 -35.4,-37.32 h -280.5 c -30.7,0 -53.1,26.07 -53.1,55.9 v 545.04 c 0,14.83 5.6,28.81 15.9,39.11 9.3,11.17 23.2,16.71 37.2,16.71 h 280.5 c 19.6,0 35.4,-15.77 35.4,-37.24 v -64.26 c 0,-20.53 -15.8,-37.24 -35.4,-37.24 H 16067" /></g><g
         transform="scale(1.32811)"
         id="g194"><path
           id="path196"
           style="fill:#2b3a40;fill-opacity:1;fill-rule:nonzero;stroke:none"
           d="m 16168.8,2001.57 c 0,60.23 -46.6,115.05 -108.7,115.05 h -71.8 v -365.71 h 71.8 c 62.1,0 108.7,55.72 108.7,115.88 z m 131.2,-133.88 c 0,-133.8 -98,-250.65 -236.3,-250.65 h -155.4 c -29.7,0 -51.2,25.14 -51.2,53.9 v 525.64 c 0,14.31 5.4,27.78 15.2,37.72 9.1,10.77 22.5,16.12 36,16.12 h 155.4 c 138.3,0 236.3,-117.69 236.3,-251.57 v -131.16" /></g><g
         transform="scale(1.37796)"
         id="g198"><path
           id="path200"
           style="fill:#2b3a40;fill-opacity:1;fill-rule:nonzero;stroke:none"
           d="m 16300,1793.23 c 0,-128.16 -83.1,-245.94 -219,-245.94 -136,0 -220,117.78 -220,245.94 v 341.16 c 0,19.09 14.7,33.75 32.9,33.75 h 60.7 c 18.1,0 32.8,-14.66 32.8,-33.75 v -345.51 c 0,-67.49 36.4,-110.82 93.6,-110.82 63.2,0 92.6,52.84 92.6,110.82 v 345.51 c 0,19.09 14.7,33.75 32.9,33.75 h 61.5 c 18.2,0 32,-14.66 32,-33.75 v -341.16" /></g><g
         transform="scale(1.42407)"
         id="g202"><path
           id="path204"
           style="fill:#2b3a40;fill-opacity:1;fill-rule:nonzero;stroke:none"
           d="m 16044.5,1975.6 v -125.63 h 59.4 c 36.1,0 62,25.99 62,62.01 0,36.87 -24.3,63.62 -62,63.62 z m 138.2,-232.08 112.3,-183.49 c 3.3,-5.83 5,-12.57 5,-18.39 0,-19.32 -14.3,-33.57 -32.7,-33.57 h -60.3 c -14.2,0 -25.1,6.74 -32.7,18.46 l -118.1,200.28 h -11.7 v -185.17 c 0,-19.32 -14.3,-33.57 -31.8,-33.57 h -58.8 c -17.5,0 -31.8,14.25 -31.8,33.57 v 506.92 c 0,13.34 5,25.91 14.3,35.18 8.3,10.04 20.9,15.03 33.5,15.03 h 138.3 c 102.1,0 180.9,-84.62 180.9,-185.95 0,-73.8 -41.9,-139.95 -106.4,-169.3" /></g><g
         transform="scale(1.46258)"
         id="g206"><path
           id="path208"
           style="fill:#2b3a40;fill-opacity:1;fill-rule:nonzero;stroke:none"
           d="m 16096,1922.02 v -96.27 h 124.9 c 17.1,0 31,-13.88 31,-31.86 v -54.63 c 0,-17.98 -13.9,-31.86 -31,-31.86 H 16096 v -117.46 h 173 c 17.1,0 31,-14.71 31,-32.62 v -56.27 c 0,-18.8 -13.9,-32.68 -31,-32.68 h -245.6 c -26.9,0 -46.5,22.83 -46.5,48.95 v 477.31 c 0,12.99 5,25.23 13.9,34.26 8.2,9.77 20.4,14.63 32.6,14.63 h 245.6 c 17.1,0 31,-13.81 31,-32.62 v -56.27 c 0,-17.98 -13.9,-32.61 -31,-32.61 h -173" /></g></g></g></svg>